<mxfile host="app.diagrams.net" modified="2020-11-24T12:35:48.399Z" agent="5.0 (Windows NT 10.0; Win64; x64) AppleWebKit/537.36 (KHTML, like Gecko) Chrome/87.0.4280.66 Safari/537.36" etag="lpd5aMuj-xTwSeM13CGl" version="13.9.9" type="github" pages="3">
  <diagram id="R2lEEEUBdFMjLlhIrx00" name="Page-1">
    <mxGraphModel dx="2090" dy="1743" grid="1" gridSize="10" guides="1" tooltips="1" connect="1" arrows="1" fold="1" page="1" pageScale="1" pageWidth="850" pageHeight="1100" math="0" shadow="0" extFonts="Permanent Marker^https://fonts.googleapis.com/css?family=Permanent+Marker">
      <root>
        <mxCell id="0" />
        <mxCell id="1" parent="0" />
        <mxCell id="eiDw2SdyNVHJPghsJ6bD-1" value="Bài báo" style="rounded=0;whiteSpace=wrap;html=1;fillColor=#f8cecc;strokeColor=#b85450;" parent="1" vertex="1">
          <mxGeometry x="-30" y="250" width="120" height="60" as="geometry" />
        </mxCell>
        <mxCell id="eiDw2SdyNVHJPghsJ6bD-2" value="File bài báo" style="ellipse;whiteSpace=wrap;html=1;" parent="1" vertex="1">
          <mxGeometry x="-190" y="165" width="70" height="45" as="geometry" />
        </mxCell>
        <mxCell id="eiDw2SdyNVHJPghsJ6bD-3" value="Tác giả" style="rounded=0;whiteSpace=wrap;html=1;fillColor=#f8cecc;strokeColor=#b85450;" parent="1" vertex="1">
          <mxGeometry x="550" y="100" width="120" height="60" as="geometry" />
        </mxCell>
        <mxCell id="eiDw2SdyNVHJPghsJ6bD-4" value="Ngày gởi" style="ellipse;whiteSpace=wrap;html=1;" parent="1" vertex="1">
          <mxGeometry x="-60" y="80" width="70" height="50" as="geometry" />
        </mxCell>
        <mxCell id="eiDw2SdyNVHJPghsJ6bD-5" value="Từ khóa" style="ellipse;whiteSpace=wrap;html=1;" parent="1" vertex="1">
          <mxGeometry x="-250" y="250" width="120" height="80" as="geometry" />
        </mxCell>
        <mxCell id="eiDw2SdyNVHJPghsJ6bD-6" value="Loại bài báo" style="ellipse;whiteSpace=wrap;html=1;" vertex="1" parent="1">
          <mxGeometry x="-260" y="420" width="80" height="45" as="geometry" />
        </mxCell>
        <mxCell id="eiDw2SdyNVHJPghsJ6bD-7" value="Tóm tắt" style="ellipse;whiteSpace=wrap;html=1;" parent="1" vertex="1">
          <mxGeometry x="-195" y="470" width="65" height="45" as="geometry" />
        </mxCell>
        <mxCell id="eiDw2SdyNVHJPghsJ6bD-8" value="Tiêu đề" style="ellipse;whiteSpace=wrap;html=1;" parent="1" vertex="1">
          <mxGeometry x="-155" y="105" width="65" height="45" as="geometry" />
        </mxCell>
        <mxCell id="eiDw2SdyNVHJPghsJ6bD-9" value="&lt;u&gt;Mã bài báo&lt;/u&gt;" style="ellipse;whiteSpace=wrap;html=1;" parent="1" vertex="1">
          <mxGeometry x="-300" y="355" width="70" height="50" as="geometry" />
        </mxCell>
        <mxCell id="eiDw2SdyNVHJPghsJ6bD-10" value="" style="endArrow=none;html=1;exitX=1;exitY=1;exitDx=0;exitDy=0;entryX=0.5;entryY=0;entryDx=0;entryDy=0;" parent="1" source="eiDw2SdyNVHJPghsJ6bD-2" target="eiDw2SdyNVHJPghsJ6bD-1" edge="1">
          <mxGeometry width="50" height="50" relative="1" as="geometry">
            <mxPoint y="340" as="sourcePoint" />
            <mxPoint x="50" y="290" as="targetPoint" />
          </mxGeometry>
        </mxCell>
        <mxCell id="eiDw2SdyNVHJPghsJ6bD-11" value="" style="endArrow=none;html=1;entryX=0;entryY=0.5;entryDx=0;entryDy=0;" parent="1" source="eiDw2SdyNVHJPghsJ6bD-5" target="eiDw2SdyNVHJPghsJ6bD-1" edge="1">
          <mxGeometry width="50" height="50" relative="1" as="geometry">
            <mxPoint y="340" as="sourcePoint" />
            <mxPoint x="50" y="290" as="targetPoint" />
          </mxGeometry>
        </mxCell>
        <mxCell id="eiDw2SdyNVHJPghsJ6bD-12" value="" style="endArrow=none;html=1;entryX=0.5;entryY=1;entryDx=0;entryDy=0;" edge="1" parent="1" source="eiDw2SdyNVHJPghsJ6bD-6" target="eiDw2SdyNVHJPghsJ6bD-1">
          <mxGeometry width="50" height="50" relative="1" as="geometry">
            <mxPoint y="340" as="sourcePoint" />
            <mxPoint x="50" y="290" as="targetPoint" />
          </mxGeometry>
        </mxCell>
        <mxCell id="eiDw2SdyNVHJPghsJ6bD-13" value="" style="endArrow=none;html=1;exitX=0.5;exitY=0;exitDx=0;exitDy=0;entryX=0.5;entryY=1;entryDx=0;entryDy=0;" parent="1" source="eiDw2SdyNVHJPghsJ6bD-7" target="eiDw2SdyNVHJPghsJ6bD-1" edge="1">
          <mxGeometry width="50" height="50" relative="1" as="geometry">
            <mxPoint x="250" y="350" as="sourcePoint" />
            <mxPoint x="300" y="300" as="targetPoint" />
          </mxGeometry>
        </mxCell>
        <mxCell id="eiDw2SdyNVHJPghsJ6bD-14" value="" style="endArrow=none;html=1;exitX=0.5;exitY=0;exitDx=0;exitDy=0;entryX=0.5;entryY=1;entryDx=0;entryDy=0;" parent="1" source="eiDw2SdyNVHJPghsJ6bD-1" target="eiDw2SdyNVHJPghsJ6bD-4" edge="1">
          <mxGeometry width="50" height="50" relative="1" as="geometry">
            <mxPoint x="250" y="350" as="sourcePoint" />
            <mxPoint x="300" y="300" as="targetPoint" />
          </mxGeometry>
        </mxCell>
        <mxCell id="eiDw2SdyNVHJPghsJ6bD-15" value="" style="endArrow=none;html=1;exitX=0.5;exitY=0;exitDx=0;exitDy=0;entryX=1;entryY=0.5;entryDx=0;entryDy=0;" parent="1" source="eiDw2SdyNVHJPghsJ6bD-1" target="eiDw2SdyNVHJPghsJ6bD-8" edge="1">
          <mxGeometry width="50" height="50" relative="1" as="geometry">
            <mxPoint y="340" as="sourcePoint" />
            <mxPoint x="50" y="290" as="targetPoint" />
          </mxGeometry>
        </mxCell>
        <mxCell id="eiDw2SdyNVHJPghsJ6bD-16" value="" style="endArrow=none;html=1;exitX=0;exitY=0.5;exitDx=0;exitDy=0;entryX=1;entryY=0;entryDx=0;entryDy=0;" parent="1" source="eiDw2SdyNVHJPghsJ6bD-1" target="eiDw2SdyNVHJPghsJ6bD-9" edge="1">
          <mxGeometry width="50" height="50" relative="1" as="geometry">
            <mxPoint y="340" as="sourcePoint" />
            <mxPoint x="50" y="290" as="targetPoint" />
          </mxGeometry>
        </mxCell>
        <mxCell id="eiDw2SdyNVHJPghsJ6bD-17" value="" style="ellipse;whiteSpace=wrap;html=1;strokeColor=#000000;fillColor=none;" parent="1" vertex="1">
          <mxGeometry x="-245" y="260" width="110" height="60" as="geometry" />
        </mxCell>
        <mxCell id="eiDw2SdyNVHJPghsJ6bD-18" value="Phản biện sách" style="rounded=0;whiteSpace=wrap;html=1;strokeColor=#b85450;fillColor=#f8cecc;" parent="1" vertex="1">
          <mxGeometry x="40" y="570" width="120" height="60" as="geometry" />
        </mxCell>
        <mxCell id="eiDw2SdyNVHJPghsJ6bD-20" value="d" style="ellipse;whiteSpace=wrap;html=1;aspect=fixed;strokeColor=#000000;fillColor=#ffffff;" parent="1" vertex="1">
          <mxGeometry x="60" y="410" width="40" height="40" as="geometry" />
        </mxCell>
        <mxCell id="eiDw2SdyNVHJPghsJ6bD-21" value="" style="endArrow=none;html=1;entryX=0.815;entryY=0.991;entryDx=0;entryDy=0;entryPerimeter=0;exitX=0.5;exitY=0;exitDx=0;exitDy=0;" parent="1" source="eiDw2SdyNVHJPghsJ6bD-20" target="eiDw2SdyNVHJPghsJ6bD-1" edge="1">
          <mxGeometry width="50" height="50" relative="1" as="geometry">
            <mxPoint y="560" as="sourcePoint" />
            <mxPoint x="50" y="510" as="targetPoint" />
          </mxGeometry>
        </mxCell>
        <mxCell id="eiDw2SdyNVHJPghsJ6bD-22" value="" style="endArrow=none;html=1;exitX=0.5;exitY=0;exitDx=0;exitDy=0;" parent="1" source="eiDw2SdyNVHJPghsJ6bD-18" edge="1">
          <mxGeometry width="50" height="50" relative="1" as="geometry">
            <mxPoint y="560" as="sourcePoint" />
            <mxPoint x="80" y="450" as="targetPoint" />
          </mxGeometry>
        </mxCell>
        <mxCell id="eiDw2SdyNVHJPghsJ6bD-23" value="Loại bài báo" style="text;html=1;align=center;verticalAlign=middle;resizable=0;points=[];autosize=1;" parent="1" vertex="1">
          <mxGeometry x="75" y="360" width="80" height="20" as="geometry" />
        </mxCell>
        <mxCell id="eiDw2SdyNVHJPghsJ6bD-24" value="Tổng quan" style="rounded=0;whiteSpace=wrap;html=1;strokeColor=#b85450;fillColor=#f8cecc;" parent="1" vertex="1">
          <mxGeometry x="200" y="570" width="120" height="60" as="geometry" />
        </mxCell>
        <mxCell id="eiDw2SdyNVHJPghsJ6bD-25" value="Ngiên cứu" style="rounded=0;whiteSpace=wrap;html=1;strokeColor=#b85450;fillColor=#f8cecc;" parent="1" vertex="1">
          <mxGeometry x="-120" y="590" width="120" height="60" as="geometry" />
        </mxCell>
        <mxCell id="eiDw2SdyNVHJPghsJ6bD-26" value="" style="endArrow=none;html=1;entryX=0;entryY=1;entryDx=0;entryDy=0;exitX=0.5;exitY=0;exitDx=0;exitDy=0;" parent="1" source="eiDw2SdyNVHJPghsJ6bD-25" target="eiDw2SdyNVHJPghsJ6bD-20" edge="1">
          <mxGeometry width="50" height="50" relative="1" as="geometry">
            <mxPoint y="550" as="sourcePoint" />
            <mxPoint x="50" y="500" as="targetPoint" />
          </mxGeometry>
        </mxCell>
        <mxCell id="eiDw2SdyNVHJPghsJ6bD-27" value="" style="endArrow=none;html=1;entryX=1;entryY=1;entryDx=0;entryDy=0;exitX=0.5;exitY=0;exitDx=0;exitDy=0;" parent="1" source="eiDw2SdyNVHJPghsJ6bD-24" target="eiDw2SdyNVHJPghsJ6bD-20" edge="1">
          <mxGeometry width="50" height="50" relative="1" as="geometry">
            <mxPoint y="550" as="sourcePoint" />
            <mxPoint x="50" y="500" as="targetPoint" />
          </mxGeometry>
        </mxCell>
        <mxCell id="eiDw2SdyNVHJPghsJ6bD-30" value="Nhà khoa học" style="rounded=0;whiteSpace=wrap;html=1;strokeColor=#b85450;fillColor=#f8cecc;" parent="1" vertex="1">
          <mxGeometry x="780" y="-100" width="120" height="60" as="geometry" />
        </mxCell>
        <mxCell id="eiDw2SdyNVHJPghsJ6bD-31" value="Phản biện" style="rounded=0;whiteSpace=wrap;html=1;strokeColor=#b85450;fillColor=#f8cecc;" parent="1" vertex="1">
          <mxGeometry x="790" y="240" width="120" height="60" as="geometry" />
        </mxCell>
        <mxCell id="eiDw2SdyNVHJPghsJ6bD-32" value="Biên tập" style="rounded=0;whiteSpace=wrap;html=1;strokeColor=#b85450;fillColor=#f8cecc;" parent="1" vertex="1">
          <mxGeometry x="560" y="230" width="120" height="60" as="geometry" />
        </mxCell>
        <mxCell id="eiDw2SdyNVHJPghsJ6bD-33" value="o" style="ellipse;whiteSpace=wrap;html=1;aspect=fixed;strokeColor=#000000;fillColor=#ffffff;" parent="1" vertex="1">
          <mxGeometry x="825" y="90" width="30" height="30" as="geometry" />
        </mxCell>
        <mxCell id="eiDw2SdyNVHJPghsJ6bD-36" value="" style="endArrow=none;html=1;exitX=0.5;exitY=0;exitDx=0;exitDy=0;entryX=0.5;entryY=1;entryDx=0;entryDy=0;" parent="1" source="eiDw2SdyNVHJPghsJ6bD-33" target="eiDw2SdyNVHJPghsJ6bD-30" edge="1">
          <mxGeometry width="50" height="50" relative="1" as="geometry">
            <mxPoint x="570" y="60" as="sourcePoint" />
            <mxPoint x="831" y="-38" as="targetPoint" />
          </mxGeometry>
        </mxCell>
        <mxCell id="eiDw2SdyNVHJPghsJ6bD-38" value="" style="endArrow=none;html=1;entryX=0;entryY=1;entryDx=0;entryDy=0;exitX=1;exitY=0.5;exitDx=0;exitDy=0;" parent="1" source="eiDw2SdyNVHJPghsJ6bD-3" target="eiDw2SdyNVHJPghsJ6bD-33" edge="1">
          <mxGeometry width="50" height="50" relative="1" as="geometry">
            <mxPoint x="570" y="230" as="sourcePoint" />
            <mxPoint x="620" y="180" as="targetPoint" />
          </mxGeometry>
        </mxCell>
        <mxCell id="eiDw2SdyNVHJPghsJ6bD-39" value="" style="endArrow=none;html=1;entryX=0.5;entryY=1;entryDx=0;entryDy=0;exitX=0.5;exitY=0;exitDx=0;exitDy=0;" parent="1" source="eiDw2SdyNVHJPghsJ6bD-31" target="eiDw2SdyNVHJPghsJ6bD-33" edge="1">
          <mxGeometry width="50" height="50" relative="1" as="geometry">
            <mxPoint x="570" y="230" as="sourcePoint" />
            <mxPoint x="620" y="180" as="targetPoint" />
          </mxGeometry>
        </mxCell>
        <mxCell id="eiDw2SdyNVHJPghsJ6bD-40" value="" style="endArrow=none;html=1;exitX=1;exitY=0;exitDx=0;exitDy=0;entryX=0.273;entryY=0.951;entryDx=0;entryDy=0;entryPerimeter=0;" parent="1" source="eiDw2SdyNVHJPghsJ6bD-32" target="eiDw2SdyNVHJPghsJ6bD-33" edge="1">
          <mxGeometry width="50" height="50" relative="1" as="geometry">
            <mxPoint x="570" y="230" as="sourcePoint" />
            <mxPoint x="829" y="120" as="targetPoint" />
          </mxGeometry>
        </mxCell>
        <mxCell id="eiDw2SdyNVHJPghsJ6bD-50" value="Trình độ" style="ellipse;whiteSpace=wrap;html=1;strokeColor=#000000;fillColor=#ffffff;" parent="1" vertex="1">
          <mxGeometry x="950" y="410" width="120" height="80" as="geometry" />
        </mxCell>
        <mxCell id="eiDw2SdyNVHJPghsJ6bD-51" value="Chuyên môn" style="ellipse;whiteSpace=wrap;html=1;strokeColor=#000000;fillColor=#ffffff;" parent="1" vertex="1">
          <mxGeometry x="1100" y="270" width="120" height="80" as="geometry" />
        </mxCell>
        <mxCell id="eiDw2SdyNVHJPghsJ6bD-52" value="Ngày cộng tác với tạp chỉ" style="ellipse;whiteSpace=wrap;html=1;strokeColor=#000000;fillColor=#ffffff;" parent="1" vertex="1">
          <mxGeometry x="1110" y="395" width="120" height="80" as="geometry" />
        </mxCell>
        <mxCell id="eiDw2SdyNVHJPghsJ6bD-57" value="Email" style="ellipse;whiteSpace=wrap;html=1;strokeColor=#000000;fillColor=#ffffff;" parent="1" vertex="1">
          <mxGeometry x="1010" y="-330" width="120" height="80" as="geometry" />
        </mxCell>
        <mxCell id="eiDw2SdyNVHJPghsJ6bD-58" value="Nội dung email" style="ellipse;whiteSpace=wrap;html=1;strokeColor=#000000;fillColor=#ffffff;" parent="1" vertex="1">
          <mxGeometry x="1210" y="-370" width="120" height="80" as="geometry" />
        </mxCell>
        <mxCell id="eiDw2SdyNVHJPghsJ6bD-59" value="Loại email" style="ellipse;whiteSpace=wrap;html=1;strokeColor=#000000;fillColor=#ffffff;" parent="1" vertex="1">
          <mxGeometry x="1230" y="-250" width="120" height="80" as="geometry" />
        </mxCell>
        <mxCell id="eiDw2SdyNVHJPghsJ6bD-60" value="" style="endArrow=none;html=1;entryX=1;entryY=0.5;entryDx=0;entryDy=0;exitX=0;exitY=0.5;exitDx=0;exitDy=0;" parent="1" source="eiDw2SdyNVHJPghsJ6bD-58" target="eiDw2SdyNVHJPghsJ6bD-57" edge="1">
          <mxGeometry width="50" height="50" relative="1" as="geometry">
            <mxPoint x="780" y="-200" as="sourcePoint" />
            <mxPoint x="830" y="-250" as="targetPoint" />
          </mxGeometry>
        </mxCell>
        <mxCell id="eiDw2SdyNVHJPghsJ6bD-61" value="" style="endArrow=none;html=1;entryX=1;entryY=0.5;entryDx=0;entryDy=0;exitX=0;exitY=0.5;exitDx=0;exitDy=0;" parent="1" source="eiDw2SdyNVHJPghsJ6bD-59" target="eiDw2SdyNVHJPghsJ6bD-57" edge="1">
          <mxGeometry width="50" height="50" relative="1" as="geometry">
            <mxPoint x="780" y="-200" as="sourcePoint" />
            <mxPoint x="830" y="-250" as="targetPoint" />
          </mxGeometry>
        </mxCell>
        <mxCell id="eiDw2SdyNVHJPghsJ6bD-63" value="" style="endArrow=none;html=1;entryX=0.5;entryY=1;entryDx=0;entryDy=0;exitX=0;exitY=0.388;exitDx=0;exitDy=0;exitPerimeter=0;" parent="1" source="eiDw2SdyNVHJPghsJ6bD-51" target="eiDw2SdyNVHJPghsJ6bD-31" edge="1">
          <mxGeometry width="50" height="50" relative="1" as="geometry">
            <mxPoint x="900" y="660" as="sourcePoint" />
            <mxPoint x="950" y="610" as="targetPoint" />
          </mxGeometry>
        </mxCell>
        <mxCell id="eiDw2SdyNVHJPghsJ6bD-64" value="" style="endArrow=none;html=1;entryX=0.5;entryY=1;entryDx=0;entryDy=0;exitX=0.333;exitY=0;exitDx=0;exitDy=0;exitPerimeter=0;" parent="1" source="eiDw2SdyNVHJPghsJ6bD-52" target="eiDw2SdyNVHJPghsJ6bD-31" edge="1">
          <mxGeometry width="50" height="50" relative="1" as="geometry">
            <mxPoint x="900" y="660" as="sourcePoint" />
            <mxPoint x="950" y="610" as="targetPoint" />
          </mxGeometry>
        </mxCell>
        <mxCell id="eiDw2SdyNVHJPghsJ6bD-67" value="" style="endArrow=none;html=1;entryX=0.5;entryY=1;entryDx=0;entryDy=0;exitX=0.5;exitY=0;exitDx=0;exitDy=0;" parent="1" source="eiDw2SdyNVHJPghsJ6bD-50" target="eiDw2SdyNVHJPghsJ6bD-31" edge="1">
          <mxGeometry width="50" height="50" relative="1" as="geometry">
            <mxPoint x="900" y="660" as="sourcePoint" />
            <mxPoint x="680" y="278.57142857142856" as="targetPoint" />
          </mxGeometry>
        </mxCell>
        <mxCell id="eiDw2SdyNVHJPghsJ6bD-71" value="" style="ellipse;whiteSpace=wrap;html=1;strokeColor=#000000;fillColor=none;" vertex="1" parent="1">
          <mxGeometry x="1020" y="-325" width="100" height="70" as="geometry" />
        </mxCell>
        <mxCell id="eiDw2SdyNVHJPghsJ6bD-73" value="Sách được phản biện" style="rounded=0;whiteSpace=wrap;html=1;strokeColor=#b85450;fillColor=#f8cecc;" parent="1" vertex="1">
          <mxGeometry x="267.5" y="860" width="165" height="80" as="geometry" />
        </mxCell>
        <mxCell id="eiDw2SdyNVHJPghsJ6bD-75" value="Năm xuất bản" style="ellipse;whiteSpace=wrap;html=1;strokeColor=#000000;" parent="1" vertex="1">
          <mxGeometry x="60" y="970" width="120" height="80" as="geometry" />
        </mxCell>
        <mxCell id="eiDw2SdyNVHJPghsJ6bD-76" value="Số trang" style="ellipse;whiteSpace=wrap;html=1;strokeColor=#000000;fillColor=#ffffff;" parent="1" vertex="1">
          <mxGeometry x="180" y="1050" width="120" height="80" as="geometry" />
        </mxCell>
        <mxCell id="eiDw2SdyNVHJPghsJ6bD-77" value="&lt;u&gt;ISBN&lt;/u&gt;" style="ellipse;whiteSpace=wrap;html=1;strokeColor=#000000;fillColor=#ffffff;" parent="1" vertex="1">
          <mxGeometry x="330" y="1080" width="120" height="80" as="geometry" />
        </mxCell>
        <mxCell id="eiDw2SdyNVHJPghsJ6bD-78" value="Tác giả" style="ellipse;whiteSpace=wrap;html=1;strokeColor=#000000;fillColor=#ffffff;" parent="1" vertex="1">
          <mxGeometry x="480" y="1090" width="120" height="80" as="geometry" />
        </mxCell>
        <mxCell id="eiDw2SdyNVHJPghsJ6bD-79" value="Nhà xuất bản" style="ellipse;whiteSpace=wrap;html=1;strokeColor=#000000;fillColor=#ffffff;" parent="1" vertex="1">
          <mxGeometry x="-60" y="870" width="120" height="80" as="geometry" />
        </mxCell>
        <mxCell id="eiDw2SdyNVHJPghsJ6bD-80" value="Tên" style="ellipse;whiteSpace=wrap;html=1;strokeColor=#000000;fillColor=#ffffff;" parent="1" vertex="1">
          <mxGeometry x="-90" y="740" width="120" height="80" as="geometry" />
        </mxCell>
        <mxCell id="eiDw2SdyNVHJPghsJ6bD-81" value="" style="endArrow=none;html=1;exitX=0;exitY=0.5;exitDx=0;exitDy=0;entryX=1;entryY=0.5;entryDx=0;entryDy=0;" parent="1" source="eiDw2SdyNVHJPghsJ6bD-73" target="eiDw2SdyNVHJPghsJ6bD-80" edge="1">
          <mxGeometry width="50" height="50" relative="1" as="geometry">
            <mxPoint x="400" y="1000" as="sourcePoint" />
            <mxPoint x="450" y="950" as="targetPoint" />
          </mxGeometry>
        </mxCell>
        <mxCell id="eiDw2SdyNVHJPghsJ6bD-82" value="" style="endArrow=none;html=1;exitX=0;exitY=0.75;exitDx=0;exitDy=0;entryX=1;entryY=0.5;entryDx=0;entryDy=0;" parent="1" source="eiDw2SdyNVHJPghsJ6bD-73" target="eiDw2SdyNVHJPghsJ6bD-79" edge="1">
          <mxGeometry width="50" height="50" relative="1" as="geometry">
            <mxPoint x="400" y="1000" as="sourcePoint" />
            <mxPoint x="450" y="950" as="targetPoint" />
          </mxGeometry>
        </mxCell>
        <mxCell id="eiDw2SdyNVHJPghsJ6bD-83" value="" style="endArrow=none;html=1;exitX=0;exitY=1;exitDx=0;exitDy=0;entryX=0.988;entryY=0.352;entryDx=0;entryDy=0;entryPerimeter=0;" parent="1" source="eiDw2SdyNVHJPghsJ6bD-73" target="eiDw2SdyNVHJPghsJ6bD-75" edge="1">
          <mxGeometry width="50" height="50" relative="1" as="geometry">
            <mxPoint x="400" y="1000" as="sourcePoint" />
            <mxPoint x="450" y="950" as="targetPoint" />
          </mxGeometry>
        </mxCell>
        <mxCell id="eiDw2SdyNVHJPghsJ6bD-84" value="" style="endArrow=none;html=1;exitX=0.25;exitY=1;exitDx=0;exitDy=0;" parent="1" source="eiDw2SdyNVHJPghsJ6bD-73" target="eiDw2SdyNVHJPghsJ6bD-76" edge="1">
          <mxGeometry width="50" height="50" relative="1" as="geometry">
            <mxPoint x="400" y="1000" as="sourcePoint" />
            <mxPoint x="450" y="950" as="targetPoint" />
          </mxGeometry>
        </mxCell>
        <mxCell id="eiDw2SdyNVHJPghsJ6bD-85" value="" style="endArrow=none;html=1;exitX=0.5;exitY=1;exitDx=0;exitDy=0;entryX=0.238;entryY=0.066;entryDx=0;entryDy=0;entryPerimeter=0;" parent="1" source="eiDw2SdyNVHJPghsJ6bD-73" target="eiDw2SdyNVHJPghsJ6bD-77" edge="1">
          <mxGeometry width="50" height="50" relative="1" as="geometry">
            <mxPoint x="400" y="1000" as="sourcePoint" />
            <mxPoint x="450" y="950" as="targetPoint" />
          </mxGeometry>
        </mxCell>
        <mxCell id="eiDw2SdyNVHJPghsJ6bD-86" value="" style="endArrow=none;html=1;exitX=0.75;exitY=1;exitDx=0;exitDy=0;entryX=0.5;entryY=0;entryDx=0;entryDy=0;" parent="1" source="eiDw2SdyNVHJPghsJ6bD-73" target="eiDw2SdyNVHJPghsJ6bD-78" edge="1">
          <mxGeometry width="50" height="50" relative="1" as="geometry">
            <mxPoint x="400" y="1000" as="sourcePoint" />
            <mxPoint x="450" y="950" as="targetPoint" />
          </mxGeometry>
        </mxCell>
        <mxCell id="eiDw2SdyNVHJPghsJ6bD-87" value="" style="ellipse;whiteSpace=wrap;html=1;strokeColor=#000000;fillColor=none;" parent="1" vertex="1">
          <mxGeometry x="490" y="1095" width="100" height="70" as="geometry" />
        </mxCell>
        <mxCell id="eiDw2SdyNVHJPghsJ6bD-88" value="Là tác giả liên lạc" style="rhombus;whiteSpace=wrap;html=1;strokeColor=#d79b00;fillColor=#ffe6cc;" parent="1" vertex="1">
          <mxGeometry x="135.55" y="-90" width="100" height="80" as="geometry" />
        </mxCell>
        <mxCell id="eiDw2SdyNVHJPghsJ6bD-89" value="" style="endArrow=none;html=1;exitX=1;exitY=0;exitDx=0;exitDy=0;entryX=0.125;entryY=0.62;entryDx=0;entryDy=0;entryPerimeter=0;" parent="1" source="eiDw2SdyNVHJPghsJ6bD-1" target="eiDw2SdyNVHJPghsJ6bD-88" edge="1">
          <mxGeometry width="50" height="50" relative="1" as="geometry">
            <mxPoint x="340" y="300" as="sourcePoint" />
            <mxPoint x="244" y="150" as="targetPoint" />
          </mxGeometry>
        </mxCell>
        <mxCell id="eiDw2SdyNVHJPghsJ6bD-90" value="" style="endArrow=none;html=1;exitX=1.005;exitY=0.11;exitDx=0;exitDy=0;exitPerimeter=0;entryX=0.143;entryY=0.645;entryDx=0;entryDy=0;entryPerimeter=0;" parent="1" source="eiDw2SdyNVHJPghsJ6bD-1" target="eiDw2SdyNVHJPghsJ6bD-88" edge="1">
          <mxGeometry width="50" height="50" relative="1" as="geometry">
            <mxPoint x="340" y="300" as="sourcePoint" />
            <mxPoint x="390" y="250" as="targetPoint" />
          </mxGeometry>
        </mxCell>
        <mxCell id="eiDw2SdyNVHJPghsJ6bD-91" value="" style="endArrow=none;html=1;exitX=1;exitY=0.5;exitDx=0;exitDy=0;entryX=0;entryY=0.5;entryDx=0;entryDy=0;" parent="1" source="eiDw2SdyNVHJPghsJ6bD-88" target="eiDw2SdyNVHJPghsJ6bD-3" edge="1">
          <mxGeometry width="50" height="50" relative="1" as="geometry">
            <mxPoint x="380" y="300" as="sourcePoint" />
            <mxPoint x="430" y="250" as="targetPoint" />
          </mxGeometry>
        </mxCell>
        <mxCell id="eiDw2SdyNVHJPghsJ6bD-92" value="Là tác giả" style="rhombus;whiteSpace=wrap;html=1;strokeColor=#d79b00;fillColor=#ffe6cc;" parent="1" vertex="1">
          <mxGeometry x="174.3" y="-10" width="100" height="90" as="geometry" />
        </mxCell>
        <mxCell id="eiDw2SdyNVHJPghsJ6bD-93" value="" style="endArrow=none;html=1;entryX=0;entryY=0.5;entryDx=0;entryDy=0;exitX=1;exitY=0.5;exitDx=0;exitDy=0;" parent="1" source="eiDw2SdyNVHJPghsJ6bD-92" target="eiDw2SdyNVHJPghsJ6bD-3" edge="1">
          <mxGeometry width="50" height="50" relative="1" as="geometry">
            <mxPoint x="380" y="300" as="sourcePoint" />
            <mxPoint x="430" y="250" as="targetPoint" />
          </mxGeometry>
        </mxCell>
        <mxCell id="eiDw2SdyNVHJPghsJ6bD-95" value="" style="endArrow=none;html=1;entryX=1;entryY=0.5;entryDx=0;entryDy=0;exitX=0;exitY=0.5;exitDx=0;exitDy=0;" parent="1" source="eiDw2SdyNVHJPghsJ6bD-92" target="eiDw2SdyNVHJPghsJ6bD-1" edge="1">
          <mxGeometry width="50" height="50" relative="1" as="geometry">
            <mxPoint x="380" y="300" as="sourcePoint" />
            <mxPoint x="430" y="250" as="targetPoint" />
          </mxGeometry>
        </mxCell>
        <mxCell id="eiDw2SdyNVHJPghsJ6bD-97" value="Chiều dài" style="ellipse;whiteSpace=wrap;html=1;strokeColor=#000000;fillColor=#ffffff;" parent="1" vertex="1">
          <mxGeometry x="-95" y="435" width="65" height="40" as="geometry" />
        </mxCell>
        <mxCell id="eiDw2SdyNVHJPghsJ6bD-98" value="" style="endArrow=none;html=1;exitX=0.5;exitY=1;exitDx=0;exitDy=0;" parent="1" source="eiDw2SdyNVHJPghsJ6bD-1" target="eiDw2SdyNVHJPghsJ6bD-97" edge="1">
          <mxGeometry width="50" height="50" relative="1" as="geometry">
            <mxPoint x="180" y="640" as="sourcePoint" />
            <mxPoint x="230" y="590" as="targetPoint" />
          </mxGeometry>
        </mxCell>
        <mxCell id="eiDw2SdyNVHJPghsJ6bD-101" value="" style="endArrow=none;html=1;exitX=1;exitY=0.75;exitDx=0;exitDy=0;entryX=0.063;entryY=0.447;entryDx=0;entryDy=0;entryPerimeter=0;" parent="1" source="eiDw2SdyNVHJPghsJ6bD-1" target="iCLH5OQKp1aBjLCYg7CI-16" edge="1">
          <mxGeometry width="50" height="50" relative="1" as="geometry">
            <mxPoint x="350" y="420" as="sourcePoint" />
            <mxPoint x="340" y="740" as="targetPoint" />
          </mxGeometry>
        </mxCell>
        <mxCell id="eiDw2SdyNVHJPghsJ6bD-102" value="" style="endArrow=none;html=1;exitX=0.995;exitY=0.852;exitDx=0;exitDy=0;entryX=0;entryY=0.5;entryDx=0;entryDy=0;exitPerimeter=0;" parent="1" source="eiDw2SdyNVHJPghsJ6bD-1" target="iCLH5OQKp1aBjLCYg7CI-16" edge="1">
          <mxGeometry width="50" height="50" relative="1" as="geometry">
            <mxPoint x="350" y="420" as="sourcePoint" />
            <mxPoint x="196.55000000000018" y="445.71000000000004" as="targetPoint" />
          </mxGeometry>
        </mxCell>
        <mxCell id="eiDw2SdyNVHJPghsJ6bD-104" value="Phản biện cho sách" style="rhombus;whiteSpace=wrap;html=1;strokeColor=#d79b00;fillColor=#ffe6cc;" parent="1" vertex="1">
          <mxGeometry x="155" y="680" width="135" height="120" as="geometry" />
        </mxCell>
        <mxCell id="eiDw2SdyNVHJPghsJ6bD-105" value="" style="endArrow=none;html=1;exitX=1;exitY=1;exitDx=0;exitDy=0;entryX=0.25;entryY=0;entryDx=0;entryDy=0;" parent="1" source="eiDw2SdyNVHJPghsJ6bD-104" target="eiDw2SdyNVHJPghsJ6bD-73" edge="1">
          <mxGeometry width="50" height="50" relative="1" as="geometry">
            <mxPoint x="340" y="740" as="sourcePoint" />
            <mxPoint x="390" y="690" as="targetPoint" />
          </mxGeometry>
        </mxCell>
        <mxCell id="eiDw2SdyNVHJPghsJ6bD-106" value="" style="endArrow=none;html=1;exitX=0.789;exitY=0.719;exitDx=0;exitDy=0;exitPerimeter=0;entryX=0.307;entryY=-0.009;entryDx=0;entryDy=0;entryPerimeter=0;" parent="1" source="eiDw2SdyNVHJPghsJ6bD-104" target="eiDw2SdyNVHJPghsJ6bD-73" edge="1">
          <mxGeometry width="50" height="50" relative="1" as="geometry">
            <mxPoint x="340" y="740" as="sourcePoint" />
            <mxPoint x="330" y="840" as="targetPoint" />
          </mxGeometry>
        </mxCell>
        <mxCell id="eiDw2SdyNVHJPghsJ6bD-107" value="" style="endArrow=none;html=1;exitX=0.658;exitY=0.983;exitDx=0;exitDy=0;exitPerimeter=0;entryX=0.294;entryY=0.207;entryDx=0;entryDy=0;entryPerimeter=0;" parent="1" source="eiDw2SdyNVHJPghsJ6bD-18" target="eiDw2SdyNVHJPghsJ6bD-104" edge="1">
          <mxGeometry width="50" height="50" relative="1" as="geometry">
            <mxPoint x="160" y="770" as="sourcePoint" />
            <mxPoint x="210" y="720" as="targetPoint" />
          </mxGeometry>
        </mxCell>
        <mxCell id="eiDw2SdyNVHJPghsJ6bD-108" value="" style="endArrow=none;html=1;exitX=0.75;exitY=1;exitDx=0;exitDy=0;entryX=0.346;entryY=0.164;entryDx=0;entryDy=0;entryPerimeter=0;" parent="1" source="eiDw2SdyNVHJPghsJ6bD-18" target="eiDw2SdyNVHJPghsJ6bD-104" edge="1">
          <mxGeometry width="50" height="50" relative="1" as="geometry">
            <mxPoint x="160" y="770" as="sourcePoint" />
            <mxPoint x="210" y="720" as="targetPoint" />
          </mxGeometry>
        </mxCell>
        <mxCell id="eiDw2SdyNVHJPghsJ6bD-110" value="&lt;u&gt;DOI&lt;/u&gt;" style="ellipse;whiteSpace=wrap;html=1;strokeColor=#000000;" parent="1" vertex="1">
          <mxGeometry x="-800" y="75" width="120" height="80" as="geometry" />
        </mxCell>
        <mxCell id="eiDw2SdyNVHJPghsJ6bD-119" value="&lt;u&gt;Nội dung&lt;/u&gt;" style="ellipse;whiteSpace=wrap;html=1;strokeColor=#000000;" parent="1" vertex="1">
          <mxGeometry x="555" y="950" width="120" height="80" as="geometry" />
        </mxCell>
        <mxCell id="eiDw2SdyNVHJPghsJ6bD-123" value="" style="endArrow=none;html=1;entryX=0.5;entryY=1;entryDx=0;entryDy=0;exitX=0.5;exitY=0;exitDx=0;exitDy=0;" parent="1" source="eiDw2SdyNVHJPghsJ6bD-119" target="eiDw2SdyNVHJPghsJ6bD-154" edge="1">
          <mxGeometry width="50" height="50" relative="1" as="geometry">
            <mxPoint x="735" y="1100" as="sourcePoint" />
            <mxPoint x="700" y="930" as="targetPoint" />
          </mxGeometry>
        </mxCell>
        <mxCell id="eiDw2SdyNVHJPghsJ6bD-124" value="" style="endArrow=none;html=1;entryX=0.5;entryY=1;entryDx=0;entryDy=0;exitX=0.5;exitY=0;exitDx=0;exitDy=0;" parent="1" source="v93aDi29n5t1eOQIRRw4-6" target="eiDw2SdyNVHJPghsJ6bD-154" edge="1">
          <mxGeometry width="50" height="50" relative="1" as="geometry">
            <mxPoint x="780.6300000000001" y="950" as="sourcePoint" />
            <mxPoint x="700" y="930" as="targetPoint" />
          </mxGeometry>
        </mxCell>
        <mxCell id="eiDw2SdyNVHJPghsJ6bD-125" value="Mô tả" style="ellipse;whiteSpace=wrap;html=1;strokeColor=#000000;" parent="1" vertex="1">
          <mxGeometry x="820" y="1180" width="120" height="80" as="geometry" />
        </mxCell>
        <mxCell id="eiDw2SdyNVHJPghsJ6bD-126" value="Điểm" style="ellipse;whiteSpace=wrap;html=1;strokeColor=#000000;fillColor=#ffffff;" parent="1" vertex="1">
          <mxGeometry x="980" y="1180" width="120" height="80" as="geometry" />
        </mxCell>
        <mxCell id="eiDw2SdyNVHJPghsJ6bD-127" value="" style="endArrow=none;html=1;entryX=0.5;entryY=1;entryDx=0;entryDy=0;exitX=0.5;exitY=0;exitDx=0;exitDy=0;" parent="1" source="eiDw2SdyNVHJPghsJ6bD-125" edge="1">
          <mxGeometry width="50" height="50" relative="1" as="geometry">
            <mxPoint x="850" y="1200" as="sourcePoint" />
            <mxPoint x="935" y="1130.0000000000005" as="targetPoint" />
          </mxGeometry>
        </mxCell>
        <mxCell id="eiDw2SdyNVHJPghsJ6bD-128" value="" style="endArrow=none;html=1;exitX=0.5;exitY=0;exitDx=0;exitDy=0;" parent="1" source="eiDw2SdyNVHJPghsJ6bD-126" edge="1">
          <mxGeometry width="50" height="50" relative="1" as="geometry">
            <mxPoint x="850" y="1200" as="sourcePoint" />
            <mxPoint x="930" y="1130" as="targetPoint" />
          </mxGeometry>
        </mxCell>
        <mxCell id="eiDw2SdyNVHJPghsJ6bD-131" value="Kết quả đánh giá đối với tiêu chí" style="ellipse;whiteSpace=wrap;html=1;strokeColor=#000000;fillColor=#ffffff;" parent="1" vertex="1">
          <mxGeometry x="450" y="810" width="120" height="80" as="geometry" />
        </mxCell>
        <mxCell id="eiDw2SdyNVHJPghsJ6bD-132" value="" style="endArrow=none;html=1;entryX=0;entryY=0.5;entryDx=0;entryDy=0;exitX=1;exitY=0.5;exitDx=0;exitDy=0;" parent="1" source="eiDw2SdyNVHJPghsJ6bD-131" target="eiDw2SdyNVHJPghsJ6bD-156" edge="1">
          <mxGeometry width="50" height="50" relative="1" as="geometry">
            <mxPoint x="645" y="930" as="sourcePoint" />
            <mxPoint x="639.6924999999999" y="692.5" as="targetPoint" />
          </mxGeometry>
        </mxCell>
        <mxCell id="eiDw2SdyNVHJPghsJ6bD-133" value="Ghi chú cho tác giả" style="ellipse;whiteSpace=wrap;html=1;strokeColor=#000000;fillColor=#ffffff;" parent="1" vertex="1">
          <mxGeometry x="640" y="552.5" width="70" height="55" as="geometry" />
        </mxCell>
        <mxCell id="eiDw2SdyNVHJPghsJ6bD-141" value="Trạng thái xử lý" style="ellipse;whiteSpace=wrap;html=1;strokeColor=#000000;fillColor=#ffffff;" parent="1" vertex="1">
          <mxGeometry x="228.75" y="190" width="62.5" height="60" as="geometry" />
        </mxCell>
        <mxCell id="eiDw2SdyNVHJPghsJ6bD-151" value="" style="endArrow=none;html=1;entryX=0;entryY=1;entryDx=0;entryDy=0;exitX=1;exitY=0.5;exitDx=0;exitDy=0;" parent="1" source="iCLH5OQKp1aBjLCYg7CI-16" target="eiDw2SdyNVHJPghsJ6bD-31" edge="1">
          <mxGeometry width="50" height="50" relative="1" as="geometry">
            <mxPoint x="737.1799999999998" y="372.5" as="sourcePoint" />
            <mxPoint x="710" y="380" as="targetPoint" />
          </mxGeometry>
        </mxCell>
        <mxCell id="eiDw2SdyNVHJPghsJ6bD-154" value="Tiêu chí đánh giá" style="rounded=0;whiteSpace=wrap;html=1;strokeColor=#b85450;fillColor=#f8cecc;" parent="1" vertex="1">
          <mxGeometry x="631.25" y="850" width="120" height="60" as="geometry" />
        </mxCell>
        <mxCell id="eiDw2SdyNVHJPghsJ6bD-155" value="" style="endArrow=none;html=1;entryX=0;entryY=0.5;entryDx=0;entryDy=0;exitX=1;exitY=0.5;exitDx=0;exitDy=0;" parent="1" source="iCLH5OQKp1aBjLCYg7CI-21" target="eiDw2SdyNVHJPghsJ6bD-133" edge="1">
          <mxGeometry width="50" height="50" relative="1" as="geometry">
            <mxPoint x="545" y="680" as="sourcePoint" />
            <mxPoint x="640" y="550" as="targetPoint" />
          </mxGeometry>
        </mxCell>
        <mxCell id="eiDw2SdyNVHJPghsJ6bD-156" value="Có tiêu chí đánh giá" style="rhombus;whiteSpace=wrap;html=1;strokeColor=#d79b00;fillColor=#ffe6cc;" parent="1" vertex="1">
          <mxGeometry x="647.5" y="750" width="87.5" height="80" as="geometry" />
        </mxCell>
        <mxCell id="eiDw2SdyNVHJPghsJ6bD-157" value="" style="endArrow=none;html=1;entryX=0.5;entryY=1;entryDx=0;entryDy=0;exitX=0.5;exitY=0;exitDx=0;exitDy=0;" parent="1" source="eiDw2SdyNVHJPghsJ6bD-154" target="eiDw2SdyNVHJPghsJ6bD-156" edge="1">
          <mxGeometry width="50" height="50" relative="1" as="geometry">
            <mxPoint x="699" y="860" as="sourcePoint" />
            <mxPoint x="685" y="780" as="targetPoint" />
          </mxGeometry>
        </mxCell>
        <mxCell id="eiDw2SdyNVHJPghsJ6bD-161" value="" style="endArrow=none;html=1;entryX=1;entryY=1;entryDx=0;entryDy=0;exitX=0.03;exitY=0.465;exitDx=0;exitDy=0;exitPerimeter=0;" parent="1" source="eiDw2SdyNVHJPghsJ6bD-156" target="eiDw2SdyNVHJPghsJ6bD-1" edge="1">
          <mxGeometry width="50" height="50" relative="1" as="geometry">
            <mxPoint x="576" y="590" as="sourcePoint" />
            <mxPoint x="485" y="710" as="targetPoint" />
          </mxGeometry>
        </mxCell>
        <mxCell id="eiDw2SdyNVHJPghsJ6bD-162" value="" style="endArrow=none;html=1;entryX=1;entryY=1;entryDx=0;entryDy=0;exitX=0;exitY=0.5;exitDx=0;exitDy=0;" parent="1" source="eiDw2SdyNVHJPghsJ6bD-156" target="eiDw2SdyNVHJPghsJ6bD-1" edge="1">
          <mxGeometry width="50" height="50" relative="1" as="geometry">
            <mxPoint x="573" y="594" as="sourcePoint" />
            <mxPoint x="479.48" y="710.2399999999998" as="targetPoint" />
          </mxGeometry>
        </mxCell>
        <mxCell id="eiDw2SdyNVHJPghsJ6bD-164" value="Kết quả" style="ellipse;whiteSpace=wrap;html=1;strokeColor=#000000;fillColor=#ffffff;" parent="1" vertex="1">
          <mxGeometry x="390" y="190" width="67.5" height="50" as="geometry" />
        </mxCell>
        <mxCell id="WIPBF-BIMuHk1VfdhbWs-1" value="" style="verticalLabelPosition=bottom;verticalAlign=top;html=1;shape=mxgraph.basic.arc;startAngle=0.3;endAngle=0.1;direction=south;rotation=-130;" parent="1" vertex="1">
          <mxGeometry x="-15" y="505" width="30" height="30" as="geometry" />
        </mxCell>
        <mxCell id="WIPBF-BIMuHk1VfdhbWs-2" value="" style="verticalLabelPosition=bottom;verticalAlign=top;html=1;shape=mxgraph.basic.arc;startAngle=0.3;endAngle=0.1;rotation=-95;" parent="1" vertex="1">
          <mxGeometry x="80.62" y="506.16" width="27.46" height="35" as="geometry" />
        </mxCell>
        <mxCell id="WIPBF-BIMuHk1VfdhbWs-3" value="" style="verticalLabelPosition=bottom;verticalAlign=top;html=1;shape=mxgraph.basic.arc;startAngle=0.3;endAngle=0.1;rotation=-115;" parent="1" vertex="1">
          <mxGeometry x="161.97" y="495.72" width="27.95" height="26.31" as="geometry" />
        </mxCell>
        <mxCell id="WIPBF-BIMuHk1VfdhbWs-8" value="" style="verticalLabelPosition=bottom;verticalAlign=top;html=1;shape=mxgraph.basic.arc;startAngle=0.3;endAngle=0.943091627240748;rotation=40;" parent="1" vertex="1">
          <mxGeometry x="735" y="110" width="40" height="40" as="geometry" />
        </mxCell>
        <mxCell id="WIPBF-BIMuHk1VfdhbWs-11" value="" style="verticalLabelPosition=bottom;verticalAlign=top;html=1;shape=mxgraph.basic.arc;startAngle=0.3;endAngle=0.943091627240748;rotation=-45;" parent="1" vertex="1">
          <mxGeometry x="830" y="170" width="40" height="40" as="geometry" />
        </mxCell>
        <mxCell id="WIPBF-BIMuHk1VfdhbWs-13" value="" style="verticalLabelPosition=bottom;verticalAlign=top;html=1;shape=mxgraph.basic.arc;startAngle=0.3;endAngle=0.943091627240748;rotation=-10;" parent="1" vertex="1">
          <mxGeometry x="705" y="180" width="40" height="40" as="geometry" />
        </mxCell>
        <mxCell id="WIPBF-BIMuHk1VfdhbWs-14" value="Địa chỉ" style="ellipse;whiteSpace=wrap;html=1;" parent="1" vertex="1">
          <mxGeometry x="730" y="-350" width="120" height="80" as="geometry" />
        </mxCell>
        <mxCell id="WIPBF-BIMuHk1VfdhbWs-15" value="" style="endArrow=none;html=1;exitX=0.5;exitY=1;exitDx=0;exitDy=0;entryX=0.25;entryY=0;entryDx=0;entryDy=0;" parent="1" source="WIPBF-BIMuHk1VfdhbWs-14" target="eiDw2SdyNVHJPghsJ6bD-30" edge="1">
          <mxGeometry width="50" height="50" relative="1" as="geometry">
            <mxPoint x="720" y="20" as="sourcePoint" />
            <mxPoint x="770" y="-30" as="targetPoint" />
          </mxGeometry>
        </mxCell>
        <mxCell id="WIPBF-BIMuHk1VfdhbWs-16" value="" style="endArrow=none;html=1;exitX=0.75;exitY=0;exitDx=0;exitDy=0;entryX=0;entryY=0.5;entryDx=0;entryDy=0;" parent="1" source="eiDw2SdyNVHJPghsJ6bD-30" target="eiDw2SdyNVHJPghsJ6bD-57" edge="1">
          <mxGeometry width="50" height="50" relative="1" as="geometry">
            <mxPoint x="1270" y="-220" as="sourcePoint" />
            <mxPoint x="1320" y="-270" as="targetPoint" />
          </mxGeometry>
        </mxCell>
        <mxCell id="WIPBF-BIMuHk1VfdhbWs-17" value="Cơ quan công tác" style="ellipse;whiteSpace=wrap;html=1;" parent="1" vertex="1">
          <mxGeometry x="1160" y="-130" width="120" height="80" as="geometry" />
        </mxCell>
        <mxCell id="WIPBF-BIMuHk1VfdhbWs-18" value="" style="endArrow=none;html=1;exitX=1;exitY=0.25;exitDx=0;exitDy=0;entryX=0;entryY=0.5;entryDx=0;entryDy=0;" parent="1" source="eiDw2SdyNVHJPghsJ6bD-30" target="WIPBF-BIMuHk1VfdhbWs-17" edge="1">
          <mxGeometry width="50" height="50" relative="1" as="geometry">
            <mxPoint x="900" y="60" as="sourcePoint" />
            <mxPoint x="950" y="10" as="targetPoint" />
          </mxGeometry>
        </mxCell>
        <mxCell id="WIPBF-BIMuHk1VfdhbWs-19" value="Nghề" style="ellipse;whiteSpace=wrap;html=1;" parent="1" vertex="1">
          <mxGeometry x="1240" y="-20" width="120" height="80" as="geometry" />
        </mxCell>
        <mxCell id="WIPBF-BIMuHk1VfdhbWs-20" value="Điện thoại" style="ellipse;whiteSpace=wrap;html=1;" parent="1" vertex="1">
          <mxGeometry x="1280" y="100" width="120" height="80" as="geometry" />
        </mxCell>
        <mxCell id="WIPBF-BIMuHk1VfdhbWs-21" value="" style="endArrow=none;html=1;entryX=1;entryY=0.25;entryDx=0;entryDy=0;exitX=0;exitY=0.5;exitDx=0;exitDy=0;" parent="1" source="WIPBF-BIMuHk1VfdhbWs-19" target="eiDw2SdyNVHJPghsJ6bD-30" edge="1">
          <mxGeometry width="50" height="50" relative="1" as="geometry">
            <mxPoint x="900" y="140" as="sourcePoint" />
            <mxPoint x="950" y="90" as="targetPoint" />
          </mxGeometry>
        </mxCell>
        <mxCell id="WIPBF-BIMuHk1VfdhbWs-22" value="" style="endArrow=none;html=1;entryX=1;entryY=0.75;entryDx=0;entryDy=0;exitX=0;exitY=0.5;exitDx=0;exitDy=0;" parent="1" source="WIPBF-BIMuHk1VfdhbWs-20" target="eiDw2SdyNVHJPghsJ6bD-30" edge="1">
          <mxGeometry width="50" height="50" relative="1" as="geometry">
            <mxPoint x="900" y="140" as="sourcePoint" />
            <mxPoint x="950" y="90" as="targetPoint" />
          </mxGeometry>
        </mxCell>
        <mxCell id="WIPBF-BIMuHk1VfdhbWs-23" value="Họ và tên" style="ellipse;whiteSpace=wrap;html=1;" parent="1" vertex="1">
          <mxGeometry x="560" y="-330" width="120" height="80" as="geometry" />
        </mxCell>
        <mxCell id="WIPBF-BIMuHk1VfdhbWs-25" value="" style="endArrow=none;html=1;exitX=1;exitY=1;exitDx=0;exitDy=0;entryX=0;entryY=0;entryDx=0;entryDy=0;" parent="1" source="WIPBF-BIMuHk1VfdhbWs-23" target="eiDw2SdyNVHJPghsJ6bD-30" edge="1">
          <mxGeometry width="50" height="50" relative="1" as="geometry">
            <mxPoint x="1060" y="-10" as="sourcePoint" />
            <mxPoint x="1110" y="-60" as="targetPoint" />
          </mxGeometry>
        </mxCell>
        <mxCell id="WIPBF-BIMuHk1VfdhbWs-30" value="N" style="text;html=1;align=center;verticalAlign=middle;resizable=0;points=[];autosize=1;" parent="1" vertex="1">
          <mxGeometry x="264.3" y="15" width="20" height="20" as="geometry" />
        </mxCell>
        <mxCell id="WIPBF-BIMuHk1VfdhbWs-31" value="M" style="text;html=1;align=center;verticalAlign=middle;resizable=0;points=[];autosize=1;" parent="1" vertex="1">
          <mxGeometry x="165.55" y="47.5" width="30" height="20" as="geometry" />
        </mxCell>
        <mxCell id="WIPBF-BIMuHk1VfdhbWs-32" value="1" style="text;html=1;align=center;verticalAlign=middle;resizable=0;points=[];autosize=1;" parent="1" vertex="1">
          <mxGeometry x="235.55" y="-75" width="20" height="20" as="geometry" />
        </mxCell>
        <mxCell id="WIPBF-BIMuHk1VfdhbWs-33" value="N" style="text;html=1;align=center;verticalAlign=middle;resizable=0;points=[];autosize=1;" parent="1" vertex="1">
          <mxGeometry x="115.55" y="-55" width="20" height="20" as="geometry" />
        </mxCell>
        <mxCell id="WIPBF-BIMuHk1VfdhbWs-35" value="N" style="text;html=1;align=center;verticalAlign=middle;resizable=0;points=[];autosize=1;rotation=90;" parent="1" vertex="1">
          <mxGeometry x="675" y="830" width="20" height="20" as="geometry" />
        </mxCell>
        <mxCell id="WIPBF-BIMuHk1VfdhbWs-36" value="M" style="text;html=1;align=center;verticalAlign=middle;resizable=0;points=[];autosize=1;" parent="1" vertex="1">
          <mxGeometry x="630" y="760" width="30" height="20" as="geometry" />
        </mxCell>
        <mxCell id="WIPBF-BIMuHk1VfdhbWs-37" value="1" style="text;html=1;align=center;verticalAlign=middle;resizable=0;points=[];autosize=1;" parent="1" vertex="1">
          <mxGeometry x="270" y="760" width="20" height="20" as="geometry" />
        </mxCell>
        <mxCell id="WIPBF-BIMuHk1VfdhbWs-38" value="N" style="text;html=1;align=center;verticalAlign=middle;resizable=0;points=[];autosize=1;" parent="1" vertex="1">
          <mxGeometry x="189.92" y="670" width="20" height="20" as="geometry" />
        </mxCell>
        <mxCell id="WIPBF-BIMuHk1VfdhbWs-39" value="Ngày thông báo đến tác giả" style="ellipse;whiteSpace=wrap;html=1;" parent="1" vertex="1">
          <mxGeometry x="308.75" y="90" width="82.5" height="70" as="geometry" />
        </mxCell>
        <mxCell id="WIPBF-BIMuHk1VfdhbWs-40" value="" style="endArrow=none;html=1;exitX=0.5;exitY=0;exitDx=0;exitDy=0;entryX=0.296;entryY=0.973;entryDx=0;entryDy=0;entryPerimeter=0;" parent="1" source="eiDw2SdyNVHJPghsJ6bD-164" target="WIPBF-BIMuHk1VfdhbWs-39" edge="1">
          <mxGeometry width="50" height="50" relative="1" as="geometry">
            <mxPoint x="235" y="-130" as="sourcePoint" />
            <mxPoint x="285" y="-180" as="targetPoint" />
          </mxGeometry>
        </mxCell>
        <mxCell id="WIPBF-BIMuHk1VfdhbWs-41" value="Nội dung" style="ellipse;whiteSpace=wrap;html=1;" parent="1" vertex="1">
          <mxGeometry x="228.75" y="120" width="80" height="50" as="geometry" />
        </mxCell>
        <mxCell id="WIPBF-BIMuHk1VfdhbWs-42" value="" style="endArrow=none;html=1;exitX=0.5;exitY=0;exitDx=0;exitDy=0;entryX=0.418;entryY=0.995;entryDx=0;entryDy=0;entryPerimeter=0;" parent="1" source="eiDw2SdyNVHJPghsJ6bD-164" target="WIPBF-BIMuHk1VfdhbWs-41" edge="1">
          <mxGeometry width="50" height="50" relative="1" as="geometry">
            <mxPoint x="235" y="-130" as="sourcePoint" />
            <mxPoint x="285" y="-180" as="targetPoint" />
          </mxGeometry>
        </mxCell>
        <mxCell id="WIPBF-BIMuHk1VfdhbWs-46" value="Bài báo xuất bản" style="rounded=0;whiteSpace=wrap;html=1;fillColor=#f8cecc;strokeColor=#b85450;" parent="1" vertex="1">
          <mxGeometry x="-600" y="170" width="120" height="60" as="geometry" />
        </mxCell>
        <mxCell id="WIPBF-BIMuHk1VfdhbWs-47" value="được xuất bản" style="rhombus;whiteSpace=wrap;html=1;fillColor=#ffe6cc;strokeColor=#d79b00;" parent="1" vertex="1">
          <mxGeometry x="-395" y="150" width="140" height="120" as="geometry" />
        </mxCell>
        <mxCell id="WIPBF-BIMuHk1VfdhbWs-48" value="" style="endArrow=none;html=1;entryX=0;entryY=0.5;entryDx=0;entryDy=0;exitX=1;exitY=0.5;exitDx=0;exitDy=0;" parent="1" source="WIPBF-BIMuHk1VfdhbWs-47" target="eiDw2SdyNVHJPghsJ6bD-1" edge="1">
          <mxGeometry width="50" height="50" relative="1" as="geometry">
            <mxPoint x="-120" y="290" as="sourcePoint" />
            <mxPoint x="-70" y="240" as="targetPoint" />
          </mxGeometry>
        </mxCell>
        <mxCell id="WIPBF-BIMuHk1VfdhbWs-49" value="" style="endArrow=none;html=1;entryX=0;entryY=0.5;entryDx=0;entryDy=0;exitX=1;exitY=0.5;exitDx=0;exitDy=0;" parent="1" source="WIPBF-BIMuHk1VfdhbWs-46" target="WIPBF-BIMuHk1VfdhbWs-47" edge="1">
          <mxGeometry width="50" height="50" relative="1" as="geometry">
            <mxPoint x="-120" y="290" as="sourcePoint" />
            <mxPoint x="-70" y="240" as="targetPoint" />
          </mxGeometry>
        </mxCell>
        <mxCell id="WIPBF-BIMuHk1VfdhbWs-50" value="Nhà xuất bản" style="ellipse;whiteSpace=wrap;html=1;" parent="1" vertex="1">
          <mxGeometry x="-690" y="30" width="120" height="80" as="geometry" />
        </mxCell>
        <mxCell id="WIPBF-BIMuHk1VfdhbWs-52" value="" style="endArrow=none;html=1;exitX=0;exitY=0.5;exitDx=0;exitDy=0;entryX=0.5;entryY=1;entryDx=0;entryDy=0;" parent="1" source="WIPBF-BIMuHk1VfdhbWs-46" target="WIPBF-BIMuHk1VfdhbWs-50" edge="1">
          <mxGeometry width="50" height="50" relative="1" as="geometry">
            <mxPoint x="-260" y="170" as="sourcePoint" />
            <mxPoint x="-210" y="120" as="targetPoint" />
          </mxGeometry>
        </mxCell>
        <mxCell id="WIPBF-BIMuHk1VfdhbWs-53" value="1" style="text;html=1;align=center;verticalAlign=middle;resizable=0;points=[];autosize=1;" parent="1" vertex="1">
          <mxGeometry x="-410" y="180" width="20" height="20" as="geometry" />
        </mxCell>
        <mxCell id="WIPBF-BIMuHk1VfdhbWs-54" value="1" style="text;html=1;align=center;verticalAlign=middle;resizable=0;points=[];autosize=1;" parent="1" vertex="1">
          <mxGeometry x="-260" y="190" width="20" height="20" as="geometry" />
        </mxCell>
        <mxCell id="BETedTe-KKFlbuXkZifq-1" value="" style="endArrow=none;html=1;entryX=1.003;entryY=0.582;entryDx=0;entryDy=0;exitX=0.047;exitY=0.547;exitDx=0;exitDy=0;entryPerimeter=0;exitPerimeter=0;" parent="1" source="eiDw2SdyNVHJPghsJ6bD-92" target="eiDw2SdyNVHJPghsJ6bD-1" edge="1">
          <mxGeometry width="50" height="50" relative="1" as="geometry">
            <mxPoint x="287.5" y="315" as="sourcePoint" />
            <mxPoint x="100" y="290" as="targetPoint" />
          </mxGeometry>
        </mxCell>
        <mxCell id="BETedTe-KKFlbuXkZifq-2" value="Ghi chú cho ban biên tập" style="ellipse;whiteSpace=wrap;html=1;" parent="1" vertex="1">
          <mxGeometry x="620" y="465" width="90" height="60" as="geometry" />
        </mxCell>
        <mxCell id="BETedTe-KKFlbuXkZifq-3" value="" style="endArrow=none;html=1;exitX=1;exitY=0.5;exitDx=0;exitDy=0;entryX=0;entryY=0.5;entryDx=0;entryDy=0;" parent="1" source="iCLH5OQKp1aBjLCYg7CI-16" target="BETedTe-KKFlbuXkZifq-2" edge="1">
          <mxGeometry width="50" height="50" relative="1" as="geometry">
            <mxPoint x="545" y="680" as="sourcePoint" />
            <mxPoint x="715" y="530" as="targetPoint" />
          </mxGeometry>
        </mxCell>
        <mxCell id="BETedTe-KKFlbuXkZifq-4" value="Các chi tiết khác" style="ellipse;whiteSpace=wrap;html=1;" parent="1" vertex="1">
          <mxGeometry x="410" y="110" width="80" height="60" as="geometry" />
        </mxCell>
        <mxCell id="BETedTe-KKFlbuXkZifq-5" value="" style="endArrow=none;html=1;exitX=0;exitY=0.5;exitDx=0;exitDy=0;entryX=0.5;entryY=0;entryDx=0;entryDy=0;" parent="1" source="BETedTe-KKFlbuXkZifq-4" target="eiDw2SdyNVHJPghsJ6bD-164" edge="1">
          <mxGeometry width="50" height="50" relative="1" as="geometry">
            <mxPoint x="25" y="-100" as="sourcePoint" />
            <mxPoint x="75" y="-150" as="targetPoint" />
          </mxGeometry>
        </mxCell>
        <mxCell id="BETedTe-KKFlbuXkZifq-6" value="&lt;u&gt;CMND/CCCD&lt;/u&gt;" style="ellipse;whiteSpace=wrap;html=1;" parent="1" vertex="1">
          <mxGeometry x="510" y="-210" width="120" height="80" as="geometry" />
        </mxCell>
        <mxCell id="BETedTe-KKFlbuXkZifq-7" value="" style="endArrow=none;html=1;entryX=1;entryY=0.5;entryDx=0;entryDy=0;" parent="1" target="BETedTe-KKFlbuXkZifq-6" edge="1">
          <mxGeometry width="50" height="50" relative="1" as="geometry">
            <mxPoint x="780" y="-80" as="sourcePoint" />
            <mxPoint x="830" y="-130" as="targetPoint" />
          </mxGeometry>
        </mxCell>
        <mxCell id="BETedTe-KKFlbuXkZifq-17" value="" style="endArrow=none;html=1;entryX=1;entryY=0.5;entryDx=0;entryDy=0;exitX=0;exitY=0.5;exitDx=0;exitDy=0;" parent="1" source="WIPBF-BIMuHk1VfdhbWs-46" target="eiDw2SdyNVHJPghsJ6bD-110" edge="1">
          <mxGeometry width="50" height="50" relative="1" as="geometry">
            <mxPoint x="-400" y="240" as="sourcePoint" />
            <mxPoint x="-490" y="120" as="targetPoint" />
          </mxGeometry>
        </mxCell>
        <mxCell id="BETedTe-KKFlbuXkZifq-18" value="Nội dung phản biện" style="ellipse;whiteSpace=wrap;html=1;" parent="1" vertex="1">
          <mxGeometry x="631.25" y="630" width="80" height="50" as="geometry" />
        </mxCell>
        <mxCell id="BETedTe-KKFlbuXkZifq-19" value="" style="endArrow=none;html=1;exitX=1;exitY=0.5;exitDx=0;exitDy=0;entryX=0;entryY=0.5;entryDx=0;entryDy=0;" parent="1" source="iCLH5OQKp1aBjLCYg7CI-16" target="BETedTe-KKFlbuXkZifq-18" edge="1">
          <mxGeometry width="50" height="50" relative="1" as="geometry">
            <mxPoint x="545" y="680" as="sourcePoint" />
            <mxPoint x="630" y="530" as="targetPoint" />
          </mxGeometry>
        </mxCell>
        <mxCell id="v93aDi29n5t1eOQIRRw4-1" value="Dạng xuất bản" style="ellipse;whiteSpace=wrap;html=1;" parent="1" vertex="1">
          <mxGeometry x="-780" y="170" width="120" height="80" as="geometry" />
        </mxCell>
        <mxCell id="v93aDi29n5t1eOQIRRw4-2" value="" style="endArrow=none;html=1;entryX=0;entryY=0.5;entryDx=0;entryDy=0;exitX=1;exitY=0.5;exitDx=0;exitDy=0;" parent="1" source="v93aDi29n5t1eOQIRRw4-1" target="WIPBF-BIMuHk1VfdhbWs-46" edge="1">
          <mxGeometry width="50" height="50" relative="1" as="geometry">
            <mxPoint x="-640" y="290" as="sourcePoint" />
            <mxPoint x="-590" y="240" as="targetPoint" />
          </mxGeometry>
        </mxCell>
        <mxCell id="v93aDi29n5t1eOQIRRw4-3" value="" style="endArrow=none;html=1;entryX=0.815;entryY=0.991;entryDx=0;entryDy=0;entryPerimeter=0;exitX=0.5;exitY=0;exitDx=0;exitDy=0;" parent="1" edge="1">
          <mxGeometry width="50" height="50" relative="1" as="geometry">
            <mxPoint x="75" y="410.54" as="sourcePoint" />
            <mxPoint x="62.800000000000175" y="310.00000000000006" as="targetPoint" />
          </mxGeometry>
        </mxCell>
        <mxCell id="v93aDi29n5t1eOQIRRw4-4" value="Mức đánh giá" style="rounded=0;whiteSpace=wrap;html=1;fillColor=#f8cecc;strokeColor=#b85450;" parent="1" vertex="1">
          <mxGeometry x="883.13" y="1070" width="120" height="60" as="geometry" />
        </mxCell>
        <mxCell id="v93aDi29n5t1eOQIRRw4-5" value="" style="rounded=0;whiteSpace=wrap;html=1;fillColor=none;" parent="1" vertex="1">
          <mxGeometry x="890" y="1075" width="103.75" height="50" as="geometry" />
        </mxCell>
        <mxCell id="v93aDi29n5t1eOQIRRw4-6" value="Có mức đánh giá" style="rhombus;whiteSpace=wrap;html=1;fillColor=#fff2cc;strokeColor=#d6b656;" parent="1" vertex="1">
          <mxGeometry x="715" y="958.75" width="120" height="100" as="geometry" />
        </mxCell>
        <mxCell id="v93aDi29n5t1eOQIRRw4-7" value="" style="rhombus;whiteSpace=wrap;html=1;fillColor=none;" parent="1" vertex="1">
          <mxGeometry x="720" y="963.75" width="110" height="90" as="geometry" />
        </mxCell>
        <mxCell id="v93aDi29n5t1eOQIRRw4-9" value="" style="endArrow=none;html=1;exitX=0.5;exitY=0;exitDx=0;exitDy=0;entryX=0.5;entryY=1;entryDx=0;entryDy=0;" parent="1" source="v93aDi29n5t1eOQIRRw4-4" target="v93aDi29n5t1eOQIRRw4-6" edge="1">
          <mxGeometry width="50" height="50" relative="1" as="geometry">
            <mxPoint x="535" y="898.75" as="sourcePoint" />
            <mxPoint x="585" y="848.75" as="targetPoint" />
          </mxGeometry>
        </mxCell>
        <mxCell id="v93aDi29n5t1eOQIRRw4-10" value="Biên tập bởi" style="rhombus;whiteSpace=wrap;html=1;fillColor=#fff2cc;strokeColor=#d6b656;" parent="1" vertex="1">
          <mxGeometry x="400" y="260" width="80" height="80" as="geometry" />
        </mxCell>
        <mxCell id="v93aDi29n5t1eOQIRRw4-12" value="" style="endArrow=none;html=1;exitX=1;exitY=0.5;exitDx=0;exitDy=0;entryX=0;entryY=0.5;entryDx=0;entryDy=0;" parent="1" source="v93aDi29n5t1eOQIRRw4-10" target="eiDw2SdyNVHJPghsJ6bD-32" edge="1">
          <mxGeometry width="50" height="50" relative="1" as="geometry">
            <mxPoint x="580" y="400" as="sourcePoint" />
            <mxPoint x="630" y="350" as="targetPoint" />
          </mxGeometry>
        </mxCell>
        <mxCell id="v93aDi29n5t1eOQIRRw4-13" value="" style="endArrow=none;html=1;entryX=1;entryY=0.75;entryDx=0;entryDy=0;exitX=0.069;exitY=0.568;exitDx=0;exitDy=0;exitPerimeter=0;" parent="1" source="v93aDi29n5t1eOQIRRw4-10" target="eiDw2SdyNVHJPghsJ6bD-1" edge="1">
          <mxGeometry width="50" height="50" relative="1" as="geometry">
            <mxPoint x="280" y="450" as="sourcePoint" />
            <mxPoint x="330" y="400" as="targetPoint" />
          </mxGeometry>
        </mxCell>
        <mxCell id="v93aDi29n5t1eOQIRRw4-14" value="" style="endArrow=none;html=1;entryX=1.008;entryY=0.676;entryDx=0;entryDy=0;entryPerimeter=0;exitX=0;exitY=0.5;exitDx=0;exitDy=0;" parent="1" source="v93aDi29n5t1eOQIRRw4-10" target="eiDw2SdyNVHJPghsJ6bD-1" edge="1">
          <mxGeometry width="50" height="50" relative="1" as="geometry">
            <mxPoint x="280" y="450" as="sourcePoint" />
            <mxPoint x="330" y="400" as="targetPoint" />
          </mxGeometry>
        </mxCell>
        <mxCell id="v93aDi29n5t1eOQIRRw4-15" value="N" style="text;html=1;align=center;verticalAlign=middle;resizable=0;points=[];autosize=1;" parent="1" vertex="1">
          <mxGeometry x="390" y="280" width="20" height="20" as="geometry" />
        </mxCell>
        <mxCell id="v93aDi29n5t1eOQIRRw4-16" value="1" style="text;html=1;align=center;verticalAlign=middle;resizable=0;points=[];autosize=1;" parent="1" vertex="1">
          <mxGeometry x="470" y="280" width="20" height="20" as="geometry" />
        </mxCell>
        <mxCell id="v93aDi29n5t1eOQIRRw4-19" value="" style="endArrow=none;html=1;exitX=0.997;exitY=0.53;exitDx=0;exitDy=0;exitPerimeter=0;entryX=0.044;entryY=0.54;entryDx=0;entryDy=0;entryPerimeter=0;" parent="1" source="WIPBF-BIMuHk1VfdhbWs-46" target="WIPBF-BIMuHk1VfdhbWs-47" edge="1">
          <mxGeometry width="50" height="50" relative="1" as="geometry">
            <mxPoint x="-480" y="240" as="sourcePoint" />
            <mxPoint x="-430" y="190" as="targetPoint" />
          </mxGeometry>
        </mxCell>
        <mxCell id="v93aDi29n5t1eOQIRRw4-20" value="Ngày phân công phản biện" style="ellipse;whiteSpace=wrap;html=1;" parent="1" vertex="1">
          <mxGeometry x="515" y="380" width="90" height="60" as="geometry" />
        </mxCell>
        <mxCell id="v93aDi29n5t1eOQIRRw4-21" value="" style="endArrow=none;html=1;exitX=0.5;exitY=1;exitDx=0;exitDy=0;" parent="1" source="iCLH5OQKp1aBjLCYg7CI-3" target="v93aDi29n5t1eOQIRRw4-20" edge="1">
          <mxGeometry width="50" height="50" relative="1" as="geometry">
            <mxPoint x="540" y="680" as="sourcePoint" />
            <mxPoint x="590" y="630" as="targetPoint" />
          </mxGeometry>
        </mxCell>
        <mxCell id="v93aDi29n5t1eOQIRRw4-22" value="Hạn gởi phản biện" style="ellipse;whiteSpace=wrap;html=1;" parent="1" vertex="1">
          <mxGeometry x="341.87999999999994" y="415" width="83.12" height="50" as="geometry" />
        </mxCell>
        <mxCell id="v93aDi29n5t1eOQIRRw4-23" value="" style="endArrow=none;html=1;entryX=0.5;entryY=1;entryDx=0;entryDy=0;" parent="1" source="v93aDi29n5t1eOQIRRw4-22" target="iCLH5OQKp1aBjLCYg7CI-3" edge="1">
          <mxGeometry width="50" height="50" relative="1" as="geometry">
            <mxPoint x="540" y="680" as="sourcePoint" />
            <mxPoint x="590" y="630" as="targetPoint" />
          </mxGeometry>
        </mxCell>
        <mxCell id="v93aDi29n5t1eOQIRRw4-24" value="Kết quả phản biện" style="ellipse;whiteSpace=wrap;html=1;fillColor=#ffffff;" parent="1" vertex="1">
          <mxGeometry x="450" y="435" width="80" height="50" as="geometry" />
        </mxCell>
        <mxCell id="v93aDi29n5t1eOQIRRw4-26" value="Các kết quả phản biện" style="ellipse;whiteSpace=wrap;html=1;fillColor=#ffffff;dashed=1;" parent="1" vertex="1">
          <mxGeometry x="490" y="157.5" width="70" height="60" as="geometry" />
        </mxCell>
        <mxCell id="v93aDi29n5t1eOQIRRw4-27" value="" style="endArrow=none;html=1;entryX=0.5;entryY=0;entryDx=0;entryDy=0;exitX=0;exitY=0.5;exitDx=0;exitDy=0;" parent="1" source="v93aDi29n5t1eOQIRRw4-26" target="eiDw2SdyNVHJPghsJ6bD-164" edge="1">
          <mxGeometry width="50" height="50" relative="1" as="geometry">
            <mxPoint x="75" y="-130" as="sourcePoint" />
            <mxPoint x="125" y="-180" as="targetPoint" />
          </mxGeometry>
        </mxCell>
        <mxCell id="v93aDi29n5t1eOQIRRw4-30" value="Ngày xuất bản" style="ellipse;whiteSpace=wrap;html=1;fillColor=#ffffff;" parent="1" vertex="1">
          <mxGeometry x="-720" y="280" width="120" height="80" as="geometry" />
        </mxCell>
        <mxCell id="v93aDi29n5t1eOQIRRw4-31" value="" style="endArrow=none;html=1;exitX=0.5;exitY=0;exitDx=0;exitDy=0;entryX=0;entryY=0.5;entryDx=0;entryDy=0;" parent="1" source="v93aDi29n5t1eOQIRRw4-30" target="WIPBF-BIMuHk1VfdhbWs-46" edge="1">
          <mxGeometry width="50" height="50" relative="1" as="geometry">
            <mxPoint x="-670" y="270" as="sourcePoint" />
            <mxPoint x="-620" y="220" as="targetPoint" />
          </mxGeometry>
        </mxCell>
        <mxCell id="iCLH5OQKp1aBjLCYg7CI-3" value="Phân công phản biện" style="rhombus;whiteSpace=wrap;html=1;fillColor=#fff2cc;strokeColor=#d6b656;" parent="1" vertex="1">
          <mxGeometry x="425" y="340" width="80" height="80" as="geometry" />
        </mxCell>
        <mxCell id="iCLH5OQKp1aBjLCYg7CI-4" value="" style="endArrow=none;html=1;exitX=1;exitY=0.75;exitDx=0;exitDy=0;entryX=0;entryY=0.5;entryDx=0;entryDy=0;" parent="1" source="eiDw2SdyNVHJPghsJ6bD-1" target="iCLH5OQKp1aBjLCYg7CI-3" edge="1">
          <mxGeometry width="50" height="50" relative="1" as="geometry">
            <mxPoint x="400" y="350" as="sourcePoint" />
            <mxPoint x="450" y="300" as="targetPoint" />
          </mxGeometry>
        </mxCell>
        <mxCell id="iCLH5OQKp1aBjLCYg7CI-5" value="" style="endArrow=none;html=1;exitX=0.992;exitY=0.65;exitDx=0;exitDy=0;exitPerimeter=0;entryX=0.074;entryY=0.441;entryDx=0;entryDy=0;entryPerimeter=0;" parent="1" source="eiDw2SdyNVHJPghsJ6bD-1" target="iCLH5OQKp1aBjLCYg7CI-3" edge="1">
          <mxGeometry width="50" height="50" relative="1" as="geometry">
            <mxPoint x="400" y="350" as="sourcePoint" />
            <mxPoint x="413" y="389" as="targetPoint" />
          </mxGeometry>
        </mxCell>
        <mxCell id="iCLH5OQKp1aBjLCYg7CI-6" value="" style="endArrow=none;html=1;exitX=1;exitY=0.5;exitDx=0;exitDy=0;entryX=0;entryY=1;entryDx=0;entryDy=0;" parent="1" source="iCLH5OQKp1aBjLCYg7CI-3" target="eiDw2SdyNVHJPghsJ6bD-31" edge="1">
          <mxGeometry width="50" height="50" relative="1" as="geometry">
            <mxPoint x="640" y="390" as="sourcePoint" />
            <mxPoint x="690" y="340" as="targetPoint" />
          </mxGeometry>
        </mxCell>
        <mxCell id="iCLH5OQKp1aBjLCYg7CI-7" value="" style="endArrow=none;html=1;exitX=0.5;exitY=0;exitDx=0;exitDy=0;entryX=0;entryY=0.5;entryDx=0;entryDy=0;" parent="1" source="iCLH5OQKp1aBjLCYg7CI-3" target="eiDw2SdyNVHJPghsJ6bD-32" edge="1">
          <mxGeometry width="50" height="50" relative="1" as="geometry">
            <mxPoint x="570" y="390" as="sourcePoint" />
            <mxPoint x="620" y="340" as="targetPoint" />
          </mxGeometry>
        </mxCell>
        <mxCell id="iCLH5OQKp1aBjLCYg7CI-10" value="" style="endArrow=none;html=1;exitX=0.5;exitY=0;exitDx=0;exitDy=0;entryX=1;entryY=0.5;entryDx=0;entryDy=0;" parent="1" source="v93aDi29n5t1eOQIRRw4-10" target="eiDw2SdyNVHJPghsJ6bD-141" edge="1">
          <mxGeometry width="50" height="50" relative="1" as="geometry">
            <mxPoint x="140" y="180" as="sourcePoint" />
            <mxPoint x="190" y="130" as="targetPoint" />
          </mxGeometry>
        </mxCell>
        <mxCell id="iCLH5OQKp1aBjLCYg7CI-11" value="" style="endArrow=none;html=1;entryX=0.5;entryY=1;entryDx=0;entryDy=0;exitX=0.5;exitY=0;exitDx=0;exitDy=0;" parent="1" source="v93aDi29n5t1eOQIRRw4-24" target="iCLH5OQKp1aBjLCYg7CI-3" edge="1">
          <mxGeometry width="50" height="50" relative="1" as="geometry">
            <mxPoint x="470" y="500" as="sourcePoint" />
            <mxPoint x="520" y="450" as="targetPoint" />
          </mxGeometry>
        </mxCell>
        <mxCell id="iCLH5OQKp1aBjLCYg7CI-12" value="" style="endArrow=none;html=1;entryX=0.5;entryY=1;entryDx=0;entryDy=0;exitX=0.5;exitY=0;exitDx=0;exitDy=0;" parent="1" source="v93aDi29n5t1eOQIRRw4-10" target="eiDw2SdyNVHJPghsJ6bD-164" edge="1">
          <mxGeometry width="50" height="50" relative="1" as="geometry">
            <mxPoint x="330" y="240" as="sourcePoint" />
            <mxPoint x="380" y="190" as="targetPoint" />
          </mxGeometry>
        </mxCell>
        <mxCell id="iCLH5OQKp1aBjLCYg7CI-16" value="Bài phản biện" style="rhombus;whiteSpace=wrap;html=1;fillColor=#fff2cc;strokeColor=#d6b656;" parent="1" vertex="1">
          <mxGeometry x="420" y="530" width="95" height="77.5" as="geometry" />
        </mxCell>
        <mxCell id="iCLH5OQKp1aBjLCYg7CI-18" value="N" style="text;html=1;align=center;verticalAlign=middle;resizable=0;points=[];autosize=1;" parent="1" vertex="1">
          <mxGeometry x="400" y="380" width="20" height="20" as="geometry" />
        </mxCell>
        <mxCell id="iCLH5OQKp1aBjLCYg7CI-19" value="M" style="text;html=1;align=center;verticalAlign=middle;resizable=0;points=[];autosize=1;" parent="1" vertex="1">
          <mxGeometry x="495" y="360" width="30" height="20" as="geometry" />
        </mxCell>
        <mxCell id="iCLH5OQKp1aBjLCYg7CI-20" value="1" style="text;html=1;align=center;verticalAlign=middle;resizable=0;points=[];autosize=1;" parent="1" vertex="1">
          <mxGeometry x="480" y="320" width="20" height="20" as="geometry" />
        </mxCell>
        <mxCell id="iCLH5OQKp1aBjLCYg7CI-21" value="" style="rhombus;whiteSpace=wrap;html=1;fillColor=none;" parent="1" vertex="1">
          <mxGeometry x="425" y="533.17" width="85" height="71.16" as="geometry" />
        </mxCell>
        <mxCell id="iCLH5OQKp1aBjLCYg7CI-26" value="(0,*)" style="text;html=1;align=center;verticalAlign=middle;resizable=0;points=[];autosize=1;" parent="1" vertex="1">
          <mxGeometry x="390" y="520" width="40" height="20" as="geometry" />
        </mxCell>
        <mxCell id="iCLH5OQKp1aBjLCYg7CI-27" value="(1,3)" style="text;html=1;align=center;verticalAlign=middle;resizable=0;points=[];autosize=1;" parent="1" vertex="1">
          <mxGeometry x="530" y="550" width="40" height="20" as="geometry" />
        </mxCell>
        <mxCell id="iCLH5OQKp1aBjLCYg7CI-29" value="1" style="text;html=1;align=center;verticalAlign=middle;resizable=0;points=[];autosize=1;" parent="1" vertex="1">
          <mxGeometry x="760" y="930" width="20" height="20" as="geometry" />
        </mxCell>
        <mxCell id="iCLH5OQKp1aBjLCYg7CI-30" value="N" style="text;html=1;align=center;verticalAlign=middle;resizable=0;points=[];autosize=1;" parent="1" vertex="1">
          <mxGeometry x="780" y="1060" width="20" height="20" as="geometry" />
        </mxCell>
        <mxCell id="J7R_fkiStJOOOkGrfNas-7" value="" style="endArrow=none;html=1;entryX=0.5;entryY=1;entryDx=0;entryDy=0;exitX=1;exitY=0.5;exitDx=0;exitDy=0;" edge="1" parent="1" source="eiDw2SdyNVHJPghsJ6bD-156" target="eiDw2SdyNVHJPghsJ6bD-31">
          <mxGeometry width="50" height="50" relative="1" as="geometry">
            <mxPoint x="410" y="580" as="sourcePoint" />
            <mxPoint x="460" y="530" as="targetPoint" />
          </mxGeometry>
        </mxCell>
        <mxCell id="J7R_fkiStJOOOkGrfNas-8" value="K" style="text;html=1;align=center;verticalAlign=middle;resizable=0;points=[];autosize=1;" vertex="1" parent="1">
          <mxGeometry x="760" y="770" width="20" height="20" as="geometry" />
        </mxCell>
      </root>
    </mxGraphModel>
  </diagram>
  <diagram name="Page-1" id="O5FVIWMvckF1R0jDT7zk">
    <mxGraphModel dx="2090" dy="1743" grid="1" gridSize="10" guides="1" tooltips="1" connect="1" arrows="1" fold="1" page="1" pageScale="1" pageWidth="850" pageHeight="1100" math="0" shadow="0" extFonts="Permanent Marker^https://fonts.googleapis.com/css?family=Permanent+Marker">
      <root>
        <mxCell id="0" />
        <mxCell id="1" parent="0" />
        <mxCell id="eiDw2SdyNVHJPghsJ6bD-1" value="Bài báo" style="rounded=0;whiteSpace=wrap;html=1;fillColor=#f8cecc;strokeColor=#b85450;" parent="1" vertex="1">
          <mxGeometry x="-30" y="250" width="120" height="60" as="geometry" />
        </mxCell>
        <mxCell id="eiDw2SdyNVHJPghsJ6bD-2" value="File bài báo" style="ellipse;whiteSpace=wrap;html=1;" parent="1" vertex="1">
          <mxGeometry x="-190" y="165" width="70" height="45" as="geometry" />
        </mxCell>
        <mxCell id="eiDw2SdyNVHJPghsJ6bD-3" value="Tác giả" style="rounded=0;whiteSpace=wrap;html=1;fillColor=#f8cecc;strokeColor=#b85450;" parent="1" vertex="1">
          <mxGeometry x="550" y="100" width="120" height="60" as="geometry" />
        </mxCell>
        <mxCell id="eiDw2SdyNVHJPghsJ6bD-4" value="Ngày gởi" style="ellipse;whiteSpace=wrap;html=1;" parent="1" vertex="1">
          <mxGeometry x="-60" y="80" width="70" height="50" as="geometry" />
        </mxCell>
        <mxCell id="eiDw2SdyNVHJPghsJ6bD-5" value="Từ khóa" style="ellipse;whiteSpace=wrap;html=1;" parent="1" vertex="1">
          <mxGeometry x="-250" y="250" width="120" height="80" as="geometry" />
        </mxCell>
        <mxCell id="eiDw2SdyNVHJPghsJ6bD-7" value="Tóm tắt" style="ellipse;whiteSpace=wrap;html=1;" parent="1" vertex="1">
          <mxGeometry x="-195" y="470" width="65" height="45" as="geometry" />
        </mxCell>
        <mxCell id="eiDw2SdyNVHJPghsJ6bD-8" value="Tiêu đề" style="ellipse;whiteSpace=wrap;html=1;" parent="1" vertex="1">
          <mxGeometry x="-155" y="105" width="65" height="45" as="geometry" />
        </mxCell>
        <mxCell id="eiDw2SdyNVHJPghsJ6bD-9" value="&lt;u&gt;Mã bài báo&lt;/u&gt;" style="ellipse;whiteSpace=wrap;html=1;" parent="1" vertex="1">
          <mxGeometry x="-300" y="355" width="70" height="50" as="geometry" />
        </mxCell>
        <mxCell id="eiDw2SdyNVHJPghsJ6bD-10" value="" style="endArrow=none;html=1;exitX=1;exitY=1;exitDx=0;exitDy=0;entryX=0.5;entryY=0;entryDx=0;entryDy=0;" parent="1" source="eiDw2SdyNVHJPghsJ6bD-2" target="eiDw2SdyNVHJPghsJ6bD-1" edge="1">
          <mxGeometry width="50" height="50" relative="1" as="geometry">
            <mxPoint y="340" as="sourcePoint" />
            <mxPoint x="50" y="290" as="targetPoint" />
          </mxGeometry>
        </mxCell>
        <mxCell id="eiDw2SdyNVHJPghsJ6bD-11" value="" style="endArrow=none;html=1;entryX=0;entryY=0.5;entryDx=0;entryDy=0;" parent="1" source="eiDw2SdyNVHJPghsJ6bD-5" target="eiDw2SdyNVHJPghsJ6bD-1" edge="1">
          <mxGeometry width="50" height="50" relative="1" as="geometry">
            <mxPoint y="340" as="sourcePoint" />
            <mxPoint x="50" y="290" as="targetPoint" />
          </mxGeometry>
        </mxCell>
        <mxCell id="eiDw2SdyNVHJPghsJ6bD-13" value="" style="endArrow=none;html=1;exitX=0.5;exitY=0;exitDx=0;exitDy=0;entryX=0.5;entryY=1;entryDx=0;entryDy=0;" parent="1" source="eiDw2SdyNVHJPghsJ6bD-7" target="eiDw2SdyNVHJPghsJ6bD-1" edge="1">
          <mxGeometry width="50" height="50" relative="1" as="geometry">
            <mxPoint x="250" y="350" as="sourcePoint" />
            <mxPoint x="300" y="300" as="targetPoint" />
          </mxGeometry>
        </mxCell>
        <mxCell id="eiDw2SdyNVHJPghsJ6bD-14" value="" style="endArrow=none;html=1;exitX=0.5;exitY=0;exitDx=0;exitDy=0;entryX=0.5;entryY=1;entryDx=0;entryDy=0;" parent="1" source="eiDw2SdyNVHJPghsJ6bD-1" target="eiDw2SdyNVHJPghsJ6bD-4" edge="1">
          <mxGeometry width="50" height="50" relative="1" as="geometry">
            <mxPoint x="250" y="350" as="sourcePoint" />
            <mxPoint x="300" y="300" as="targetPoint" />
          </mxGeometry>
        </mxCell>
        <mxCell id="eiDw2SdyNVHJPghsJ6bD-15" value="" style="endArrow=none;html=1;exitX=0.5;exitY=0;exitDx=0;exitDy=0;entryX=1;entryY=0.5;entryDx=0;entryDy=0;" parent="1" source="eiDw2SdyNVHJPghsJ6bD-1" target="eiDw2SdyNVHJPghsJ6bD-8" edge="1">
          <mxGeometry width="50" height="50" relative="1" as="geometry">
            <mxPoint y="340" as="sourcePoint" />
            <mxPoint x="50" y="290" as="targetPoint" />
          </mxGeometry>
        </mxCell>
        <mxCell id="eiDw2SdyNVHJPghsJ6bD-16" value="" style="endArrow=none;html=1;exitX=0;exitY=0.5;exitDx=0;exitDy=0;entryX=1;entryY=0;entryDx=0;entryDy=0;" parent="1" source="eiDw2SdyNVHJPghsJ6bD-1" target="eiDw2SdyNVHJPghsJ6bD-9" edge="1">
          <mxGeometry width="50" height="50" relative="1" as="geometry">
            <mxPoint y="340" as="sourcePoint" />
            <mxPoint x="50" y="290" as="targetPoint" />
          </mxGeometry>
        </mxCell>
        <mxCell id="eiDw2SdyNVHJPghsJ6bD-17" value="" style="ellipse;whiteSpace=wrap;html=1;strokeColor=#000000;fillColor=none;" parent="1" vertex="1">
          <mxGeometry x="-245" y="260" width="110" height="60" as="geometry" />
        </mxCell>
        <mxCell id="eiDw2SdyNVHJPghsJ6bD-18" value="Phản biện sách" style="rounded=0;whiteSpace=wrap;html=1;strokeColor=#b85450;fillColor=#f8cecc;" parent="1" vertex="1">
          <mxGeometry x="40" y="570" width="120" height="60" as="geometry" />
        </mxCell>
        <mxCell id="eiDw2SdyNVHJPghsJ6bD-20" value="d" style="ellipse;whiteSpace=wrap;html=1;aspect=fixed;strokeColor=#000000;fillColor=#ffffff;" parent="1" vertex="1">
          <mxGeometry x="60" y="410" width="40" height="40" as="geometry" />
        </mxCell>
        <mxCell id="eiDw2SdyNVHJPghsJ6bD-21" value="" style="endArrow=none;html=1;entryX=0.815;entryY=0.991;entryDx=0;entryDy=0;entryPerimeter=0;exitX=0.5;exitY=0;exitDx=0;exitDy=0;" parent="1" source="eiDw2SdyNVHJPghsJ6bD-20" target="eiDw2SdyNVHJPghsJ6bD-1" edge="1">
          <mxGeometry width="50" height="50" relative="1" as="geometry">
            <mxPoint y="560" as="sourcePoint" />
            <mxPoint x="50" y="510" as="targetPoint" />
          </mxGeometry>
        </mxCell>
        <mxCell id="eiDw2SdyNVHJPghsJ6bD-22" value="" style="endArrow=none;html=1;exitX=0.5;exitY=0;exitDx=0;exitDy=0;" parent="1" source="eiDw2SdyNVHJPghsJ6bD-18" edge="1">
          <mxGeometry width="50" height="50" relative="1" as="geometry">
            <mxPoint y="560" as="sourcePoint" />
            <mxPoint x="80" y="450" as="targetPoint" />
          </mxGeometry>
        </mxCell>
        <mxCell id="eiDw2SdyNVHJPghsJ6bD-23" value="Loại bài báo" style="text;html=1;align=center;verticalAlign=middle;resizable=0;points=[];autosize=1;" parent="1" vertex="1">
          <mxGeometry x="75" y="360" width="80" height="20" as="geometry" />
        </mxCell>
        <mxCell id="eiDw2SdyNVHJPghsJ6bD-24" value="Tổng quan" style="rounded=0;whiteSpace=wrap;html=1;strokeColor=#b85450;fillColor=#f8cecc;" parent="1" vertex="1">
          <mxGeometry x="200" y="570" width="120" height="60" as="geometry" />
        </mxCell>
        <mxCell id="eiDw2SdyNVHJPghsJ6bD-25" value="Ngiên cứu" style="rounded=0;whiteSpace=wrap;html=1;strokeColor=#b85450;fillColor=#f8cecc;" parent="1" vertex="1">
          <mxGeometry x="-120" y="590" width="120" height="60" as="geometry" />
        </mxCell>
        <mxCell id="eiDw2SdyNVHJPghsJ6bD-26" value="" style="endArrow=none;html=1;entryX=0;entryY=1;entryDx=0;entryDy=0;exitX=0.5;exitY=0;exitDx=0;exitDy=0;" parent="1" source="eiDw2SdyNVHJPghsJ6bD-25" target="eiDw2SdyNVHJPghsJ6bD-20" edge="1">
          <mxGeometry width="50" height="50" relative="1" as="geometry">
            <mxPoint y="550" as="sourcePoint" />
            <mxPoint x="50" y="500" as="targetPoint" />
          </mxGeometry>
        </mxCell>
        <mxCell id="eiDw2SdyNVHJPghsJ6bD-27" value="" style="endArrow=none;html=1;entryX=1;entryY=1;entryDx=0;entryDy=0;exitX=0.5;exitY=0;exitDx=0;exitDy=0;" parent="1" source="eiDw2SdyNVHJPghsJ6bD-24" target="eiDw2SdyNVHJPghsJ6bD-20" edge="1">
          <mxGeometry width="50" height="50" relative="1" as="geometry">
            <mxPoint y="550" as="sourcePoint" />
            <mxPoint x="50" y="500" as="targetPoint" />
          </mxGeometry>
        </mxCell>
        <mxCell id="eiDw2SdyNVHJPghsJ6bD-30" value="Nhà khoa học" style="rounded=0;whiteSpace=wrap;html=1;strokeColor=#b85450;fillColor=#f8cecc;" parent="1" vertex="1">
          <mxGeometry x="780" y="-100" width="120" height="60" as="geometry" />
        </mxCell>
        <mxCell id="eiDw2SdyNVHJPghsJ6bD-31" value="Phản biện" style="rounded=0;whiteSpace=wrap;html=1;strokeColor=#b85450;fillColor=#f8cecc;" parent="1" vertex="1">
          <mxGeometry x="790" y="240" width="120" height="60" as="geometry" />
        </mxCell>
        <mxCell id="eiDw2SdyNVHJPghsJ6bD-32" value="Biên tập" style="rounded=0;whiteSpace=wrap;html=1;strokeColor=#b85450;fillColor=#f8cecc;" parent="1" vertex="1">
          <mxGeometry x="570" y="200" width="120" height="60" as="geometry" />
        </mxCell>
        <mxCell id="eiDw2SdyNVHJPghsJ6bD-33" value="o" style="ellipse;whiteSpace=wrap;html=1;aspect=fixed;strokeColor=#000000;fillColor=#ffffff;" parent="1" vertex="1">
          <mxGeometry x="825" y="90" width="30" height="30" as="geometry" />
        </mxCell>
        <mxCell id="eiDw2SdyNVHJPghsJ6bD-36" value="" style="endArrow=none;html=1;exitX=0.5;exitY=0;exitDx=0;exitDy=0;entryX=0.5;entryY=1;entryDx=0;entryDy=0;" parent="1" source="eiDw2SdyNVHJPghsJ6bD-33" target="eiDw2SdyNVHJPghsJ6bD-30" edge="1">
          <mxGeometry width="50" height="50" relative="1" as="geometry">
            <mxPoint x="570" y="60" as="sourcePoint" />
            <mxPoint x="831" y="-38" as="targetPoint" />
          </mxGeometry>
        </mxCell>
        <mxCell id="eiDw2SdyNVHJPghsJ6bD-38" value="" style="endArrow=none;html=1;entryX=0;entryY=1;entryDx=0;entryDy=0;exitX=1;exitY=0.5;exitDx=0;exitDy=0;" parent="1" source="eiDw2SdyNVHJPghsJ6bD-3" target="eiDw2SdyNVHJPghsJ6bD-33" edge="1">
          <mxGeometry width="50" height="50" relative="1" as="geometry">
            <mxPoint x="570" y="230" as="sourcePoint" />
            <mxPoint x="620" y="180" as="targetPoint" />
          </mxGeometry>
        </mxCell>
        <mxCell id="eiDw2SdyNVHJPghsJ6bD-39" value="" style="endArrow=none;html=1;entryX=0.5;entryY=1;entryDx=0;entryDy=0;exitX=0.5;exitY=0;exitDx=0;exitDy=0;" parent="1" source="eiDw2SdyNVHJPghsJ6bD-31" target="eiDw2SdyNVHJPghsJ6bD-33" edge="1">
          <mxGeometry width="50" height="50" relative="1" as="geometry">
            <mxPoint x="570" y="230" as="sourcePoint" />
            <mxPoint x="620" y="180" as="targetPoint" />
          </mxGeometry>
        </mxCell>
        <mxCell id="eiDw2SdyNVHJPghsJ6bD-40" value="" style="endArrow=none;html=1;exitX=1;exitY=0;exitDx=0;exitDy=0;entryX=0.273;entryY=0.951;entryDx=0;entryDy=0;entryPerimeter=0;" parent="1" source="eiDw2SdyNVHJPghsJ6bD-32" target="eiDw2SdyNVHJPghsJ6bD-33" edge="1">
          <mxGeometry width="50" height="50" relative="1" as="geometry">
            <mxPoint x="570" y="230" as="sourcePoint" />
            <mxPoint x="829" y="120" as="targetPoint" />
          </mxGeometry>
        </mxCell>
        <mxCell id="eiDw2SdyNVHJPghsJ6bD-50" value="Trình độ" style="ellipse;whiteSpace=wrap;html=1;strokeColor=#000000;fillColor=#ffffff;" parent="1" vertex="1">
          <mxGeometry x="950" y="410" width="120" height="80" as="geometry" />
        </mxCell>
        <mxCell id="eiDw2SdyNVHJPghsJ6bD-51" value="Chuyên môn" style="ellipse;whiteSpace=wrap;html=1;strokeColor=#000000;fillColor=#ffffff;" parent="1" vertex="1">
          <mxGeometry x="1100" y="270" width="120" height="80" as="geometry" />
        </mxCell>
        <mxCell id="eiDw2SdyNVHJPghsJ6bD-52" value="Ngày cộng tác với tạp chỉ" style="ellipse;whiteSpace=wrap;html=1;strokeColor=#000000;fillColor=#ffffff;" parent="1" vertex="1">
          <mxGeometry x="1110" y="395" width="120" height="80" as="geometry" />
        </mxCell>
        <mxCell id="eiDw2SdyNVHJPghsJ6bD-57" value="Email" style="ellipse;whiteSpace=wrap;html=1;strokeColor=#000000;fillColor=#ffffff;" parent="1" vertex="1">
          <mxGeometry x="1230" y="200" width="120" height="80" as="geometry" />
        </mxCell>
        <mxCell id="eiDw2SdyNVHJPghsJ6bD-58" value="Email cơ quan" style="ellipse;whiteSpace=wrap;html=1;strokeColor=#000000;fillColor=#ffffff;" parent="1" vertex="1">
          <mxGeometry x="1430" y="160" width="120" height="80" as="geometry" />
        </mxCell>
        <mxCell id="eiDw2SdyNVHJPghsJ6bD-59" value="Email cá nhân" style="ellipse;whiteSpace=wrap;html=1;strokeColor=#000000;fillColor=#ffffff;" parent="1" vertex="1">
          <mxGeometry x="1450" y="280" width="120" height="80" as="geometry" />
        </mxCell>
        <mxCell id="eiDw2SdyNVHJPghsJ6bD-60" value="" style="endArrow=none;html=1;entryX=1;entryY=0.5;entryDx=0;entryDy=0;exitX=0;exitY=0.5;exitDx=0;exitDy=0;" parent="1" source="eiDw2SdyNVHJPghsJ6bD-58" target="eiDw2SdyNVHJPghsJ6bD-57" edge="1">
          <mxGeometry width="50" height="50" relative="1" as="geometry">
            <mxPoint x="1000" y="330" as="sourcePoint" />
            <mxPoint x="1050" y="280" as="targetPoint" />
          </mxGeometry>
        </mxCell>
        <mxCell id="eiDw2SdyNVHJPghsJ6bD-61" value="" style="endArrow=none;html=1;entryX=1;entryY=0.5;entryDx=0;entryDy=0;exitX=0;exitY=0.5;exitDx=0;exitDy=0;" parent="1" source="eiDw2SdyNVHJPghsJ6bD-59" target="eiDw2SdyNVHJPghsJ6bD-57" edge="1">
          <mxGeometry width="50" height="50" relative="1" as="geometry">
            <mxPoint x="1000" y="330" as="sourcePoint" />
            <mxPoint x="1050" y="280" as="targetPoint" />
          </mxGeometry>
        </mxCell>
        <mxCell id="eiDw2SdyNVHJPghsJ6bD-63" value="" style="endArrow=none;html=1;entryX=0.5;entryY=1;entryDx=0;entryDy=0;exitX=0;exitY=0.388;exitDx=0;exitDy=0;exitPerimeter=0;" parent="1" source="eiDw2SdyNVHJPghsJ6bD-51" target="eiDw2SdyNVHJPghsJ6bD-31" edge="1">
          <mxGeometry width="50" height="50" relative="1" as="geometry">
            <mxPoint x="900" y="660" as="sourcePoint" />
            <mxPoint x="950" y="610" as="targetPoint" />
          </mxGeometry>
        </mxCell>
        <mxCell id="eiDw2SdyNVHJPghsJ6bD-64" value="" style="endArrow=none;html=1;entryX=0.5;entryY=1;entryDx=0;entryDy=0;exitX=0.333;exitY=0;exitDx=0;exitDy=0;exitPerimeter=0;" parent="1" source="eiDw2SdyNVHJPghsJ6bD-52" target="eiDw2SdyNVHJPghsJ6bD-31" edge="1">
          <mxGeometry width="50" height="50" relative="1" as="geometry">
            <mxPoint x="900" y="660" as="sourcePoint" />
            <mxPoint x="950" y="610" as="targetPoint" />
          </mxGeometry>
        </mxCell>
        <mxCell id="eiDw2SdyNVHJPghsJ6bD-67" value="" style="endArrow=none;html=1;entryX=0.5;entryY=1;entryDx=0;entryDy=0;exitX=0.5;exitY=0;exitDx=0;exitDy=0;" parent="1" source="eiDw2SdyNVHJPghsJ6bD-50" target="eiDw2SdyNVHJPghsJ6bD-31" edge="1">
          <mxGeometry width="50" height="50" relative="1" as="geometry">
            <mxPoint x="900" y="660" as="sourcePoint" />
            <mxPoint x="680" y="278.57142857142856" as="targetPoint" />
          </mxGeometry>
        </mxCell>
        <mxCell id="eiDw2SdyNVHJPghsJ6bD-73" value="Sách được phản biện" style="rounded=0;whiteSpace=wrap;html=1;strokeColor=#b85450;fillColor=#f8cecc;" parent="1" vertex="1">
          <mxGeometry x="267.5" y="860" width="165" height="80" as="geometry" />
        </mxCell>
        <mxCell id="eiDw2SdyNVHJPghsJ6bD-75" value="Năm xuất bản" style="ellipse;whiteSpace=wrap;html=1;strokeColor=#000000;" parent="1" vertex="1">
          <mxGeometry x="60" y="970" width="120" height="80" as="geometry" />
        </mxCell>
        <mxCell id="eiDw2SdyNVHJPghsJ6bD-76" value="Số trang" style="ellipse;whiteSpace=wrap;html=1;strokeColor=#000000;fillColor=#ffffff;" parent="1" vertex="1">
          <mxGeometry x="180" y="1050" width="120" height="80" as="geometry" />
        </mxCell>
        <mxCell id="eiDw2SdyNVHJPghsJ6bD-77" value="&lt;u&gt;ISBN&lt;/u&gt;" style="ellipse;whiteSpace=wrap;html=1;strokeColor=#000000;fillColor=#ffffff;" parent="1" vertex="1">
          <mxGeometry x="330" y="1080" width="120" height="80" as="geometry" />
        </mxCell>
        <mxCell id="eiDw2SdyNVHJPghsJ6bD-78" value="Tác giả" style="ellipse;whiteSpace=wrap;html=1;strokeColor=#000000;fillColor=#ffffff;" parent="1" vertex="1">
          <mxGeometry x="480" y="1090" width="120" height="80" as="geometry" />
        </mxCell>
        <mxCell id="eiDw2SdyNVHJPghsJ6bD-79" value="Nhà xuất bản" style="ellipse;whiteSpace=wrap;html=1;strokeColor=#000000;fillColor=#ffffff;" parent="1" vertex="1">
          <mxGeometry x="-60" y="870" width="120" height="80" as="geometry" />
        </mxCell>
        <mxCell id="eiDw2SdyNVHJPghsJ6bD-80" value="Tên" style="ellipse;whiteSpace=wrap;html=1;strokeColor=#000000;fillColor=#ffffff;" parent="1" vertex="1">
          <mxGeometry x="-90" y="740" width="120" height="80" as="geometry" />
        </mxCell>
        <mxCell id="eiDw2SdyNVHJPghsJ6bD-81" value="" style="endArrow=none;html=1;exitX=0;exitY=0.5;exitDx=0;exitDy=0;entryX=1;entryY=0.5;entryDx=0;entryDy=0;" parent="1" source="eiDw2SdyNVHJPghsJ6bD-73" target="eiDw2SdyNVHJPghsJ6bD-80" edge="1">
          <mxGeometry width="50" height="50" relative="1" as="geometry">
            <mxPoint x="400" y="1000" as="sourcePoint" />
            <mxPoint x="450" y="950" as="targetPoint" />
          </mxGeometry>
        </mxCell>
        <mxCell id="eiDw2SdyNVHJPghsJ6bD-82" value="" style="endArrow=none;html=1;exitX=0;exitY=0.75;exitDx=0;exitDy=0;entryX=1;entryY=0.5;entryDx=0;entryDy=0;" parent="1" source="eiDw2SdyNVHJPghsJ6bD-73" target="eiDw2SdyNVHJPghsJ6bD-79" edge="1">
          <mxGeometry width="50" height="50" relative="1" as="geometry">
            <mxPoint x="400" y="1000" as="sourcePoint" />
            <mxPoint x="450" y="950" as="targetPoint" />
          </mxGeometry>
        </mxCell>
        <mxCell id="eiDw2SdyNVHJPghsJ6bD-83" value="" style="endArrow=none;html=1;exitX=0;exitY=1;exitDx=0;exitDy=0;entryX=0.988;entryY=0.352;entryDx=0;entryDy=0;entryPerimeter=0;" parent="1" source="eiDw2SdyNVHJPghsJ6bD-73" target="eiDw2SdyNVHJPghsJ6bD-75" edge="1">
          <mxGeometry width="50" height="50" relative="1" as="geometry">
            <mxPoint x="400" y="1000" as="sourcePoint" />
            <mxPoint x="450" y="950" as="targetPoint" />
          </mxGeometry>
        </mxCell>
        <mxCell id="eiDw2SdyNVHJPghsJ6bD-84" value="" style="endArrow=none;html=1;exitX=0.25;exitY=1;exitDx=0;exitDy=0;" parent="1" source="eiDw2SdyNVHJPghsJ6bD-73" target="eiDw2SdyNVHJPghsJ6bD-76" edge="1">
          <mxGeometry width="50" height="50" relative="1" as="geometry">
            <mxPoint x="400" y="1000" as="sourcePoint" />
            <mxPoint x="450" y="950" as="targetPoint" />
          </mxGeometry>
        </mxCell>
        <mxCell id="eiDw2SdyNVHJPghsJ6bD-85" value="" style="endArrow=none;html=1;exitX=0.5;exitY=1;exitDx=0;exitDy=0;entryX=0.238;entryY=0.066;entryDx=0;entryDy=0;entryPerimeter=0;" parent="1" source="eiDw2SdyNVHJPghsJ6bD-73" target="eiDw2SdyNVHJPghsJ6bD-77" edge="1">
          <mxGeometry width="50" height="50" relative="1" as="geometry">
            <mxPoint x="400" y="1000" as="sourcePoint" />
            <mxPoint x="450" y="950" as="targetPoint" />
          </mxGeometry>
        </mxCell>
        <mxCell id="eiDw2SdyNVHJPghsJ6bD-86" value="" style="endArrow=none;html=1;exitX=0.75;exitY=1;exitDx=0;exitDy=0;entryX=0.5;entryY=0;entryDx=0;entryDy=0;" parent="1" source="eiDw2SdyNVHJPghsJ6bD-73" target="eiDw2SdyNVHJPghsJ6bD-78" edge="1">
          <mxGeometry width="50" height="50" relative="1" as="geometry">
            <mxPoint x="400" y="1000" as="sourcePoint" />
            <mxPoint x="450" y="950" as="targetPoint" />
          </mxGeometry>
        </mxCell>
        <mxCell id="eiDw2SdyNVHJPghsJ6bD-87" value="" style="ellipse;whiteSpace=wrap;html=1;strokeColor=#000000;fillColor=none;" parent="1" vertex="1">
          <mxGeometry x="490" y="1095" width="100" height="70" as="geometry" />
        </mxCell>
        <mxCell id="eiDw2SdyNVHJPghsJ6bD-88" value="Là tác giả liên lạc" style="rhombus;whiteSpace=wrap;html=1;strokeColor=#d79b00;fillColor=#ffe6cc;" parent="1" vertex="1">
          <mxGeometry x="135.55" y="-90" width="100" height="80" as="geometry" />
        </mxCell>
        <mxCell id="eiDw2SdyNVHJPghsJ6bD-89" value="" style="endArrow=none;html=1;exitX=1;exitY=0;exitDx=0;exitDy=0;entryX=0.125;entryY=0.62;entryDx=0;entryDy=0;entryPerimeter=0;" parent="1" source="eiDw2SdyNVHJPghsJ6bD-1" target="eiDw2SdyNVHJPghsJ6bD-88" edge="1">
          <mxGeometry width="50" height="50" relative="1" as="geometry">
            <mxPoint x="340" y="300" as="sourcePoint" />
            <mxPoint x="244" y="150" as="targetPoint" />
          </mxGeometry>
        </mxCell>
        <mxCell id="eiDw2SdyNVHJPghsJ6bD-90" value="" style="endArrow=none;html=1;exitX=1.005;exitY=0.11;exitDx=0;exitDy=0;exitPerimeter=0;entryX=0.143;entryY=0.645;entryDx=0;entryDy=0;entryPerimeter=0;" parent="1" source="eiDw2SdyNVHJPghsJ6bD-1" target="eiDw2SdyNVHJPghsJ6bD-88" edge="1">
          <mxGeometry width="50" height="50" relative="1" as="geometry">
            <mxPoint x="340" y="300" as="sourcePoint" />
            <mxPoint x="390" y="250" as="targetPoint" />
          </mxGeometry>
        </mxCell>
        <mxCell id="eiDw2SdyNVHJPghsJ6bD-91" value="" style="endArrow=none;html=1;exitX=1;exitY=0.5;exitDx=0;exitDy=0;entryX=0;entryY=0.5;entryDx=0;entryDy=0;" parent="1" source="eiDw2SdyNVHJPghsJ6bD-88" target="eiDw2SdyNVHJPghsJ6bD-3" edge="1">
          <mxGeometry width="50" height="50" relative="1" as="geometry">
            <mxPoint x="380" y="300" as="sourcePoint" />
            <mxPoint x="430" y="250" as="targetPoint" />
          </mxGeometry>
        </mxCell>
        <mxCell id="eiDw2SdyNVHJPghsJ6bD-92" value="Là tác giả" style="rhombus;whiteSpace=wrap;html=1;strokeColor=#d79b00;fillColor=#ffe6cc;" parent="1" vertex="1">
          <mxGeometry x="174.3" y="-10" width="100" height="90" as="geometry" />
        </mxCell>
        <mxCell id="eiDw2SdyNVHJPghsJ6bD-93" value="" style="endArrow=none;html=1;entryX=0;entryY=0.5;entryDx=0;entryDy=0;exitX=1;exitY=0.5;exitDx=0;exitDy=0;" parent="1" source="eiDw2SdyNVHJPghsJ6bD-92" target="eiDw2SdyNVHJPghsJ6bD-3" edge="1">
          <mxGeometry width="50" height="50" relative="1" as="geometry">
            <mxPoint x="380" y="300" as="sourcePoint" />
            <mxPoint x="430" y="250" as="targetPoint" />
          </mxGeometry>
        </mxCell>
        <mxCell id="eiDw2SdyNVHJPghsJ6bD-95" value="" style="endArrow=none;html=1;entryX=1;entryY=0.5;entryDx=0;entryDy=0;exitX=0;exitY=0.5;exitDx=0;exitDy=0;" parent="1" source="eiDw2SdyNVHJPghsJ6bD-92" target="eiDw2SdyNVHJPghsJ6bD-1" edge="1">
          <mxGeometry width="50" height="50" relative="1" as="geometry">
            <mxPoint x="380" y="300" as="sourcePoint" />
            <mxPoint x="430" y="250" as="targetPoint" />
          </mxGeometry>
        </mxCell>
        <mxCell id="eiDw2SdyNVHJPghsJ6bD-97" value="Chiều dài" style="ellipse;whiteSpace=wrap;html=1;strokeColor=#000000;fillColor=#ffffff;" parent="1" vertex="1">
          <mxGeometry x="-260" y="690" width="65" height="40" as="geometry" />
        </mxCell>
        <mxCell id="eiDw2SdyNVHJPghsJ6bD-98" value="" style="endArrow=none;html=1;exitX=0.5;exitY=1;exitDx=0;exitDy=0;" parent="1" source="eiDw2SdyNVHJPghsJ6bD-25" target="eiDw2SdyNVHJPghsJ6bD-97" edge="1">
          <mxGeometry width="50" height="50" relative="1" as="geometry">
            <mxPoint x="180" y="640" as="sourcePoint" />
            <mxPoint x="230" y="590" as="targetPoint" />
          </mxGeometry>
        </mxCell>
        <mxCell id="eiDw2SdyNVHJPghsJ6bD-101" value="" style="endArrow=none;html=1;exitX=1;exitY=0.75;exitDx=0;exitDy=0;entryX=0.063;entryY=0.447;entryDx=0;entryDy=0;entryPerimeter=0;" parent="1" source="eiDw2SdyNVHJPghsJ6bD-1" target="iCLH5OQKp1aBjLCYg7CI-16" edge="1">
          <mxGeometry width="50" height="50" relative="1" as="geometry">
            <mxPoint x="350" y="420" as="sourcePoint" />
            <mxPoint x="340" y="740" as="targetPoint" />
          </mxGeometry>
        </mxCell>
        <mxCell id="eiDw2SdyNVHJPghsJ6bD-102" value="" style="endArrow=none;html=1;exitX=0.995;exitY=0.852;exitDx=0;exitDy=0;entryX=0;entryY=0.5;entryDx=0;entryDy=0;exitPerimeter=0;" parent="1" source="eiDw2SdyNVHJPghsJ6bD-1" target="iCLH5OQKp1aBjLCYg7CI-16" edge="1">
          <mxGeometry width="50" height="50" relative="1" as="geometry">
            <mxPoint x="350" y="420" as="sourcePoint" />
            <mxPoint x="196.55000000000018" y="445.71000000000004" as="targetPoint" />
          </mxGeometry>
        </mxCell>
        <mxCell id="eiDw2SdyNVHJPghsJ6bD-104" value="Phản biện cho sách" style="rhombus;whiteSpace=wrap;html=1;strokeColor=#d79b00;fillColor=#ffe6cc;" parent="1" vertex="1">
          <mxGeometry x="155" y="680" width="135" height="120" as="geometry" />
        </mxCell>
        <mxCell id="eiDw2SdyNVHJPghsJ6bD-105" value="" style="endArrow=none;html=1;exitX=1;exitY=1;exitDx=0;exitDy=0;entryX=0.25;entryY=0;entryDx=0;entryDy=0;" parent="1" source="eiDw2SdyNVHJPghsJ6bD-104" target="eiDw2SdyNVHJPghsJ6bD-73" edge="1">
          <mxGeometry width="50" height="50" relative="1" as="geometry">
            <mxPoint x="340" y="740" as="sourcePoint" />
            <mxPoint x="390" y="690" as="targetPoint" />
          </mxGeometry>
        </mxCell>
        <mxCell id="eiDw2SdyNVHJPghsJ6bD-106" value="" style="endArrow=none;html=1;exitX=0.789;exitY=0.719;exitDx=0;exitDy=0;exitPerimeter=0;entryX=0.307;entryY=-0.009;entryDx=0;entryDy=0;entryPerimeter=0;" parent="1" source="eiDw2SdyNVHJPghsJ6bD-104" target="eiDw2SdyNVHJPghsJ6bD-73" edge="1">
          <mxGeometry width="50" height="50" relative="1" as="geometry">
            <mxPoint x="340" y="740" as="sourcePoint" />
            <mxPoint x="330" y="840" as="targetPoint" />
          </mxGeometry>
        </mxCell>
        <mxCell id="eiDw2SdyNVHJPghsJ6bD-107" value="" style="endArrow=none;html=1;exitX=0.658;exitY=0.983;exitDx=0;exitDy=0;exitPerimeter=0;entryX=0.294;entryY=0.207;entryDx=0;entryDy=0;entryPerimeter=0;" parent="1" source="eiDw2SdyNVHJPghsJ6bD-18" target="eiDw2SdyNVHJPghsJ6bD-104" edge="1">
          <mxGeometry width="50" height="50" relative="1" as="geometry">
            <mxPoint x="160" y="770" as="sourcePoint" />
            <mxPoint x="210" y="720" as="targetPoint" />
          </mxGeometry>
        </mxCell>
        <mxCell id="eiDw2SdyNVHJPghsJ6bD-108" value="" style="endArrow=none;html=1;exitX=0.75;exitY=1;exitDx=0;exitDy=0;entryX=0.346;entryY=0.164;entryDx=0;entryDy=0;entryPerimeter=0;" parent="1" source="eiDw2SdyNVHJPghsJ6bD-18" target="eiDw2SdyNVHJPghsJ6bD-104" edge="1">
          <mxGeometry width="50" height="50" relative="1" as="geometry">
            <mxPoint x="160" y="770" as="sourcePoint" />
            <mxPoint x="210" y="720" as="targetPoint" />
          </mxGeometry>
        </mxCell>
        <mxCell id="eiDw2SdyNVHJPghsJ6bD-110" value="&lt;u&gt;DOI&lt;/u&gt;" style="ellipse;whiteSpace=wrap;html=1;strokeColor=#000000;" parent="1" vertex="1">
          <mxGeometry x="-800" y="75" width="120" height="80" as="geometry" />
        </mxCell>
        <mxCell id="eiDw2SdyNVHJPghsJ6bD-119" value="&lt;u&gt;Nội dung&lt;/u&gt;" style="ellipse;whiteSpace=wrap;html=1;strokeColor=#000000;" parent="1" vertex="1">
          <mxGeometry x="555" y="950" width="120" height="80" as="geometry" />
        </mxCell>
        <mxCell id="eiDw2SdyNVHJPghsJ6bD-123" value="" style="endArrow=none;html=1;entryX=0.5;entryY=1;entryDx=0;entryDy=0;exitX=0.5;exitY=0;exitDx=0;exitDy=0;" parent="1" source="eiDw2SdyNVHJPghsJ6bD-119" target="eiDw2SdyNVHJPghsJ6bD-154" edge="1">
          <mxGeometry width="50" height="50" relative="1" as="geometry">
            <mxPoint x="735" y="1100" as="sourcePoint" />
            <mxPoint x="700" y="930" as="targetPoint" />
          </mxGeometry>
        </mxCell>
        <mxCell id="eiDw2SdyNVHJPghsJ6bD-124" value="" style="endArrow=none;html=1;entryX=0.5;entryY=1;entryDx=0;entryDy=0;exitX=0.5;exitY=0;exitDx=0;exitDy=0;" parent="1" source="v93aDi29n5t1eOQIRRw4-6" target="eiDw2SdyNVHJPghsJ6bD-154" edge="1">
          <mxGeometry width="50" height="50" relative="1" as="geometry">
            <mxPoint x="780.6300000000001" y="950" as="sourcePoint" />
            <mxPoint x="700" y="930" as="targetPoint" />
          </mxGeometry>
        </mxCell>
        <mxCell id="eiDw2SdyNVHJPghsJ6bD-125" value="Mô tả" style="ellipse;whiteSpace=wrap;html=1;strokeColor=#000000;" parent="1" vertex="1">
          <mxGeometry x="820" y="1180" width="120" height="80" as="geometry" />
        </mxCell>
        <mxCell id="eiDw2SdyNVHJPghsJ6bD-126" value="Điểm" style="ellipse;whiteSpace=wrap;html=1;strokeColor=#000000;fillColor=#ffffff;" parent="1" vertex="1">
          <mxGeometry x="980" y="1180" width="120" height="80" as="geometry" />
        </mxCell>
        <mxCell id="eiDw2SdyNVHJPghsJ6bD-127" value="" style="endArrow=none;html=1;entryX=0.5;entryY=1;entryDx=0;entryDy=0;exitX=0.5;exitY=0;exitDx=0;exitDy=0;" parent="1" source="eiDw2SdyNVHJPghsJ6bD-125" edge="1">
          <mxGeometry width="50" height="50" relative="1" as="geometry">
            <mxPoint x="850" y="1200" as="sourcePoint" />
            <mxPoint x="935" y="1130.0000000000005" as="targetPoint" />
          </mxGeometry>
        </mxCell>
        <mxCell id="eiDw2SdyNVHJPghsJ6bD-128" value="" style="endArrow=none;html=1;exitX=0.5;exitY=0;exitDx=0;exitDy=0;" parent="1" source="eiDw2SdyNVHJPghsJ6bD-126" edge="1">
          <mxGeometry width="50" height="50" relative="1" as="geometry">
            <mxPoint x="850" y="1200" as="sourcePoint" />
            <mxPoint x="930" y="1130" as="targetPoint" />
          </mxGeometry>
        </mxCell>
        <mxCell id="eiDw2SdyNVHJPghsJ6bD-131" value="Kết quả đánh giá đối với tiêu chí" style="ellipse;whiteSpace=wrap;html=1;strokeColor=#000000;fillColor=#ffffff;" parent="1" vertex="1">
          <mxGeometry x="450" y="810" width="120" height="80" as="geometry" />
        </mxCell>
        <mxCell id="eiDw2SdyNVHJPghsJ6bD-132" value="" style="endArrow=none;html=1;entryX=0;entryY=0.5;entryDx=0;entryDy=0;exitX=1;exitY=0.5;exitDx=0;exitDy=0;" parent="1" source="eiDw2SdyNVHJPghsJ6bD-131" target="eiDw2SdyNVHJPghsJ6bD-156" edge="1">
          <mxGeometry width="50" height="50" relative="1" as="geometry">
            <mxPoint x="645" y="930" as="sourcePoint" />
            <mxPoint x="639.6924999999999" y="692.5" as="targetPoint" />
          </mxGeometry>
        </mxCell>
        <mxCell id="eiDw2SdyNVHJPghsJ6bD-133" value="Ghi chú cho tác giả" style="ellipse;whiteSpace=wrap;html=1;strokeColor=#000000;fillColor=#ffffff;" parent="1" vertex="1">
          <mxGeometry x="635" y="615" width="70" height="55" as="geometry" />
        </mxCell>
        <mxCell id="eiDw2SdyNVHJPghsJ6bD-141" value="Trạng thái xử lý" style="ellipse;whiteSpace=wrap;html=1;strokeColor=#000000;fillColor=#ffffff;" parent="1" vertex="1">
          <mxGeometry x="228.75" y="190" width="62.5" height="60" as="geometry" />
        </mxCell>
        <mxCell id="eiDw2SdyNVHJPghsJ6bD-143" value="Bài phản biện" style="rounded=0;whiteSpace=wrap;html=1;strokeColor=#b85450;fillColor=#f8cecc;" parent="1" vertex="1">
          <mxGeometry x="425" y="650" width="120" height="60" as="geometry" />
        </mxCell>
        <mxCell id="eiDw2SdyNVHJPghsJ6bD-151" value="" style="endArrow=none;html=1;entryX=0;entryY=1;entryDx=0;entryDy=0;exitX=1;exitY=0.5;exitDx=0;exitDy=0;" parent="1" source="iCLH5OQKp1aBjLCYg7CI-16" target="eiDw2SdyNVHJPghsJ6bD-31" edge="1">
          <mxGeometry width="50" height="50" relative="1" as="geometry">
            <mxPoint x="737.1799999999998" y="372.5" as="sourcePoint" />
            <mxPoint x="710" y="380" as="targetPoint" />
          </mxGeometry>
        </mxCell>
        <mxCell id="eiDw2SdyNVHJPghsJ6bD-154" value="Tiêu chí đánh giá" style="rounded=0;whiteSpace=wrap;html=1;strokeColor=#b85450;fillColor=#f8cecc;" parent="1" vertex="1">
          <mxGeometry x="631.25" y="850" width="120" height="60" as="geometry" />
        </mxCell>
        <mxCell id="eiDw2SdyNVHJPghsJ6bD-155" value="" style="endArrow=none;html=1;entryX=0;entryY=0.5;entryDx=0;entryDy=0;exitX=1;exitY=0.5;exitDx=0;exitDy=0;" parent="1" source="eiDw2SdyNVHJPghsJ6bD-143" target="eiDw2SdyNVHJPghsJ6bD-133" edge="1">
          <mxGeometry width="50" height="50" relative="1" as="geometry">
            <mxPoint x="558" y="510" as="sourcePoint" />
            <mxPoint x="640" y="550" as="targetPoint" />
          </mxGeometry>
        </mxCell>
        <mxCell id="eiDw2SdyNVHJPghsJ6bD-156" value="Có tiêu chí đánh giá" style="rhombus;whiteSpace=wrap;html=1;strokeColor=#d79b00;fillColor=#ffe6cc;" parent="1" vertex="1">
          <mxGeometry x="647.5" y="750" width="87.5" height="80" as="geometry" />
        </mxCell>
        <mxCell id="eiDw2SdyNVHJPghsJ6bD-157" value="" style="endArrow=none;html=1;entryX=0.5;entryY=1;entryDx=0;entryDy=0;exitX=0.5;exitY=0;exitDx=0;exitDy=0;" parent="1" source="eiDw2SdyNVHJPghsJ6bD-154" target="eiDw2SdyNVHJPghsJ6bD-156" edge="1">
          <mxGeometry width="50" height="50" relative="1" as="geometry">
            <mxPoint x="699" y="860" as="sourcePoint" />
            <mxPoint x="685" y="780" as="targetPoint" />
          </mxGeometry>
        </mxCell>
        <mxCell id="eiDw2SdyNVHJPghsJ6bD-161" value="" style="endArrow=none;html=1;entryX=0.5;entryY=1;entryDx=0;entryDy=0;exitX=0.03;exitY=0.465;exitDx=0;exitDy=0;exitPerimeter=0;" parent="1" source="eiDw2SdyNVHJPghsJ6bD-156" target="eiDw2SdyNVHJPghsJ6bD-143" edge="1">
          <mxGeometry width="50" height="50" relative="1" as="geometry">
            <mxPoint x="576" y="590" as="sourcePoint" />
            <mxPoint x="589.75" y="570" as="targetPoint" />
          </mxGeometry>
        </mxCell>
        <mxCell id="eiDw2SdyNVHJPghsJ6bD-162" value="" style="endArrow=none;html=1;entryX=0.454;entryY=1.004;entryDx=0;entryDy=0;entryPerimeter=0;exitX=0;exitY=0.5;exitDx=0;exitDy=0;" parent="1" source="eiDw2SdyNVHJPghsJ6bD-156" target="eiDw2SdyNVHJPghsJ6bD-143" edge="1">
          <mxGeometry width="50" height="50" relative="1" as="geometry">
            <mxPoint x="573" y="594" as="sourcePoint" />
            <mxPoint x="595.7200000000003" y="570" as="targetPoint" />
          </mxGeometry>
        </mxCell>
        <mxCell id="eiDw2SdyNVHJPghsJ6bD-164" value="Kết quả" style="ellipse;whiteSpace=wrap;html=1;strokeColor=#000000;fillColor=#ffffff;" parent="1" vertex="1">
          <mxGeometry x="390" y="190" width="67.5" height="50" as="geometry" />
        </mxCell>
        <mxCell id="WIPBF-BIMuHk1VfdhbWs-1" value="" style="verticalLabelPosition=bottom;verticalAlign=top;html=1;shape=mxgraph.basic.arc;startAngle=0.3;endAngle=0.1;direction=south;rotation=-130;" parent="1" vertex="1">
          <mxGeometry x="-15" y="505" width="30" height="30" as="geometry" />
        </mxCell>
        <mxCell id="WIPBF-BIMuHk1VfdhbWs-2" value="" style="verticalLabelPosition=bottom;verticalAlign=top;html=1;shape=mxgraph.basic.arc;startAngle=0.3;endAngle=0.1;rotation=-95;" parent="1" vertex="1">
          <mxGeometry x="80.62" y="506.16" width="27.46" height="35" as="geometry" />
        </mxCell>
        <mxCell id="WIPBF-BIMuHk1VfdhbWs-3" value="" style="verticalLabelPosition=bottom;verticalAlign=top;html=1;shape=mxgraph.basic.arc;startAngle=0.3;endAngle=0.1;rotation=-115;" parent="1" vertex="1">
          <mxGeometry x="161.97" y="495.72" width="27.95" height="26.31" as="geometry" />
        </mxCell>
        <mxCell id="WIPBF-BIMuHk1VfdhbWs-8" value="" style="verticalLabelPosition=bottom;verticalAlign=top;html=1;shape=mxgraph.basic.arc;startAngle=0.3;endAngle=0.943091627240748;rotation=40;" parent="1" vertex="1">
          <mxGeometry x="735" y="110" width="40" height="40" as="geometry" />
        </mxCell>
        <mxCell id="WIPBF-BIMuHk1VfdhbWs-11" value="" style="verticalLabelPosition=bottom;verticalAlign=top;html=1;shape=mxgraph.basic.arc;startAngle=0.3;endAngle=0.943091627240748;rotation=-45;" parent="1" vertex="1">
          <mxGeometry x="830" y="170" width="40" height="40" as="geometry" />
        </mxCell>
        <mxCell id="WIPBF-BIMuHk1VfdhbWs-13" value="" style="verticalLabelPosition=bottom;verticalAlign=top;html=1;shape=mxgraph.basic.arc;startAngle=0.3;endAngle=0.943091627240748;rotation=-10;" parent="1" vertex="1">
          <mxGeometry x="705" y="180" width="40" height="40" as="geometry" />
        </mxCell>
        <mxCell id="WIPBF-BIMuHk1VfdhbWs-14" value="Địa chỉ" style="ellipse;whiteSpace=wrap;html=1;" parent="1" vertex="1">
          <mxGeometry x="730" y="-350" width="120" height="80" as="geometry" />
        </mxCell>
        <mxCell id="WIPBF-BIMuHk1VfdhbWs-15" value="" style="endArrow=none;html=1;exitX=0.5;exitY=1;exitDx=0;exitDy=0;entryX=0.25;entryY=0;entryDx=0;entryDy=0;" parent="1" source="WIPBF-BIMuHk1VfdhbWs-14" target="eiDw2SdyNVHJPghsJ6bD-30" edge="1">
          <mxGeometry width="50" height="50" relative="1" as="geometry">
            <mxPoint x="720" y="20" as="sourcePoint" />
            <mxPoint x="770" y="-30" as="targetPoint" />
          </mxGeometry>
        </mxCell>
        <mxCell id="WIPBF-BIMuHk1VfdhbWs-16" value="" style="endArrow=none;html=1;exitX=0.5;exitY=1;exitDx=0;exitDy=0;entryX=0;entryY=0.5;entryDx=0;entryDy=0;" parent="1" source="eiDw2SdyNVHJPghsJ6bD-31" target="eiDw2SdyNVHJPghsJ6bD-57" edge="1">
          <mxGeometry width="50" height="50" relative="1" as="geometry">
            <mxPoint x="1270" y="-220" as="sourcePoint" />
            <mxPoint x="1320" y="-270" as="targetPoint" />
          </mxGeometry>
        </mxCell>
        <mxCell id="WIPBF-BIMuHk1VfdhbWs-17" value="Cơ quan công tác" style="ellipse;whiteSpace=wrap;html=1;" parent="1" vertex="1">
          <mxGeometry x="1160" y="-130" width="120" height="80" as="geometry" />
        </mxCell>
        <mxCell id="WIPBF-BIMuHk1VfdhbWs-18" value="" style="endArrow=none;html=1;exitX=1;exitY=0.25;exitDx=0;exitDy=0;entryX=0;entryY=0.5;entryDx=0;entryDy=0;" parent="1" source="eiDw2SdyNVHJPghsJ6bD-30" target="WIPBF-BIMuHk1VfdhbWs-17" edge="1">
          <mxGeometry width="50" height="50" relative="1" as="geometry">
            <mxPoint x="900" y="60" as="sourcePoint" />
            <mxPoint x="950" y="10" as="targetPoint" />
          </mxGeometry>
        </mxCell>
        <mxCell id="WIPBF-BIMuHk1VfdhbWs-19" value="Nghề" style="ellipse;whiteSpace=wrap;html=1;" parent="1" vertex="1">
          <mxGeometry x="1240" y="-20" width="120" height="80" as="geometry" />
        </mxCell>
        <mxCell id="WIPBF-BIMuHk1VfdhbWs-20" value="Điện thoại" style="ellipse;whiteSpace=wrap;html=1;" parent="1" vertex="1">
          <mxGeometry x="1280" y="100" width="120" height="80" as="geometry" />
        </mxCell>
        <mxCell id="WIPBF-BIMuHk1VfdhbWs-21" value="" style="endArrow=none;html=1;entryX=1;entryY=0.25;entryDx=0;entryDy=0;exitX=0;exitY=0.5;exitDx=0;exitDy=0;" parent="1" source="WIPBF-BIMuHk1VfdhbWs-19" target="eiDw2SdyNVHJPghsJ6bD-30" edge="1">
          <mxGeometry width="50" height="50" relative="1" as="geometry">
            <mxPoint x="900" y="140" as="sourcePoint" />
            <mxPoint x="950" y="90" as="targetPoint" />
          </mxGeometry>
        </mxCell>
        <mxCell id="WIPBF-BIMuHk1VfdhbWs-22" value="" style="endArrow=none;html=1;entryX=1;entryY=0.75;entryDx=0;entryDy=0;exitX=0;exitY=0.5;exitDx=0;exitDy=0;" parent="1" source="WIPBF-BIMuHk1VfdhbWs-20" target="eiDw2SdyNVHJPghsJ6bD-30" edge="1">
          <mxGeometry width="50" height="50" relative="1" as="geometry">
            <mxPoint x="900" y="140" as="sourcePoint" />
            <mxPoint x="950" y="90" as="targetPoint" />
          </mxGeometry>
        </mxCell>
        <mxCell id="WIPBF-BIMuHk1VfdhbWs-23" value="Họ và tên" style="ellipse;whiteSpace=wrap;html=1;" parent="1" vertex="1">
          <mxGeometry x="560" y="-330" width="120" height="80" as="geometry" />
        </mxCell>
        <mxCell id="WIPBF-BIMuHk1VfdhbWs-25" value="" style="endArrow=none;html=1;exitX=1;exitY=1;exitDx=0;exitDy=0;entryX=0;entryY=0;entryDx=0;entryDy=0;" parent="1" source="WIPBF-BIMuHk1VfdhbWs-23" target="eiDw2SdyNVHJPghsJ6bD-30" edge="1">
          <mxGeometry width="50" height="50" relative="1" as="geometry">
            <mxPoint x="1060" y="-10" as="sourcePoint" />
            <mxPoint x="1110" y="-60" as="targetPoint" />
          </mxGeometry>
        </mxCell>
        <mxCell id="WIPBF-BIMuHk1VfdhbWs-30" value="N" style="text;html=1;align=center;verticalAlign=middle;resizable=0;points=[];autosize=1;" parent="1" vertex="1">
          <mxGeometry x="264.3" y="15" width="20" height="20" as="geometry" />
        </mxCell>
        <mxCell id="WIPBF-BIMuHk1VfdhbWs-31" value="M" style="text;html=1;align=center;verticalAlign=middle;resizable=0;points=[];autosize=1;" parent="1" vertex="1">
          <mxGeometry x="165.55" y="47.5" width="30" height="20" as="geometry" />
        </mxCell>
        <mxCell id="WIPBF-BIMuHk1VfdhbWs-32" value="1" style="text;html=1;align=center;verticalAlign=middle;resizable=0;points=[];autosize=1;" parent="1" vertex="1">
          <mxGeometry x="235.55" y="-75" width="20" height="20" as="geometry" />
        </mxCell>
        <mxCell id="WIPBF-BIMuHk1VfdhbWs-33" value="N" style="text;html=1;align=center;verticalAlign=middle;resizable=0;points=[];autosize=1;" parent="1" vertex="1">
          <mxGeometry x="115.55" y="-55" width="20" height="20" as="geometry" />
        </mxCell>
        <mxCell id="WIPBF-BIMuHk1VfdhbWs-35" value="N" style="text;html=1;align=center;verticalAlign=middle;resizable=0;points=[];autosize=1;" parent="1" vertex="1">
          <mxGeometry x="675" y="830" width="20" height="20" as="geometry" />
        </mxCell>
        <mxCell id="WIPBF-BIMuHk1VfdhbWs-36" value="M" style="text;html=1;align=center;verticalAlign=middle;resizable=0;points=[];autosize=1;" parent="1" vertex="1">
          <mxGeometry x="630" y="760" width="30" height="20" as="geometry" />
        </mxCell>
        <mxCell id="WIPBF-BIMuHk1VfdhbWs-37" value="1" style="text;html=1;align=center;verticalAlign=middle;resizable=0;points=[];autosize=1;" parent="1" vertex="1">
          <mxGeometry x="270" y="760" width="20" height="20" as="geometry" />
        </mxCell>
        <mxCell id="WIPBF-BIMuHk1VfdhbWs-38" value="N" style="text;html=1;align=center;verticalAlign=middle;resizable=0;points=[];autosize=1;" parent="1" vertex="1">
          <mxGeometry x="189.92" y="670" width="20" height="20" as="geometry" />
        </mxCell>
        <mxCell id="WIPBF-BIMuHk1VfdhbWs-39" value="Ngày thông báo đến tác giả" style="ellipse;whiteSpace=wrap;html=1;" parent="1" vertex="1">
          <mxGeometry x="308.75" y="90" width="82.5" height="70" as="geometry" />
        </mxCell>
        <mxCell id="WIPBF-BIMuHk1VfdhbWs-40" value="" style="endArrow=none;html=1;exitX=0.5;exitY=0;exitDx=0;exitDy=0;entryX=0.296;entryY=0.973;entryDx=0;entryDy=0;entryPerimeter=0;" parent="1" source="eiDw2SdyNVHJPghsJ6bD-164" target="WIPBF-BIMuHk1VfdhbWs-39" edge="1">
          <mxGeometry width="50" height="50" relative="1" as="geometry">
            <mxPoint x="235" y="-130" as="sourcePoint" />
            <mxPoint x="285" y="-180" as="targetPoint" />
          </mxGeometry>
        </mxCell>
        <mxCell id="WIPBF-BIMuHk1VfdhbWs-41" value="Nội dung" style="ellipse;whiteSpace=wrap;html=1;" parent="1" vertex="1">
          <mxGeometry x="228.75" y="120" width="80" height="50" as="geometry" />
        </mxCell>
        <mxCell id="WIPBF-BIMuHk1VfdhbWs-42" value="" style="endArrow=none;html=1;exitX=0.5;exitY=0;exitDx=0;exitDy=0;entryX=0.418;entryY=0.995;entryDx=0;entryDy=0;entryPerimeter=0;" parent="1" source="eiDw2SdyNVHJPghsJ6bD-164" target="WIPBF-BIMuHk1VfdhbWs-41" edge="1">
          <mxGeometry width="50" height="50" relative="1" as="geometry">
            <mxPoint x="235" y="-130" as="sourcePoint" />
            <mxPoint x="285" y="-180" as="targetPoint" />
          </mxGeometry>
        </mxCell>
        <mxCell id="WIPBF-BIMuHk1VfdhbWs-46" value="Bài báo xuất bản" style="rounded=0;whiteSpace=wrap;html=1;fillColor=#f8cecc;strokeColor=#b85450;" parent="1" vertex="1">
          <mxGeometry x="-600" y="170" width="120" height="60" as="geometry" />
        </mxCell>
        <mxCell id="WIPBF-BIMuHk1VfdhbWs-47" value="được xuất bản" style="rhombus;whiteSpace=wrap;html=1;fillColor=#ffe6cc;strokeColor=#d79b00;" parent="1" vertex="1">
          <mxGeometry x="-395" y="150" width="140" height="120" as="geometry" />
        </mxCell>
        <mxCell id="WIPBF-BIMuHk1VfdhbWs-48" value="" style="endArrow=none;html=1;entryX=0;entryY=0.5;entryDx=0;entryDy=0;exitX=1;exitY=0.5;exitDx=0;exitDy=0;" parent="1" source="WIPBF-BIMuHk1VfdhbWs-47" target="eiDw2SdyNVHJPghsJ6bD-1" edge="1">
          <mxGeometry width="50" height="50" relative="1" as="geometry">
            <mxPoint x="-120" y="290" as="sourcePoint" />
            <mxPoint x="-70" y="240" as="targetPoint" />
          </mxGeometry>
        </mxCell>
        <mxCell id="WIPBF-BIMuHk1VfdhbWs-49" value="" style="endArrow=none;html=1;entryX=0;entryY=0.5;entryDx=0;entryDy=0;exitX=1;exitY=0.5;exitDx=0;exitDy=0;" parent="1" source="WIPBF-BIMuHk1VfdhbWs-46" target="WIPBF-BIMuHk1VfdhbWs-47" edge="1">
          <mxGeometry width="50" height="50" relative="1" as="geometry">
            <mxPoint x="-120" y="290" as="sourcePoint" />
            <mxPoint x="-70" y="240" as="targetPoint" />
          </mxGeometry>
        </mxCell>
        <mxCell id="WIPBF-BIMuHk1VfdhbWs-50" value="Nhà xuất bản" style="ellipse;whiteSpace=wrap;html=1;" parent="1" vertex="1">
          <mxGeometry x="-690" y="30" width="120" height="80" as="geometry" />
        </mxCell>
        <mxCell id="WIPBF-BIMuHk1VfdhbWs-52" value="" style="endArrow=none;html=1;exitX=0;exitY=0.5;exitDx=0;exitDy=0;entryX=0.5;entryY=1;entryDx=0;entryDy=0;" parent="1" source="WIPBF-BIMuHk1VfdhbWs-46" target="WIPBF-BIMuHk1VfdhbWs-50" edge="1">
          <mxGeometry width="50" height="50" relative="1" as="geometry">
            <mxPoint x="-260" y="170" as="sourcePoint" />
            <mxPoint x="-210" y="120" as="targetPoint" />
          </mxGeometry>
        </mxCell>
        <mxCell id="WIPBF-BIMuHk1VfdhbWs-53" value="1" style="text;html=1;align=center;verticalAlign=middle;resizable=0;points=[];autosize=1;" parent="1" vertex="1">
          <mxGeometry x="-410" y="180" width="20" height="20" as="geometry" />
        </mxCell>
        <mxCell id="WIPBF-BIMuHk1VfdhbWs-54" value="1" style="text;html=1;align=center;verticalAlign=middle;resizable=0;points=[];autosize=1;" parent="1" vertex="1">
          <mxGeometry x="-260" y="190" width="20" height="20" as="geometry" />
        </mxCell>
        <mxCell id="BETedTe-KKFlbuXkZifq-1" value="" style="endArrow=none;html=1;entryX=1.003;entryY=0.582;entryDx=0;entryDy=0;exitX=0.047;exitY=0.547;exitDx=0;exitDy=0;entryPerimeter=0;exitPerimeter=0;" parent="1" source="eiDw2SdyNVHJPghsJ6bD-92" target="eiDw2SdyNVHJPghsJ6bD-1" edge="1">
          <mxGeometry width="50" height="50" relative="1" as="geometry">
            <mxPoint x="287.5" y="315" as="sourcePoint" />
            <mxPoint x="100" y="290" as="targetPoint" />
          </mxGeometry>
        </mxCell>
        <mxCell id="BETedTe-KKFlbuXkZifq-2" value="Ghi chú cho ban biên tập" style="ellipse;whiteSpace=wrap;html=1;" parent="1" vertex="1">
          <mxGeometry x="615" y="541.16" width="90" height="60" as="geometry" />
        </mxCell>
        <mxCell id="BETedTe-KKFlbuXkZifq-3" value="" style="endArrow=none;html=1;exitX=1;exitY=0.5;exitDx=0;exitDy=0;entryX=0;entryY=0.5;entryDx=0;entryDy=0;" parent="1" source="eiDw2SdyNVHJPghsJ6bD-143" target="BETedTe-KKFlbuXkZifq-2" edge="1">
          <mxGeometry width="50" height="50" relative="1" as="geometry">
            <mxPoint x="665" y="580" as="sourcePoint" />
            <mxPoint x="715" y="530" as="targetPoint" />
          </mxGeometry>
        </mxCell>
        <mxCell id="BETedTe-KKFlbuXkZifq-4" value="Các chi tiết khác" style="ellipse;whiteSpace=wrap;html=1;" parent="1" vertex="1">
          <mxGeometry x="410" y="110" width="80" height="60" as="geometry" />
        </mxCell>
        <mxCell id="BETedTe-KKFlbuXkZifq-5" value="" style="endArrow=none;html=1;exitX=0;exitY=0.5;exitDx=0;exitDy=0;entryX=0.5;entryY=0;entryDx=0;entryDy=0;" parent="1" source="BETedTe-KKFlbuXkZifq-4" target="eiDw2SdyNVHJPghsJ6bD-164" edge="1">
          <mxGeometry width="50" height="50" relative="1" as="geometry">
            <mxPoint x="25" y="-100" as="sourcePoint" />
            <mxPoint x="75" y="-150" as="targetPoint" />
          </mxGeometry>
        </mxCell>
        <mxCell id="BETedTe-KKFlbuXkZifq-6" value="&lt;u&gt;CMND/CCCD&lt;/u&gt;" style="ellipse;whiteSpace=wrap;html=1;" parent="1" vertex="1">
          <mxGeometry x="510" y="-210" width="120" height="80" as="geometry" />
        </mxCell>
        <mxCell id="BETedTe-KKFlbuXkZifq-7" value="" style="endArrow=none;html=1;entryX=1;entryY=0.5;entryDx=0;entryDy=0;" parent="1" target="BETedTe-KKFlbuXkZifq-6" edge="1">
          <mxGeometry width="50" height="50" relative="1" as="geometry">
            <mxPoint x="780" y="-80" as="sourcePoint" />
            <mxPoint x="830" y="-130" as="targetPoint" />
          </mxGeometry>
        </mxCell>
        <mxCell id="BETedTe-KKFlbuXkZifq-17" value="" style="endArrow=none;html=1;entryX=1;entryY=0.5;entryDx=0;entryDy=0;exitX=0;exitY=0.5;exitDx=0;exitDy=0;" parent="1" source="WIPBF-BIMuHk1VfdhbWs-46" target="eiDw2SdyNVHJPghsJ6bD-110" edge="1">
          <mxGeometry width="50" height="50" relative="1" as="geometry">
            <mxPoint x="-400" y="240" as="sourcePoint" />
            <mxPoint x="-490" y="120" as="targetPoint" />
          </mxGeometry>
        </mxCell>
        <mxCell id="BETedTe-KKFlbuXkZifq-18" value="Nội dung bài phản biện" style="ellipse;whiteSpace=wrap;html=1;" parent="1" vertex="1">
          <mxGeometry x="630" y="690" width="80" height="50" as="geometry" />
        </mxCell>
        <mxCell id="BETedTe-KKFlbuXkZifq-19" value="" style="endArrow=none;html=1;exitX=1;exitY=0.5;exitDx=0;exitDy=0;entryX=0;entryY=0.5;entryDx=0;entryDy=0;" parent="1" source="eiDw2SdyNVHJPghsJ6bD-143" target="BETedTe-KKFlbuXkZifq-18" edge="1">
          <mxGeometry width="50" height="50" relative="1" as="geometry">
            <mxPoint x="580" y="580" as="sourcePoint" />
            <mxPoint x="630" y="530" as="targetPoint" />
          </mxGeometry>
        </mxCell>
        <mxCell id="v93aDi29n5t1eOQIRRw4-1" value="Dạng xuất bản" style="ellipse;whiteSpace=wrap;html=1;" parent="1" vertex="1">
          <mxGeometry x="-780" y="170" width="120" height="80" as="geometry" />
        </mxCell>
        <mxCell id="v93aDi29n5t1eOQIRRw4-2" value="" style="endArrow=none;html=1;entryX=0;entryY=0.5;entryDx=0;entryDy=0;exitX=1;exitY=0.5;exitDx=0;exitDy=0;" parent="1" source="v93aDi29n5t1eOQIRRw4-1" target="WIPBF-BIMuHk1VfdhbWs-46" edge="1">
          <mxGeometry width="50" height="50" relative="1" as="geometry">
            <mxPoint x="-640" y="290" as="sourcePoint" />
            <mxPoint x="-590" y="240" as="targetPoint" />
          </mxGeometry>
        </mxCell>
        <mxCell id="v93aDi29n5t1eOQIRRw4-3" value="" style="endArrow=none;html=1;entryX=0.815;entryY=0.991;entryDx=0;entryDy=0;entryPerimeter=0;exitX=0.5;exitY=0;exitDx=0;exitDy=0;" parent="1" edge="1">
          <mxGeometry width="50" height="50" relative="1" as="geometry">
            <mxPoint x="75" y="410.54" as="sourcePoint" />
            <mxPoint x="62.800000000000175" y="310.00000000000006" as="targetPoint" />
          </mxGeometry>
        </mxCell>
        <mxCell id="v93aDi29n5t1eOQIRRw4-4" value="Mức đánh giá" style="rounded=0;whiteSpace=wrap;html=1;fillColor=#f8cecc;strokeColor=#b85450;" parent="1" vertex="1">
          <mxGeometry x="883.13" y="1070" width="120" height="60" as="geometry" />
        </mxCell>
        <mxCell id="v93aDi29n5t1eOQIRRw4-5" value="" style="rounded=0;whiteSpace=wrap;html=1;fillColor=none;" parent="1" vertex="1">
          <mxGeometry x="890" y="1075" width="103.75" height="50" as="geometry" />
        </mxCell>
        <mxCell id="v93aDi29n5t1eOQIRRw4-6" value="Có mức đánh giá" style="rhombus;whiteSpace=wrap;html=1;fillColor=#fff2cc;strokeColor=#d6b656;" parent="1" vertex="1">
          <mxGeometry x="715" y="958.75" width="120" height="100" as="geometry" />
        </mxCell>
        <mxCell id="v93aDi29n5t1eOQIRRw4-7" value="" style="rhombus;whiteSpace=wrap;html=1;fillColor=none;" parent="1" vertex="1">
          <mxGeometry x="720" y="963.75" width="110" height="90" as="geometry" />
        </mxCell>
        <mxCell id="v93aDi29n5t1eOQIRRw4-9" value="" style="endArrow=none;html=1;exitX=0.5;exitY=0;exitDx=0;exitDy=0;entryX=0.5;entryY=1;entryDx=0;entryDy=0;" parent="1" source="v93aDi29n5t1eOQIRRw4-4" target="v93aDi29n5t1eOQIRRw4-6" edge="1">
          <mxGeometry width="50" height="50" relative="1" as="geometry">
            <mxPoint x="535" y="898.75" as="sourcePoint" />
            <mxPoint x="585" y="848.75" as="targetPoint" />
          </mxGeometry>
        </mxCell>
        <mxCell id="v93aDi29n5t1eOQIRRw4-10" value="Biên tập bởi" style="rhombus;whiteSpace=wrap;html=1;fillColor=#fff2cc;strokeColor=#d6b656;" parent="1" vertex="1">
          <mxGeometry x="400" y="260" width="80" height="80" as="geometry" />
        </mxCell>
        <mxCell id="v93aDi29n5t1eOQIRRw4-12" value="" style="endArrow=none;html=1;exitX=1;exitY=0.5;exitDx=0;exitDy=0;entryX=0;entryY=0.5;entryDx=0;entryDy=0;" parent="1" source="v93aDi29n5t1eOQIRRw4-10" target="eiDw2SdyNVHJPghsJ6bD-32" edge="1">
          <mxGeometry width="50" height="50" relative="1" as="geometry">
            <mxPoint x="580" y="400" as="sourcePoint" />
            <mxPoint x="630" y="350" as="targetPoint" />
          </mxGeometry>
        </mxCell>
        <mxCell id="v93aDi29n5t1eOQIRRw4-13" value="" style="endArrow=none;html=1;entryX=1;entryY=0.75;entryDx=0;entryDy=0;exitX=0.069;exitY=0.568;exitDx=0;exitDy=0;exitPerimeter=0;" parent="1" source="v93aDi29n5t1eOQIRRw4-10" target="eiDw2SdyNVHJPghsJ6bD-1" edge="1">
          <mxGeometry width="50" height="50" relative="1" as="geometry">
            <mxPoint x="280" y="450" as="sourcePoint" />
            <mxPoint x="330" y="400" as="targetPoint" />
          </mxGeometry>
        </mxCell>
        <mxCell id="v93aDi29n5t1eOQIRRw4-14" value="" style="endArrow=none;html=1;entryX=1.008;entryY=0.676;entryDx=0;entryDy=0;entryPerimeter=0;exitX=0;exitY=0.5;exitDx=0;exitDy=0;" parent="1" source="v93aDi29n5t1eOQIRRw4-10" target="eiDw2SdyNVHJPghsJ6bD-1" edge="1">
          <mxGeometry width="50" height="50" relative="1" as="geometry">
            <mxPoint x="280" y="450" as="sourcePoint" />
            <mxPoint x="330" y="400" as="targetPoint" />
          </mxGeometry>
        </mxCell>
        <mxCell id="v93aDi29n5t1eOQIRRw4-15" value="N" style="text;html=1;align=center;verticalAlign=middle;resizable=0;points=[];autosize=1;" parent="1" vertex="1">
          <mxGeometry x="390" y="280" width="20" height="20" as="geometry" />
        </mxCell>
        <mxCell id="v93aDi29n5t1eOQIRRw4-16" value="1" style="text;html=1;align=center;verticalAlign=middle;resizable=0;points=[];autosize=1;" parent="1" vertex="1">
          <mxGeometry x="470" y="280" width="20" height="20" as="geometry" />
        </mxCell>
        <mxCell id="v93aDi29n5t1eOQIRRw4-19" value="" style="endArrow=none;html=1;exitX=0.997;exitY=0.53;exitDx=0;exitDy=0;exitPerimeter=0;entryX=0.044;entryY=0.54;entryDx=0;entryDy=0;entryPerimeter=0;" parent="1" source="WIPBF-BIMuHk1VfdhbWs-46" target="WIPBF-BIMuHk1VfdhbWs-47" edge="1">
          <mxGeometry width="50" height="50" relative="1" as="geometry">
            <mxPoint x="-480" y="240" as="sourcePoint" />
            <mxPoint x="-430" y="190" as="targetPoint" />
          </mxGeometry>
        </mxCell>
        <mxCell id="v93aDi29n5t1eOQIRRw4-20" value="Ngày phân công phản biện" style="ellipse;whiteSpace=wrap;html=1;" parent="1" vertex="1">
          <mxGeometry x="515" y="380" width="90" height="60" as="geometry" />
        </mxCell>
        <mxCell id="v93aDi29n5t1eOQIRRw4-21" value="" style="endArrow=none;html=1;exitX=0.5;exitY=1;exitDx=0;exitDy=0;" parent="1" source="iCLH5OQKp1aBjLCYg7CI-3" target="v93aDi29n5t1eOQIRRw4-20" edge="1">
          <mxGeometry width="50" height="50" relative="1" as="geometry">
            <mxPoint x="540" y="680" as="sourcePoint" />
            <mxPoint x="590" y="630" as="targetPoint" />
          </mxGeometry>
        </mxCell>
        <mxCell id="v93aDi29n5t1eOQIRRw4-22" value="Hạn gởi phản biện" style="ellipse;whiteSpace=wrap;html=1;" parent="1" vertex="1">
          <mxGeometry x="341.87999999999994" y="415" width="83.12" height="50" as="geometry" />
        </mxCell>
        <mxCell id="v93aDi29n5t1eOQIRRw4-23" value="" style="endArrow=none;html=1;entryX=0.5;entryY=1;entryDx=0;entryDy=0;" parent="1" source="v93aDi29n5t1eOQIRRw4-22" target="iCLH5OQKp1aBjLCYg7CI-3" edge="1">
          <mxGeometry width="50" height="50" relative="1" as="geometry">
            <mxPoint x="540" y="680" as="sourcePoint" />
            <mxPoint x="590" y="630" as="targetPoint" />
          </mxGeometry>
        </mxCell>
        <mxCell id="v93aDi29n5t1eOQIRRw4-24" value="Kết quả phản biện" style="ellipse;whiteSpace=wrap;html=1;fillColor=#ffffff;" parent="1" vertex="1">
          <mxGeometry x="450" y="435" width="80" height="50" as="geometry" />
        </mxCell>
        <mxCell id="v93aDi29n5t1eOQIRRw4-26" value="Các kết quả phản biện" style="ellipse;whiteSpace=wrap;html=1;fillColor=#ffffff;dashed=1;" parent="1" vertex="1">
          <mxGeometry x="490" y="157.5" width="70" height="60" as="geometry" />
        </mxCell>
        <mxCell id="v93aDi29n5t1eOQIRRw4-27" value="" style="endArrow=none;html=1;entryX=0.5;entryY=0;entryDx=0;entryDy=0;exitX=0;exitY=0.5;exitDx=0;exitDy=0;" parent="1" source="v93aDi29n5t1eOQIRRw4-26" target="eiDw2SdyNVHJPghsJ6bD-164" edge="1">
          <mxGeometry width="50" height="50" relative="1" as="geometry">
            <mxPoint x="75" y="-130" as="sourcePoint" />
            <mxPoint x="125" y="-180" as="targetPoint" />
          </mxGeometry>
        </mxCell>
        <mxCell id="v93aDi29n5t1eOQIRRw4-30" value="Ngày xuất bản" style="ellipse;whiteSpace=wrap;html=1;fillColor=#ffffff;" parent="1" vertex="1">
          <mxGeometry x="-720" y="280" width="120" height="80" as="geometry" />
        </mxCell>
        <mxCell id="v93aDi29n5t1eOQIRRw4-31" value="" style="endArrow=none;html=1;exitX=0.5;exitY=0;exitDx=0;exitDy=0;entryX=0;entryY=0.5;entryDx=0;entryDy=0;" parent="1" source="v93aDi29n5t1eOQIRRw4-30" target="WIPBF-BIMuHk1VfdhbWs-46" edge="1">
          <mxGeometry width="50" height="50" relative="1" as="geometry">
            <mxPoint x="-670" y="270" as="sourcePoint" />
            <mxPoint x="-620" y="220" as="targetPoint" />
          </mxGeometry>
        </mxCell>
        <mxCell id="iCLH5OQKp1aBjLCYg7CI-3" value="Phân công phản biện" style="rhombus;whiteSpace=wrap;html=1;fillColor=#fff2cc;strokeColor=#d6b656;" parent="1" vertex="1">
          <mxGeometry x="425" y="340" width="80" height="80" as="geometry" />
        </mxCell>
        <mxCell id="iCLH5OQKp1aBjLCYg7CI-4" value="" style="endArrow=none;html=1;exitX=1;exitY=0.75;exitDx=0;exitDy=0;entryX=0;entryY=0.5;entryDx=0;entryDy=0;" parent="1" source="eiDw2SdyNVHJPghsJ6bD-1" target="iCLH5OQKp1aBjLCYg7CI-3" edge="1">
          <mxGeometry width="50" height="50" relative="1" as="geometry">
            <mxPoint x="400" y="350" as="sourcePoint" />
            <mxPoint x="450" y="300" as="targetPoint" />
          </mxGeometry>
        </mxCell>
        <mxCell id="iCLH5OQKp1aBjLCYg7CI-5" value="" style="endArrow=none;html=1;exitX=0.992;exitY=0.65;exitDx=0;exitDy=0;exitPerimeter=0;entryX=0.074;entryY=0.441;entryDx=0;entryDy=0;entryPerimeter=0;" parent="1" source="eiDw2SdyNVHJPghsJ6bD-1" target="iCLH5OQKp1aBjLCYg7CI-3" edge="1">
          <mxGeometry width="50" height="50" relative="1" as="geometry">
            <mxPoint x="400" y="350" as="sourcePoint" />
            <mxPoint x="413" y="389" as="targetPoint" />
          </mxGeometry>
        </mxCell>
        <mxCell id="iCLH5OQKp1aBjLCYg7CI-6" value="" style="endArrow=none;html=1;exitX=1;exitY=0.5;exitDx=0;exitDy=0;entryX=0;entryY=1;entryDx=0;entryDy=0;" parent="1" source="iCLH5OQKp1aBjLCYg7CI-3" target="eiDw2SdyNVHJPghsJ6bD-31" edge="1">
          <mxGeometry width="50" height="50" relative="1" as="geometry">
            <mxPoint x="640" y="390" as="sourcePoint" />
            <mxPoint x="690" y="340" as="targetPoint" />
          </mxGeometry>
        </mxCell>
        <mxCell id="iCLH5OQKp1aBjLCYg7CI-7" value="" style="endArrow=none;html=1;exitX=0.5;exitY=0;exitDx=0;exitDy=0;entryX=0;entryY=0.5;entryDx=0;entryDy=0;" parent="1" source="iCLH5OQKp1aBjLCYg7CI-3" target="eiDw2SdyNVHJPghsJ6bD-32" edge="1">
          <mxGeometry width="50" height="50" relative="1" as="geometry">
            <mxPoint x="570" y="390" as="sourcePoint" />
            <mxPoint x="620" y="340" as="targetPoint" />
          </mxGeometry>
        </mxCell>
        <mxCell id="iCLH5OQKp1aBjLCYg7CI-10" value="" style="endArrow=none;html=1;exitX=0.5;exitY=0;exitDx=0;exitDy=0;entryX=1;entryY=0.5;entryDx=0;entryDy=0;" parent="1" source="v93aDi29n5t1eOQIRRw4-10" target="eiDw2SdyNVHJPghsJ6bD-141" edge="1">
          <mxGeometry width="50" height="50" relative="1" as="geometry">
            <mxPoint x="140" y="180" as="sourcePoint" />
            <mxPoint x="190" y="130" as="targetPoint" />
          </mxGeometry>
        </mxCell>
        <mxCell id="iCLH5OQKp1aBjLCYg7CI-11" value="" style="endArrow=none;html=1;entryX=0.5;entryY=1;entryDx=0;entryDy=0;exitX=0.5;exitY=0;exitDx=0;exitDy=0;" parent="1" source="v93aDi29n5t1eOQIRRw4-24" target="iCLH5OQKp1aBjLCYg7CI-3" edge="1">
          <mxGeometry width="50" height="50" relative="1" as="geometry">
            <mxPoint x="470" y="500" as="sourcePoint" />
            <mxPoint x="520" y="450" as="targetPoint" />
          </mxGeometry>
        </mxCell>
        <mxCell id="iCLH5OQKp1aBjLCYg7CI-12" value="" style="endArrow=none;html=1;entryX=0.5;entryY=1;entryDx=0;entryDy=0;exitX=0.5;exitY=0;exitDx=0;exitDy=0;" parent="1" source="v93aDi29n5t1eOQIRRw4-10" target="eiDw2SdyNVHJPghsJ6bD-164" edge="1">
          <mxGeometry width="50" height="50" relative="1" as="geometry">
            <mxPoint x="330" y="240" as="sourcePoint" />
            <mxPoint x="380" y="190" as="targetPoint" />
          </mxGeometry>
        </mxCell>
        <mxCell id="iCLH5OQKp1aBjLCYg7CI-16" value="Phản biện cho" style="rhombus;whiteSpace=wrap;html=1;fillColor=#fff2cc;strokeColor=#d6b656;" parent="1" vertex="1">
          <mxGeometry x="420" y="530" width="95" height="77.5" as="geometry" />
        </mxCell>
        <mxCell id="iCLH5OQKp1aBjLCYg7CI-18" value="N" style="text;html=1;align=center;verticalAlign=middle;resizable=0;points=[];autosize=1;" parent="1" vertex="1">
          <mxGeometry x="400" y="380" width="20" height="20" as="geometry" />
        </mxCell>
        <mxCell id="iCLH5OQKp1aBjLCYg7CI-19" value="M" style="text;html=1;align=center;verticalAlign=middle;resizable=0;points=[];autosize=1;" parent="1" vertex="1">
          <mxGeometry x="495" y="360" width="30" height="20" as="geometry" />
        </mxCell>
        <mxCell id="iCLH5OQKp1aBjLCYg7CI-20" value="1" style="text;html=1;align=center;verticalAlign=middle;resizable=0;points=[];autosize=1;" parent="1" vertex="1">
          <mxGeometry x="480" y="320" width="20" height="20" as="geometry" />
        </mxCell>
        <mxCell id="iCLH5OQKp1aBjLCYg7CI-21" value="" style="rhombus;whiteSpace=wrap;html=1;fillColor=none;" parent="1" vertex="1">
          <mxGeometry x="425" y="533.17" width="85" height="71.16" as="geometry" />
        </mxCell>
        <mxCell id="iCLH5OQKp1aBjLCYg7CI-22" value="" style="rounded=0;whiteSpace=wrap;html=1;fillColor=none;" parent="1" vertex="1">
          <mxGeometry x="430" y="655" width="110" height="50" as="geometry" />
        </mxCell>
        <mxCell id="iCLH5OQKp1aBjLCYg7CI-24" value="" style="endArrow=none;html=1;exitX=0.5;exitY=0;exitDx=0;exitDy=0;entryX=0.5;entryY=1;entryDx=0;entryDy=0;" parent="1" source="eiDw2SdyNVHJPghsJ6bD-143" target="iCLH5OQKp1aBjLCYg7CI-16" edge="1">
          <mxGeometry width="50" height="50" relative="1" as="geometry">
            <mxPoint x="520" y="650" as="sourcePoint" />
            <mxPoint x="468" y="604" as="targetPoint" />
          </mxGeometry>
        </mxCell>
        <mxCell id="iCLH5OQKp1aBjLCYg7CI-25" value="" style="endArrow=none;html=1;exitX=0.475;exitY=0.006;exitDx=0;exitDy=0;exitPerimeter=0;entryX=0.456;entryY=0.953;entryDx=0;entryDy=0;entryPerimeter=0;" parent="1" source="eiDw2SdyNVHJPghsJ6bD-143" target="iCLH5OQKp1aBjLCYg7CI-16" edge="1">
          <mxGeometry width="50" height="50" relative="1" as="geometry">
            <mxPoint x="440" y="670" as="sourcePoint" />
            <mxPoint x="466" y="604" as="targetPoint" />
          </mxGeometry>
        </mxCell>
        <mxCell id="iCLH5OQKp1aBjLCYg7CI-26" value="(0,*)" style="text;html=1;align=center;verticalAlign=middle;resizable=0;points=[];autosize=1;" parent="1" vertex="1">
          <mxGeometry x="390" y="520" width="40" height="20" as="geometry" />
        </mxCell>
        <mxCell id="iCLH5OQKp1aBjLCYg7CI-27" value="(0,*)" style="text;html=1;align=center;verticalAlign=middle;resizable=0;points=[];autosize=1;" parent="1" vertex="1">
          <mxGeometry x="530" y="550" width="40" height="20" as="geometry" />
        </mxCell>
        <mxCell id="iCLH5OQKp1aBjLCYg7CI-28" value="(1,1)" style="text;html=1;align=center;verticalAlign=middle;resizable=0;points=[];autosize=1;" parent="1" vertex="1">
          <mxGeometry x="470" y="610" width="40" height="20" as="geometry" />
        </mxCell>
        <mxCell id="iCLH5OQKp1aBjLCYg7CI-29" value="1" style="text;html=1;align=center;verticalAlign=middle;resizable=0;points=[];autosize=1;" parent="1" vertex="1">
          <mxGeometry x="760" y="930" width="20" height="20" as="geometry" />
        </mxCell>
        <mxCell id="iCLH5OQKp1aBjLCYg7CI-30" value="N" style="text;html=1;align=center;verticalAlign=middle;resizable=0;points=[];autosize=1;" parent="1" vertex="1">
          <mxGeometry x="780" y="1060" width="20" height="20" as="geometry" />
        </mxCell>
        <mxCell id="HLK9VEljnOpNQgB7L3_3-1" value="Chiều dài" style="ellipse;whiteSpace=wrap;html=1;strokeColor=#000000;fillColor=#ffffff;" parent="1" vertex="1">
          <mxGeometry x="15.000000000000014" y="695" width="65" height="40" as="geometry" />
        </mxCell>
        <mxCell id="HLK9VEljnOpNQgB7L3_3-2" value="" style="endArrow=none;html=1;exitX=0.5;exitY=1;exitDx=0;exitDy=0;" parent="1" source="eiDw2SdyNVHJPghsJ6bD-18" target="HLK9VEljnOpNQgB7L3_3-1" edge="1">
          <mxGeometry width="50" height="50" relative="1" as="geometry">
            <mxPoint x="115.55000000000001" y="655" as="sourcePoint" />
            <mxPoint x="405.55" y="595" as="targetPoint" />
          </mxGeometry>
        </mxCell>
        <mxCell id="HLK9VEljnOpNQgB7L3_3-3" value="Chiều dài" style="ellipse;whiteSpace=wrap;html=1;strokeColor=#000000;fillColor=#ffffff;" parent="1" vertex="1">
          <mxGeometry x="308.75" y="710" width="65" height="40" as="geometry" />
        </mxCell>
        <mxCell id="HLK9VEljnOpNQgB7L3_3-4" value="" style="endArrow=none;html=1;exitX=0.5;exitY=1;exitDx=0;exitDy=0;" parent="1" source="eiDw2SdyNVHJPghsJ6bD-24" target="HLK9VEljnOpNQgB7L3_3-3" edge="1">
          <mxGeometry width="50" height="50" relative="1" as="geometry">
            <mxPoint x="508.75" y="670" as="sourcePoint" />
            <mxPoint x="798.75" y="610" as="targetPoint" />
          </mxGeometry>
        </mxCell>
        <mxCell id="HLK9VEljnOpNQgB7L3_3-5" value="Email" style="ellipse;whiteSpace=wrap;html=1;strokeColor=#000000;fillColor=#ffffff;" parent="1" vertex="1">
          <mxGeometry x="457.5" y="-40" width="120" height="80" as="geometry" />
        </mxCell>
        <mxCell id="HLK9VEljnOpNQgB7L3_3-6" value="" style="endArrow=none;html=1;entryX=0.5;entryY=1;entryDx=0;entryDy=0;exitX=0.5;exitY=0;exitDx=0;exitDy=0;" parent="1" source="eiDw2SdyNVHJPghsJ6bD-3" target="HLK9VEljnOpNQgB7L3_3-5" edge="1">
          <mxGeometry width="50" height="50" relative="1" as="geometry">
            <mxPoint x="1030" y="230" as="sourcePoint" />
            <mxPoint x="1080" y="180" as="targetPoint" />
          </mxGeometry>
        </mxCell>
        <mxCell id="HLK9VEljnOpNQgB7L3_3-7" value="" style="endArrow=none;html=1;exitX=0;exitY=0;exitDx=0;exitDy=0;entryX=0;entryY=0.5;entryDx=0;entryDy=0;" parent="1" source="HLK9VEljnOpNQgB7L3_3-8" target="eiDw2SdyNVHJPghsJ6bD-32" edge="1">
          <mxGeometry width="50" height="50" relative="1" as="geometry">
            <mxPoint x="670" y="300" as="sourcePoint" />
            <mxPoint x="720" y="250" as="targetPoint" />
          </mxGeometry>
        </mxCell>
        <mxCell id="HLK9VEljnOpNQgB7L3_3-8" value="Email" style="ellipse;whiteSpace=wrap;html=1;strokeColor=#000000;fillColor=#ffffff;" parent="1" vertex="1">
          <mxGeometry x="525" y="290" width="100" height="60" as="geometry" />
        </mxCell>
      </root>
    </mxGraphModel>
  </diagram>
  <diagram name="Copy of Page-1" id="Nl7Q8n7By3fZib-4PE_5">
    <mxGraphModel dx="1718" dy="1550" grid="1" gridSize="10" guides="1" tooltips="1" connect="1" arrows="1" fold="1" page="1" pageScale="1" pageWidth="850" pageHeight="1100" math="0" shadow="0" extFonts="Permanent Marker^https://fonts.googleapis.com/css?family=Permanent+Marker">
      <root>
        <mxCell id="Ah3ungZF8JMPu_ykBt2b-0" />
        <mxCell id="Ah3ungZF8JMPu_ykBt2b-1" parent="Ah3ungZF8JMPu_ykBt2b-0" />
        <mxCell id="Ah3ungZF8JMPu_ykBt2b-2" value="Bài báo" style="rounded=0;whiteSpace=wrap;html=1;fillColor=#f8cecc;strokeColor=#b85450;fontStyle=1;fontSize=16;" vertex="1" parent="Ah3ungZF8JMPu_ykBt2b-1">
          <mxGeometry x="-9.45" y="250" width="120" height="60" as="geometry" />
        </mxCell>
        <mxCell id="Ah3ungZF8JMPu_ykBt2b-4" value="Tác giả" style="rounded=0;whiteSpace=wrap;html=1;fillColor=#f8cecc;strokeColor=#b85450;fontStyle=1;fontSize=16;" vertex="1" parent="Ah3ungZF8JMPu_ykBt2b-1">
          <mxGeometry x="350" y="-70" width="120" height="60" as="geometry" />
        </mxCell>
        <mxCell id="Ah3ungZF8JMPu_ykBt2b-17" value="Phản biện sách" style="rounded=0;whiteSpace=wrap;html=1;strokeColor=#b85450;fillColor=#f8cecc;fontStyle=1;fontSize=16;" vertex="1" parent="Ah3ungZF8JMPu_ykBt2b-1">
          <mxGeometry x="40" y="570" width="120" height="60" as="geometry" />
        </mxCell>
        <mxCell id="Ah3ungZF8JMPu_ykBt2b-18" value="d" style="ellipse;whiteSpace=wrap;html=1;aspect=fixed;strokeColor=#000000;fillColor=#ffffff;fontStyle=1;fontSize=16;" vertex="1" parent="Ah3ungZF8JMPu_ykBt2b-1">
          <mxGeometry x="60" y="410" width="40" height="40" as="geometry" />
        </mxCell>
        <mxCell id="Ah3ungZF8JMPu_ykBt2b-19" value="" style="endArrow=none;html=1;entryX=0.681;entryY=1.017;entryDx=0;entryDy=0;entryPerimeter=0;exitX=0.5;exitY=0;exitDx=0;exitDy=0;fontStyle=1;fontSize=16;" edge="1" parent="Ah3ungZF8JMPu_ykBt2b-1" source="Ah3ungZF8JMPu_ykBt2b-18" target="Ah3ungZF8JMPu_ykBt2b-2">
          <mxGeometry width="50" height="50" relative="1" as="geometry">
            <mxPoint y="560" as="sourcePoint" />
            <mxPoint x="50" y="510" as="targetPoint" />
          </mxGeometry>
        </mxCell>
        <mxCell id="Ah3ungZF8JMPu_ykBt2b-20" value="" style="endArrow=none;html=1;exitX=0.5;exitY=0;exitDx=0;exitDy=0;fontStyle=1;fontSize=16;" edge="1" parent="Ah3ungZF8JMPu_ykBt2b-1" source="Ah3ungZF8JMPu_ykBt2b-17">
          <mxGeometry width="50" height="50" relative="1" as="geometry">
            <mxPoint y="560" as="sourcePoint" />
            <mxPoint x="80" y="450" as="targetPoint" />
          </mxGeometry>
        </mxCell>
        <mxCell id="Ah3ungZF8JMPu_ykBt2b-21" value="Loại bài báo" style="text;html=1;align=center;verticalAlign=middle;resizable=0;points=[];autosize=1;fontStyle=1;fontSize=16;" vertex="1" parent="Ah3ungZF8JMPu_ykBt2b-1">
          <mxGeometry x="80.62" y="380" width="110" height="20" as="geometry" />
        </mxCell>
        <mxCell id="Ah3ungZF8JMPu_ykBt2b-22" value="Tổng quan" style="rounded=0;whiteSpace=wrap;html=1;strokeColor=#b85450;fillColor=#f8cecc;fontStyle=1;fontSize=16;" vertex="1" parent="Ah3ungZF8JMPu_ykBt2b-1">
          <mxGeometry x="200" y="570" width="120" height="60" as="geometry" />
        </mxCell>
        <mxCell id="Ah3ungZF8JMPu_ykBt2b-23" value="Ngiên cứu" style="rounded=0;whiteSpace=wrap;html=1;strokeColor=#b85450;fillColor=#f8cecc;fontStyle=1;fontSize=16;" vertex="1" parent="Ah3ungZF8JMPu_ykBt2b-1">
          <mxGeometry x="-110" y="570" width="120" height="60" as="geometry" />
        </mxCell>
        <mxCell id="Ah3ungZF8JMPu_ykBt2b-24" value="" style="endArrow=none;html=1;entryX=0;entryY=1;entryDx=0;entryDy=0;exitX=0.5;exitY=0;exitDx=0;exitDy=0;fontStyle=1;fontSize=16;" edge="1" parent="Ah3ungZF8JMPu_ykBt2b-1" source="Ah3ungZF8JMPu_ykBt2b-23" target="Ah3ungZF8JMPu_ykBt2b-18">
          <mxGeometry width="50" height="50" relative="1" as="geometry">
            <mxPoint y="550" as="sourcePoint" />
            <mxPoint x="50" y="500" as="targetPoint" />
          </mxGeometry>
        </mxCell>
        <mxCell id="Ah3ungZF8JMPu_ykBt2b-25" value="" style="endArrow=none;html=1;entryX=1;entryY=1;entryDx=0;entryDy=0;exitX=0.5;exitY=0;exitDx=0;exitDy=0;fontStyle=1;fontSize=16;" edge="1" parent="Ah3ungZF8JMPu_ykBt2b-1" source="Ah3ungZF8JMPu_ykBt2b-22" target="Ah3ungZF8JMPu_ykBt2b-18">
          <mxGeometry width="50" height="50" relative="1" as="geometry">
            <mxPoint y="550" as="sourcePoint" />
            <mxPoint x="50" y="500" as="targetPoint" />
          </mxGeometry>
        </mxCell>
        <mxCell id="Ah3ungZF8JMPu_ykBt2b-26" value="Nhà khoa học" style="rounded=0;whiteSpace=wrap;html=1;strokeColor=#b85450;fillColor=#f8cecc;fontStyle=1;fontSize=16;" vertex="1" parent="Ah3ungZF8JMPu_ykBt2b-1">
          <mxGeometry x="920" y="60" width="120" height="60" as="geometry" />
        </mxCell>
        <mxCell id="Ah3ungZF8JMPu_ykBt2b-27" value="Phản biện" style="rounded=0;whiteSpace=wrap;html=1;strokeColor=#b85450;fillColor=#f8cecc;fontStyle=1;fontSize=16;" vertex="1" parent="Ah3ungZF8JMPu_ykBt2b-1">
          <mxGeometry x="630" y="260" width="120" height="60" as="geometry" />
        </mxCell>
        <mxCell id="Ah3ungZF8JMPu_ykBt2b-28" value="Biên tập" style="rounded=0;whiteSpace=wrap;html=1;strokeColor=#b85450;fillColor=#f8cecc;fontStyle=1;fontSize=16;" vertex="1" parent="Ah3ungZF8JMPu_ykBt2b-1">
          <mxGeometry x="405" y="120" width="120" height="60" as="geometry" />
        </mxCell>
        <mxCell id="Ah3ungZF8JMPu_ykBt2b-29" value="o" style="ellipse;whiteSpace=wrap;html=1;aspect=fixed;strokeColor=#000000;fillColor=#ffffff;fontStyle=1;fontSize=16;" vertex="1" parent="Ah3ungZF8JMPu_ykBt2b-1">
          <mxGeometry x="825" y="90" width="30" height="30" as="geometry" />
        </mxCell>
        <mxCell id="Ah3ungZF8JMPu_ykBt2b-30" value="" style="endArrow=none;html=1;entryX=0;entryY=0.5;entryDx=0;entryDy=0;fontStyle=1;fontSize=16;" edge="1" parent="Ah3ungZF8JMPu_ykBt2b-1" source="Ah3ungZF8JMPu_ykBt2b-29" target="Ah3ungZF8JMPu_ykBt2b-26">
          <mxGeometry width="50" height="50" relative="1" as="geometry">
            <mxPoint x="570" y="60" as="sourcePoint" />
            <mxPoint x="831" y="-38" as="targetPoint" />
          </mxGeometry>
        </mxCell>
        <mxCell id="Ah3ungZF8JMPu_ykBt2b-31" value="" style="endArrow=none;html=1;exitX=0.208;exitY=0.867;exitDx=0;exitDy=0;exitPerimeter=0;fontStyle=1;fontSize=16;" edge="1" parent="Ah3ungZF8JMPu_ykBt2b-1" source="Ah3ungZF8JMPu_ykBt2b-99" target="Ah3ungZF8JMPu_ykBt2b-29">
          <mxGeometry width="50" height="50" relative="1" as="geometry">
            <mxPoint x="570" y="230" as="sourcePoint" />
            <mxPoint x="620" y="180" as="targetPoint" />
          </mxGeometry>
        </mxCell>
        <mxCell id="Ah3ungZF8JMPu_ykBt2b-32" value="" style="endArrow=none;html=1;fontStyle=1;fontSize=16;exitX=0.172;exitY=0.859;exitDx=0;exitDy=0;exitPerimeter=0;" edge="1" parent="Ah3ungZF8JMPu_ykBt2b-1" source="Ah3ungZF8JMPu_ykBt2b-100" target="Ah3ungZF8JMPu_ykBt2b-29">
          <mxGeometry width="50" height="50" relative="1" as="geometry">
            <mxPoint x="570" y="230" as="sourcePoint" />
            <mxPoint x="620" y="180" as="targetPoint" />
          </mxGeometry>
        </mxCell>
        <mxCell id="Ah3ungZF8JMPu_ykBt2b-33" value="" style="endArrow=none;html=1;exitX=0.279;exitY=0.941;exitDx=0;exitDy=0;fontStyle=1;fontSize=16;exitPerimeter=0;" edge="1" parent="Ah3ungZF8JMPu_ykBt2b-1" source="Ah3ungZF8JMPu_ykBt2b-101" target="Ah3ungZF8JMPu_ykBt2b-29">
          <mxGeometry width="50" height="50" relative="1" as="geometry">
            <mxPoint x="570" y="230" as="sourcePoint" />
            <mxPoint x="829" y="120" as="targetPoint" />
          </mxGeometry>
        </mxCell>
        <mxCell id="Ah3ungZF8JMPu_ykBt2b-45" value="Sách được phản biện" style="rounded=0;whiteSpace=wrap;html=1;strokeColor=#b85450;fillColor=#f8cecc;fontStyle=1;fontSize=16;" vertex="1" parent="Ah3ungZF8JMPu_ykBt2b-1">
          <mxGeometry x="119.30000000000001" y="910" width="165" height="80" as="geometry" />
        </mxCell>
        <mxCell id="Ah3ungZF8JMPu_ykBt2b-59" value="Là tác giả liên lạc" style="rhombus;whiteSpace=wrap;html=1;strokeColor=#d79b00;fillColor=#ffe6cc;fontStyle=1;fontSize=16;" vertex="1" parent="Ah3ungZF8JMPu_ykBt2b-1">
          <mxGeometry x="135.55" y="-90" width="100" height="80" as="geometry" />
        </mxCell>
        <mxCell id="Ah3ungZF8JMPu_ykBt2b-60" value="" style="endArrow=none;html=1;exitX=1;exitY=0;exitDx=0;exitDy=0;entryX=0.125;entryY=0.62;entryDx=0;entryDy=0;entryPerimeter=0;fontStyle=1;fontSize=16;" edge="1" parent="Ah3ungZF8JMPu_ykBt2b-1" source="Ah3ungZF8JMPu_ykBt2b-2" target="Ah3ungZF8JMPu_ykBt2b-59">
          <mxGeometry width="50" height="50" relative="1" as="geometry">
            <mxPoint x="340" y="300" as="sourcePoint" />
            <mxPoint x="244" y="150" as="targetPoint" />
          </mxGeometry>
        </mxCell>
        <mxCell id="Ah3ungZF8JMPu_ykBt2b-61" value="" style="endArrow=none;html=1;exitX=1.005;exitY=0.11;exitDx=0;exitDy=0;exitPerimeter=0;entryX=0.143;entryY=0.645;entryDx=0;entryDy=0;entryPerimeter=0;fontStyle=1;fontSize=16;" edge="1" parent="Ah3ungZF8JMPu_ykBt2b-1" source="Ah3ungZF8JMPu_ykBt2b-2" target="Ah3ungZF8JMPu_ykBt2b-59">
          <mxGeometry width="50" height="50" relative="1" as="geometry">
            <mxPoint x="340" y="300" as="sourcePoint" />
            <mxPoint x="390" y="250" as="targetPoint" />
          </mxGeometry>
        </mxCell>
        <mxCell id="Ah3ungZF8JMPu_ykBt2b-62" value="" style="endArrow=none;html=1;exitX=1;exitY=0.5;exitDx=0;exitDy=0;entryX=0;entryY=0.5;entryDx=0;entryDy=0;fontStyle=1;fontSize=16;" edge="1" parent="Ah3ungZF8JMPu_ykBt2b-1" source="Ah3ungZF8JMPu_ykBt2b-59" target="Ah3ungZF8JMPu_ykBt2b-4">
          <mxGeometry width="50" height="50" relative="1" as="geometry">
            <mxPoint x="380" y="300" as="sourcePoint" />
            <mxPoint x="430" y="250" as="targetPoint" />
          </mxGeometry>
        </mxCell>
        <mxCell id="Ah3ungZF8JMPu_ykBt2b-63" value="Là tác giả" style="rhombus;whiteSpace=wrap;html=1;strokeColor=#d79b00;fillColor=#ffe6cc;fontStyle=1;fontSize=16;" vertex="1" parent="Ah3ungZF8JMPu_ykBt2b-1">
          <mxGeometry x="174.3" y="-10" width="100" height="90" as="geometry" />
        </mxCell>
        <mxCell id="Ah3ungZF8JMPu_ykBt2b-64" value="" style="endArrow=none;html=1;entryX=0;entryY=0.5;entryDx=0;entryDy=0;exitX=1;exitY=0.5;exitDx=0;exitDy=0;fontStyle=1;fontSize=16;" edge="1" parent="Ah3ungZF8JMPu_ykBt2b-1" source="Ah3ungZF8JMPu_ykBt2b-63" target="Ah3ungZF8JMPu_ykBt2b-4">
          <mxGeometry width="50" height="50" relative="1" as="geometry">
            <mxPoint x="380" y="300" as="sourcePoint" />
            <mxPoint x="430" y="250" as="targetPoint" />
          </mxGeometry>
        </mxCell>
        <mxCell id="Ah3ungZF8JMPu_ykBt2b-65" value="" style="endArrow=none;html=1;entryX=1;entryY=0.5;entryDx=0;entryDy=0;exitX=0;exitY=0.5;exitDx=0;exitDy=0;fontStyle=1;fontSize=16;" edge="1" parent="Ah3ungZF8JMPu_ykBt2b-1" source="Ah3ungZF8JMPu_ykBt2b-63" target="Ah3ungZF8JMPu_ykBt2b-2">
          <mxGeometry width="50" height="50" relative="1" as="geometry">
            <mxPoint x="380" y="300" as="sourcePoint" />
            <mxPoint x="430" y="250" as="targetPoint" />
          </mxGeometry>
        </mxCell>
        <mxCell id="Ah3ungZF8JMPu_ykBt2b-68" value="" style="endArrow=none;html=1;exitX=1;exitY=0.75;exitDx=0;exitDy=0;entryX=0.063;entryY=0.447;entryDx=0;entryDy=0;entryPerimeter=0;fontStyle=1;fontSize=16;" edge="1" parent="Ah3ungZF8JMPu_ykBt2b-1" source="Ah3ungZF8JMPu_ykBt2b-2" target="Ah3ungZF8JMPu_ykBt2b-175">
          <mxGeometry width="50" height="50" relative="1" as="geometry">
            <mxPoint x="350" y="420" as="sourcePoint" />
            <mxPoint x="340" y="740" as="targetPoint" />
          </mxGeometry>
        </mxCell>
        <mxCell id="Ah3ungZF8JMPu_ykBt2b-69" value="" style="endArrow=none;html=1;exitX=0.995;exitY=0.852;exitDx=0;exitDy=0;entryX=0;entryY=0.5;entryDx=0;entryDy=0;exitPerimeter=0;fontStyle=1;fontSize=16;" edge="1" parent="Ah3ungZF8JMPu_ykBt2b-1" source="Ah3ungZF8JMPu_ykBt2b-2" target="Ah3ungZF8JMPu_ykBt2b-175">
          <mxGeometry width="50" height="50" relative="1" as="geometry">
            <mxPoint x="350" y="420" as="sourcePoint" />
            <mxPoint x="196.55000000000018" y="445.71000000000004" as="targetPoint" />
          </mxGeometry>
        </mxCell>
        <mxCell id="Ah3ungZF8JMPu_ykBt2b-70" value="Phản biện cho sách" style="rhombus;whiteSpace=wrap;html=1;strokeColor=#d79b00;fillColor=#ffe6cc;fontStyle=1;fontSize=16;" vertex="1" parent="Ah3ungZF8JMPu_ykBt2b-1">
          <mxGeometry x="100" y="700" width="135" height="120" as="geometry" />
        </mxCell>
        <mxCell id="Ah3ungZF8JMPu_ykBt2b-71" value="" style="endArrow=none;html=1;entryX=0.25;entryY=0;entryDx=0;entryDy=0;exitX=0.443;exitY=0.956;exitDx=0;exitDy=0;exitPerimeter=0;fontStyle=1;fontSize=16;" edge="1" parent="Ah3ungZF8JMPu_ykBt2b-1" source="Ah3ungZF8JMPu_ykBt2b-70" target="Ah3ungZF8JMPu_ykBt2b-45">
          <mxGeometry width="50" height="50" relative="1" as="geometry">
            <mxPoint x="340" y="740" as="sourcePoint" />
            <mxPoint x="390" y="690" as="targetPoint" />
          </mxGeometry>
        </mxCell>
        <mxCell id="Ah3ungZF8JMPu_ykBt2b-72" value="" style="endArrow=none;html=1;exitX=0.509;exitY=0.984;exitDx=0;exitDy=0;entryX=0.307;entryY=-0.009;entryDx=0;entryDy=0;entryPerimeter=0;exitPerimeter=0;fontStyle=1;fontSize=16;" edge="1" parent="Ah3ungZF8JMPu_ykBt2b-1" source="Ah3ungZF8JMPu_ykBt2b-70" target="Ah3ungZF8JMPu_ykBt2b-45">
          <mxGeometry width="50" height="50" relative="1" as="geometry">
            <mxPoint x="340" y="740" as="sourcePoint" />
            <mxPoint x="330" y="840" as="targetPoint" />
          </mxGeometry>
        </mxCell>
        <mxCell id="Ah3ungZF8JMPu_ykBt2b-73" value="" style="endArrow=none;html=1;exitX=0.658;exitY=0.983;exitDx=0;exitDy=0;exitPerimeter=0;entryX=0.294;entryY=0.207;entryDx=0;entryDy=0;entryPerimeter=0;fontStyle=1;fontSize=16;" edge="1" parent="Ah3ungZF8JMPu_ykBt2b-1" source="Ah3ungZF8JMPu_ykBt2b-17" target="Ah3ungZF8JMPu_ykBt2b-70">
          <mxGeometry width="50" height="50" relative="1" as="geometry">
            <mxPoint x="160" y="770" as="sourcePoint" />
            <mxPoint x="210" y="720" as="targetPoint" />
          </mxGeometry>
        </mxCell>
        <mxCell id="Ah3ungZF8JMPu_ykBt2b-74" value="" style="endArrow=none;html=1;exitX=0.75;exitY=1;exitDx=0;exitDy=0;entryX=0.346;entryY=0.164;entryDx=0;entryDy=0;entryPerimeter=0;fontStyle=1;fontSize=16;" edge="1" parent="Ah3ungZF8JMPu_ykBt2b-1" source="Ah3ungZF8JMPu_ykBt2b-17" target="Ah3ungZF8JMPu_ykBt2b-70">
          <mxGeometry width="50" height="50" relative="1" as="geometry">
            <mxPoint x="160" y="770" as="sourcePoint" />
            <mxPoint x="210" y="720" as="targetPoint" />
          </mxGeometry>
        </mxCell>
        <mxCell id="Ah3ungZF8JMPu_ykBt2b-78" value="" style="endArrow=none;html=1;entryX=0.5;entryY=1;entryDx=0;entryDy=0;exitX=0.5;exitY=0;exitDx=0;exitDy=0;fontStyle=1;fontSize=16;" edge="1" parent="Ah3ungZF8JMPu_ykBt2b-1" source="Ah3ungZF8JMPu_ykBt2b-148" target="Ah3ungZF8JMPu_ykBt2b-89">
          <mxGeometry width="50" height="50" relative="1" as="geometry">
            <mxPoint x="780.6300000000001" y="950" as="sourcePoint" />
            <mxPoint x="700" y="930" as="targetPoint" />
          </mxGeometry>
        </mxCell>
        <mxCell id="Ah3ungZF8JMPu_ykBt2b-87" value="Bài phản biện" style="rounded=0;whiteSpace=wrap;html=1;strokeColor=#b85450;fillColor=#f8cecc;fontStyle=1;fontSize=16;" vertex="1" parent="Ah3ungZF8JMPu_ykBt2b-1">
          <mxGeometry x="425" y="543.88" width="120" height="60" as="geometry" />
        </mxCell>
        <mxCell id="Ah3ungZF8JMPu_ykBt2b-88" value="" style="endArrow=none;html=1;entryX=0;entryY=1;entryDx=0;entryDy=0;exitX=1;exitY=0.5;exitDx=0;exitDy=0;fontStyle=1;fontSize=16;" edge="1" parent="Ah3ungZF8JMPu_ykBt2b-1" source="Ah3ungZF8JMPu_ykBt2b-175" target="Ah3ungZF8JMPu_ykBt2b-27">
          <mxGeometry width="50" height="50" relative="1" as="geometry">
            <mxPoint x="737.1799999999998" y="372.5" as="sourcePoint" />
            <mxPoint x="710" y="380" as="targetPoint" />
          </mxGeometry>
        </mxCell>
        <mxCell id="Ah3ungZF8JMPu_ykBt2b-89" value="Tiêu chí đánh giá" style="rounded=0;whiteSpace=wrap;html=1;strokeColor=#b85450;fillColor=#f8cecc;fontStyle=1;fontSize=16;" vertex="1" parent="Ah3ungZF8JMPu_ykBt2b-1">
          <mxGeometry x="810" y="541.16" width="120" height="60" as="geometry" />
        </mxCell>
        <mxCell id="Ah3ungZF8JMPu_ykBt2b-91" value="Có tiêu chí đánh giá" style="rhombus;whiteSpace=wrap;html=1;strokeColor=#d79b00;fillColor=#ffe6cc;fontStyle=1;fontSize=16;" vertex="1" parent="Ah3ungZF8JMPu_ykBt2b-1">
          <mxGeometry x="660" y="523.88" width="87.5" height="80" as="geometry" />
        </mxCell>
        <mxCell id="Ah3ungZF8JMPu_ykBt2b-92" value="" style="endArrow=none;html=1;entryX=1;entryY=0.5;entryDx=0;entryDy=0;exitX=0;exitY=0.5;exitDx=0;exitDy=0;fontStyle=1;fontSize=16;" edge="1" parent="Ah3ungZF8JMPu_ykBt2b-1" source="Ah3ungZF8JMPu_ykBt2b-89" target="Ah3ungZF8JMPu_ykBt2b-91">
          <mxGeometry width="50" height="50" relative="1" as="geometry">
            <mxPoint x="699" y="860" as="sourcePoint" />
            <mxPoint x="685" y="780" as="targetPoint" />
          </mxGeometry>
        </mxCell>
        <mxCell id="Ah3ungZF8JMPu_ykBt2b-93" value="" style="endArrow=none;html=1;entryX=1;entryY=0.5;entryDx=0;entryDy=0;exitX=0.03;exitY=0.465;exitDx=0;exitDy=0;exitPerimeter=0;fontStyle=1;fontSize=16;" edge="1" parent="Ah3ungZF8JMPu_ykBt2b-1" source="Ah3ungZF8JMPu_ykBt2b-91" target="Ah3ungZF8JMPu_ykBt2b-87">
          <mxGeometry width="50" height="50" relative="1" as="geometry">
            <mxPoint x="576" y="590" as="sourcePoint" />
            <mxPoint x="589.75" y="570" as="targetPoint" />
          </mxGeometry>
        </mxCell>
        <mxCell id="Ah3ungZF8JMPu_ykBt2b-94" value="" style="endArrow=none;html=1;exitX=0.049;exitY=0.553;exitDx=0;exitDy=0;entryX=0.999;entryY=0.604;entryDx=0;entryDy=0;entryPerimeter=0;exitPerimeter=0;fontStyle=1;fontSize=16;" edge="1" parent="Ah3ungZF8JMPu_ykBt2b-1" source="Ah3ungZF8JMPu_ykBt2b-91" target="Ah3ungZF8JMPu_ykBt2b-87">
          <mxGeometry width="50" height="50" relative="1" as="geometry">
            <mxPoint x="573" y="594" as="sourcePoint" />
            <mxPoint x="550" y="564" as="targetPoint" />
          </mxGeometry>
        </mxCell>
        <mxCell id="Ah3ungZF8JMPu_ykBt2b-96" value="" style="verticalLabelPosition=bottom;verticalAlign=top;html=1;shape=mxgraph.basic.arc;startAngle=0.3;endAngle=0.1;direction=south;rotation=-130;fontStyle=1;fontSize=16;" vertex="1" parent="Ah3ungZF8JMPu_ykBt2b-1">
          <mxGeometry x="-15" y="505" width="30" height="30" as="geometry" />
        </mxCell>
        <mxCell id="Ah3ungZF8JMPu_ykBt2b-97" value="" style="verticalLabelPosition=bottom;verticalAlign=top;html=1;shape=mxgraph.basic.arc;startAngle=0.3;endAngle=0.1;rotation=-95;fontStyle=1;fontSize=16;" vertex="1" parent="Ah3ungZF8JMPu_ykBt2b-1">
          <mxGeometry x="80.62" y="506.16" width="27.46" height="35" as="geometry" />
        </mxCell>
        <mxCell id="Ah3ungZF8JMPu_ykBt2b-98" value="" style="verticalLabelPosition=bottom;verticalAlign=top;html=1;shape=mxgraph.basic.arc;startAngle=0.3;endAngle=0.1;rotation=-115;fontStyle=1;fontSize=16;" vertex="1" parent="Ah3ungZF8JMPu_ykBt2b-1">
          <mxGeometry x="161.97" y="495.72" width="27.95" height="26.31" as="geometry" />
        </mxCell>
        <mxCell id="Ah3ungZF8JMPu_ykBt2b-113" value="N" style="text;html=1;align=center;verticalAlign=middle;resizable=0;points=[];autosize=1;fontStyle=1;fontSize=16;" vertex="1" parent="Ah3ungZF8JMPu_ykBt2b-1">
          <mxGeometry x="259.3" y="15" width="30" height="20" as="geometry" />
        </mxCell>
        <mxCell id="Ah3ungZF8JMPu_ykBt2b-114" value="M" style="text;html=1;align=center;verticalAlign=middle;resizable=0;points=[];autosize=1;fontStyle=1;fontSize=16;" vertex="1" parent="Ah3ungZF8JMPu_ykBt2b-1">
          <mxGeometry x="165.55" y="47.5" width="30" height="20" as="geometry" />
        </mxCell>
        <mxCell id="Ah3ungZF8JMPu_ykBt2b-115" value="1" style="text;html=1;align=center;verticalAlign=middle;resizable=0;points=[];autosize=1;fontStyle=1;fontSize=16;" vertex="1" parent="Ah3ungZF8JMPu_ykBt2b-1">
          <mxGeometry x="235.55" y="-75" width="20" height="20" as="geometry" />
        </mxCell>
        <mxCell id="Ah3ungZF8JMPu_ykBt2b-116" value="N" style="text;html=1;align=center;verticalAlign=middle;resizable=0;points=[];autosize=1;fontStyle=1;fontSize=16;" vertex="1" parent="Ah3ungZF8JMPu_ykBt2b-1">
          <mxGeometry x="110.55" y="-55" width="30" height="20" as="geometry" />
        </mxCell>
        <mxCell id="Ah3ungZF8JMPu_ykBt2b-117" value="N" style="text;html=1;align=center;verticalAlign=middle;resizable=0;points=[];autosize=1;fontStyle=1;fontSize=16;" vertex="1" parent="Ah3ungZF8JMPu_ykBt2b-1">
          <mxGeometry x="747.5" y="541.16" width="30" height="20" as="geometry" />
        </mxCell>
        <mxCell id="Ah3ungZF8JMPu_ykBt2b-118" value="M" style="text;html=1;align=center;verticalAlign=middle;resizable=0;points=[];autosize=1;fontStyle=1;fontSize=16;" vertex="1" parent="Ah3ungZF8JMPu_ykBt2b-1">
          <mxGeometry x="620" y="541.16" width="30" height="20" as="geometry" />
        </mxCell>
        <mxCell id="Ah3ungZF8JMPu_ykBt2b-120" value="N" style="text;html=1;align=center;verticalAlign=middle;resizable=0;points=[];autosize=1;fontStyle=1;fontSize=16;" vertex="1" parent="Ah3ungZF8JMPu_ykBt2b-1">
          <mxGeometry x="140.54999999999998" y="678.75" width="30" height="20" as="geometry" />
        </mxCell>
        <mxCell id="Ah3ungZF8JMPu_ykBt2b-125" value="Bài báo xuất bản" style="rounded=0;whiteSpace=wrap;html=1;fillColor=#f8cecc;strokeColor=#b85450;fontStyle=1;fontSize=16;" vertex="1" parent="Ah3ungZF8JMPu_ykBt2b-1">
          <mxGeometry x="-80" y="-100" width="120" height="60" as="geometry" />
        </mxCell>
        <mxCell id="Ah3ungZF8JMPu_ykBt2b-126" value="được xuất bản" style="rhombus;whiteSpace=wrap;html=1;fillColor=#ffe6cc;strokeColor=#d79b00;fontStyle=1;fontSize=16;" vertex="1" parent="Ah3ungZF8JMPu_ykBt2b-1">
          <mxGeometry x="-50" y="50" width="140" height="120" as="geometry" />
        </mxCell>
        <mxCell id="Ah3ungZF8JMPu_ykBt2b-127" value="" style="endArrow=none;html=1;entryX=0.5;entryY=0;entryDx=0;entryDy=0;exitX=0.5;exitY=1;exitDx=0;exitDy=0;fontStyle=1;fontSize=16;" edge="1" parent="Ah3ungZF8JMPu_ykBt2b-1" source="Ah3ungZF8JMPu_ykBt2b-126" target="Ah3ungZF8JMPu_ykBt2b-2">
          <mxGeometry width="50" height="50" relative="1" as="geometry">
            <mxPoint x="-120" y="290" as="sourcePoint" />
            <mxPoint x="-70" y="240" as="targetPoint" />
          </mxGeometry>
        </mxCell>
        <mxCell id="Ah3ungZF8JMPu_ykBt2b-128" value="" style="endArrow=none;html=1;exitX=0.5;exitY=1;exitDx=0;exitDy=0;fontStyle=1;fontSize=16;" edge="1" parent="Ah3ungZF8JMPu_ykBt2b-1" source="Ah3ungZF8JMPu_ykBt2b-125" target="Ah3ungZF8JMPu_ykBt2b-126">
          <mxGeometry width="50" height="50" relative="1" as="geometry">
            <mxPoint x="70" y="370" as="sourcePoint" />
            <mxPoint x="120" y="320" as="targetPoint" />
          </mxGeometry>
        </mxCell>
        <mxCell id="Ah3ungZF8JMPu_ykBt2b-131" value="1" style="text;html=1;align=center;verticalAlign=middle;resizable=0;points=[];autosize=1;fontStyle=1;fontSize=16;" vertex="1" parent="Ah3ungZF8JMPu_ykBt2b-1">
          <mxGeometry x="20" y="170" width="20" height="20" as="geometry" />
        </mxCell>
        <mxCell id="Ah3ungZF8JMPu_ykBt2b-133" value="" style="endArrow=none;html=1;entryX=1.003;entryY=0.582;entryDx=0;entryDy=0;exitX=0.047;exitY=0.547;exitDx=0;exitDy=0;entryPerimeter=0;exitPerimeter=0;fontStyle=1;fontSize=16;" edge="1" parent="Ah3ungZF8JMPu_ykBt2b-1" source="Ah3ungZF8JMPu_ykBt2b-63" target="Ah3ungZF8JMPu_ykBt2b-2">
          <mxGeometry width="50" height="50" relative="1" as="geometry">
            <mxPoint x="287.5" y="315" as="sourcePoint" />
            <mxPoint x="100" y="290" as="targetPoint" />
          </mxGeometry>
        </mxCell>
        <mxCell id="Ah3ungZF8JMPu_ykBt2b-145" value="" style="endArrow=none;html=1;entryX=0.815;entryY=0.991;entryDx=0;entryDy=0;entryPerimeter=0;exitX=0.5;exitY=0;exitDx=0;exitDy=0;fontStyle=1;fontSize=16;" edge="1" parent="Ah3ungZF8JMPu_ykBt2b-1">
          <mxGeometry width="50" height="50" relative="1" as="geometry">
            <mxPoint x="75" y="410.54" as="sourcePoint" />
            <mxPoint x="62.800000000000175" y="310.00000000000006" as="targetPoint" />
          </mxGeometry>
        </mxCell>
        <mxCell id="Ah3ungZF8JMPu_ykBt2b-146" value="Mức đánh giá" style="rounded=0;whiteSpace=wrap;html=1;fillColor=#f8cecc;strokeColor=#b85450;fontStyle=1;fontSize=16;" vertex="1" parent="Ah3ungZF8JMPu_ykBt2b-1">
          <mxGeometry x="820" y="890" width="120" height="60" as="geometry" />
        </mxCell>
        <mxCell id="Ah3ungZF8JMPu_ykBt2b-147" value="" style="rounded=0;whiteSpace=wrap;html=1;fillColor=none;fontStyle=1;fontSize=16;" vertex="1" parent="Ah3ungZF8JMPu_ykBt2b-1">
          <mxGeometry x="826.87" y="895" width="103.75" height="50" as="geometry" />
        </mxCell>
        <mxCell id="Ah3ungZF8JMPu_ykBt2b-148" value="Có mức đánh giá" style="rhombus;whiteSpace=wrap;html=1;fillColor=#fff2cc;strokeColor=#d6b656;fontStyle=1;fontSize=16;" vertex="1" parent="Ah3ungZF8JMPu_ykBt2b-1">
          <mxGeometry x="820" y="673.75" width="120" height="100" as="geometry" />
        </mxCell>
        <mxCell id="Ah3ungZF8JMPu_ykBt2b-149" value="" style="rhombus;whiteSpace=wrap;html=1;fillColor=none;fontStyle=1;fontSize=16;" vertex="1" parent="Ah3ungZF8JMPu_ykBt2b-1">
          <mxGeometry x="825" y="678.75" width="110" height="90" as="geometry" />
        </mxCell>
        <mxCell id="Ah3ungZF8JMPu_ykBt2b-150" value="" style="endArrow=none;html=1;exitX=0.5;exitY=0;exitDx=0;exitDy=0;entryX=0.5;entryY=1;entryDx=0;entryDy=0;fontStyle=1;fontSize=16;" edge="1" parent="Ah3ungZF8JMPu_ykBt2b-1" source="Ah3ungZF8JMPu_ykBt2b-146" target="Ah3ungZF8JMPu_ykBt2b-148">
          <mxGeometry width="50" height="50" relative="1" as="geometry">
            <mxPoint x="535" y="898.75" as="sourcePoint" />
            <mxPoint x="585" y="848.75" as="targetPoint" />
          </mxGeometry>
        </mxCell>
        <mxCell id="Ah3ungZF8JMPu_ykBt2b-151" value="Biên tập bởi" style="rhombus;whiteSpace=wrap;html=1;fillColor=#fff2cc;strokeColor=#d6b656;fontStyle=1;fontSize=16;" vertex="1" parent="Ah3ungZF8JMPu_ykBt2b-1">
          <mxGeometry x="209.92" y="130" width="100.08" height="100" as="geometry" />
        </mxCell>
        <mxCell id="Ah3ungZF8JMPu_ykBt2b-152" value="" style="endArrow=none;html=1;exitX=1;exitY=0.5;exitDx=0;exitDy=0;entryX=0;entryY=0.5;entryDx=0;entryDy=0;fontStyle=1;fontSize=16;" edge="1" parent="Ah3ungZF8JMPu_ykBt2b-1" source="Ah3ungZF8JMPu_ykBt2b-151" target="Ah3ungZF8JMPu_ykBt2b-28">
          <mxGeometry width="50" height="50" relative="1" as="geometry">
            <mxPoint x="580" y="400" as="sourcePoint" />
            <mxPoint x="630" y="350" as="targetPoint" />
          </mxGeometry>
        </mxCell>
        <mxCell id="Ah3ungZF8JMPu_ykBt2b-153" value="" style="endArrow=none;html=1;entryX=1;entryY=0.75;entryDx=0;entryDy=0;exitX=0.069;exitY=0.568;exitDx=0;exitDy=0;exitPerimeter=0;fontStyle=1;fontSize=16;" edge="1" parent="Ah3ungZF8JMPu_ykBt2b-1" source="Ah3ungZF8JMPu_ykBt2b-151" target="Ah3ungZF8JMPu_ykBt2b-2">
          <mxGeometry width="50" height="50" relative="1" as="geometry">
            <mxPoint x="280" y="450" as="sourcePoint" />
            <mxPoint x="330" y="400" as="targetPoint" />
          </mxGeometry>
        </mxCell>
        <mxCell id="Ah3ungZF8JMPu_ykBt2b-154" value="" style="endArrow=none;html=1;entryX=1.008;entryY=0.676;entryDx=0;entryDy=0;entryPerimeter=0;exitX=0;exitY=0.5;exitDx=0;exitDy=0;fontStyle=1;fontSize=16;" edge="1" parent="Ah3ungZF8JMPu_ykBt2b-1" source="Ah3ungZF8JMPu_ykBt2b-151" target="Ah3ungZF8JMPu_ykBt2b-2">
          <mxGeometry width="50" height="50" relative="1" as="geometry">
            <mxPoint x="280" y="450" as="sourcePoint" />
            <mxPoint x="330" y="400" as="targetPoint" />
          </mxGeometry>
        </mxCell>
        <mxCell id="Ah3ungZF8JMPu_ykBt2b-155" value="N" style="text;html=1;align=center;verticalAlign=middle;resizable=0;points=[];autosize=1;fontStyle=1;fontSize=16;" vertex="1" parent="Ah3ungZF8JMPu_ykBt2b-1">
          <mxGeometry x="184.92" y="210" width="30" height="20" as="geometry" />
        </mxCell>
        <mxCell id="Ah3ungZF8JMPu_ykBt2b-156" value="1" style="text;html=1;align=center;verticalAlign=middle;resizable=0;points=[];autosize=1;fontStyle=1;fontSize=16;" vertex="1" parent="Ah3ungZF8JMPu_ykBt2b-1">
          <mxGeometry x="320" y="150" width="20" height="20" as="geometry" />
        </mxCell>
        <mxCell id="Ah3ungZF8JMPu_ykBt2b-157" value="" style="endArrow=none;html=1;entryX=0.5;entryY=0;entryDx=0;entryDy=0;fontStyle=1;fontSize=16;" edge="1" parent="Ah3ungZF8JMPu_ykBt2b-1" target="Ah3ungZF8JMPu_ykBt2b-126">
          <mxGeometry width="50" height="50" relative="1" as="geometry">
            <mxPoint x="-10" y="-40" as="sourcePoint" />
            <mxPoint x="-240" y="270" as="targetPoint" />
          </mxGeometry>
        </mxCell>
        <mxCell id="Ah3ungZF8JMPu_ykBt2b-167" value="Phân công phản biện" style="rhombus;whiteSpace=wrap;html=1;fillColor=#fff2cc;strokeColor=#d6b656;fontStyle=1;fontSize=16;" vertex="1" parent="Ah3ungZF8JMPu_ykBt2b-1">
          <mxGeometry x="360" y="310" width="110" height="90" as="geometry" />
        </mxCell>
        <mxCell id="Ah3ungZF8JMPu_ykBt2b-168" value="" style="endArrow=none;html=1;exitX=1;exitY=0.75;exitDx=0;exitDy=0;entryX=0;entryY=0.5;entryDx=0;entryDy=0;fontStyle=1;fontSize=16;" edge="1" parent="Ah3ungZF8JMPu_ykBt2b-1" source="Ah3ungZF8JMPu_ykBt2b-2" target="Ah3ungZF8JMPu_ykBt2b-167">
          <mxGeometry width="50" height="50" relative="1" as="geometry">
            <mxPoint x="400" y="350" as="sourcePoint" />
            <mxPoint x="450" y="300" as="targetPoint" />
          </mxGeometry>
        </mxCell>
        <mxCell id="Ah3ungZF8JMPu_ykBt2b-169" value="" style="endArrow=none;html=1;exitX=0.992;exitY=0.65;exitDx=0;exitDy=0;exitPerimeter=0;entryX=0.074;entryY=0.441;entryDx=0;entryDy=0;entryPerimeter=0;fontStyle=1;fontSize=16;" edge="1" parent="Ah3ungZF8JMPu_ykBt2b-1" source="Ah3ungZF8JMPu_ykBt2b-2" target="Ah3ungZF8JMPu_ykBt2b-167">
          <mxGeometry width="50" height="50" relative="1" as="geometry">
            <mxPoint x="400" y="350" as="sourcePoint" />
            <mxPoint x="413" y="389" as="targetPoint" />
          </mxGeometry>
        </mxCell>
        <mxCell id="Ah3ungZF8JMPu_ykBt2b-170" value="" style="endArrow=none;html=1;exitX=1;exitY=0.5;exitDx=0;exitDy=0;entryX=0;entryY=1;entryDx=0;entryDy=0;fontStyle=1;fontSize=16;" edge="1" parent="Ah3ungZF8JMPu_ykBt2b-1" source="Ah3ungZF8JMPu_ykBt2b-167" target="Ah3ungZF8JMPu_ykBt2b-27">
          <mxGeometry width="50" height="50" relative="1" as="geometry">
            <mxPoint x="640" y="390" as="sourcePoint" />
            <mxPoint x="690" y="340" as="targetPoint" />
          </mxGeometry>
        </mxCell>
        <mxCell id="Ah3ungZF8JMPu_ykBt2b-171" value="" style="endArrow=none;html=1;exitX=0.5;exitY=0;exitDx=0;exitDy=0;entryX=0;entryY=0.5;entryDx=0;entryDy=0;fontStyle=1;fontSize=16;" edge="1" parent="Ah3ungZF8JMPu_ykBt2b-1" source="Ah3ungZF8JMPu_ykBt2b-167" target="Ah3ungZF8JMPu_ykBt2b-28">
          <mxGeometry width="50" height="50" relative="1" as="geometry">
            <mxPoint x="570" y="390" as="sourcePoint" />
            <mxPoint x="620" y="340" as="targetPoint" />
          </mxGeometry>
        </mxCell>
        <mxCell id="Ah3ungZF8JMPu_ykBt2b-175" value="Phản biện cho" style="rhombus;whiteSpace=wrap;html=1;fillColor=#fff2cc;strokeColor=#d6b656;fontStyle=1;fontSize=16;" vertex="1" parent="Ah3ungZF8JMPu_ykBt2b-1">
          <mxGeometry x="420" y="423.88" width="95" height="77.5" as="geometry" />
        </mxCell>
        <mxCell id="Ah3ungZF8JMPu_ykBt2b-177" value="M" style="text;html=1;align=center;verticalAlign=middle;resizable=0;points=[];autosize=1;fontStyle=1;fontSize=16;" vertex="1" parent="Ah3ungZF8JMPu_ykBt2b-1">
          <mxGeometry x="465" y="330" width="30" height="20" as="geometry" />
        </mxCell>
        <mxCell id="Ah3ungZF8JMPu_ykBt2b-178" value="1" style="text;html=1;align=center;verticalAlign=middle;resizable=0;points=[];autosize=1;fontStyle=1;fontSize=16;" vertex="1" parent="Ah3ungZF8JMPu_ykBt2b-1">
          <mxGeometry x="340" y="320" width="20" height="20" as="geometry" />
        </mxCell>
        <mxCell id="Ah3ungZF8JMPu_ykBt2b-179" value="" style="rhombus;whiteSpace=wrap;html=1;fillColor=none;fontStyle=1;fontSize=16;" vertex="1" parent="Ah3ungZF8JMPu_ykBt2b-1">
          <mxGeometry x="425" y="427.04999999999995" width="85" height="71.16" as="geometry" />
        </mxCell>
        <mxCell id="Ah3ungZF8JMPu_ykBt2b-180" value="" style="rounded=0;whiteSpace=wrap;html=1;fillColor=none;fontStyle=1;fontSize=16;" vertex="1" parent="Ah3ungZF8JMPu_ykBt2b-1">
          <mxGeometry x="430" y="548.88" width="110" height="50" as="geometry" />
        </mxCell>
        <mxCell id="Ah3ungZF8JMPu_ykBt2b-181" value="" style="endArrow=none;html=1;exitX=0.5;exitY=0;exitDx=0;exitDy=0;entryX=0.5;entryY=1;entryDx=0;entryDy=0;fontStyle=1;fontSize=16;" edge="1" parent="Ah3ungZF8JMPu_ykBt2b-1" source="Ah3ungZF8JMPu_ykBt2b-87" target="Ah3ungZF8JMPu_ykBt2b-179">
          <mxGeometry width="50" height="50" relative="1" as="geometry">
            <mxPoint x="520" y="543.88" as="sourcePoint" />
            <mxPoint x="468" y="497.88" as="targetPoint" />
          </mxGeometry>
        </mxCell>
        <mxCell id="Ah3ungZF8JMPu_ykBt2b-182" value="" style="endArrow=none;html=1;exitX=0.475;exitY=0.006;exitDx=0;exitDy=0;exitPerimeter=0;entryX=0.456;entryY=0.953;entryDx=0;entryDy=0;entryPerimeter=0;fontStyle=1;fontSize=16;" edge="1" parent="Ah3ungZF8JMPu_ykBt2b-1" source="Ah3ungZF8JMPu_ykBt2b-87" target="Ah3ungZF8JMPu_ykBt2b-175">
          <mxGeometry width="50" height="50" relative="1" as="geometry">
            <mxPoint x="440" y="563.88" as="sourcePoint" />
            <mxPoint x="466" y="497.88" as="targetPoint" />
          </mxGeometry>
        </mxCell>
        <mxCell id="Ah3ungZF8JMPu_ykBt2b-183" value="(0,*)" style="text;html=1;align=center;verticalAlign=middle;resizable=0;points=[];autosize=1;fontStyle=1;fontSize=16;" vertex="1" parent="Ah3ungZF8JMPu_ykBt2b-1">
          <mxGeometry x="370" y="450" width="50" height="20" as="geometry" />
        </mxCell>
        <mxCell id="Ah3ungZF8JMPu_ykBt2b-185" value="(1,1)" style="text;html=1;align=center;verticalAlign=middle;resizable=0;points=[];autosize=1;fontStyle=1;fontSize=16;" vertex="1" parent="Ah3ungZF8JMPu_ykBt2b-1">
          <mxGeometry x="465" y="498.88" width="50" height="20" as="geometry" />
        </mxCell>
        <mxCell id="Ah3ungZF8JMPu_ykBt2b-186" value="1" style="text;html=1;align=center;verticalAlign=middle;resizable=0;points=[];autosize=1;fontStyle=1;fontSize=16;" vertex="1" parent="Ah3ungZF8JMPu_ykBt2b-1">
          <mxGeometry x="865" y="645" width="20" height="20" as="geometry" />
        </mxCell>
        <mxCell id="Ah3ungZF8JMPu_ykBt2b-187" value="N" style="text;html=1;align=center;verticalAlign=middle;resizable=0;points=[];autosize=1;fontStyle=1;fontSize=16;" vertex="1" parent="Ah3ungZF8JMPu_ykBt2b-1">
          <mxGeometry x="880" y="775" width="30" height="20" as="geometry" />
        </mxCell>
        <mxCell id="Ah3ungZF8JMPu_ykBt2b-99" value="" style="verticalLabelPosition=bottom;verticalAlign=top;html=1;shape=mxgraph.basic.arc;startAngle=0.3;endAngle=0.943091627240748;rotation=75;fontStyle=1;fontSize=16;" vertex="1" parent="Ah3ungZF8JMPu_ykBt2b-1">
          <mxGeometry x="620" y="15" width="40" height="40" as="geometry" />
        </mxCell>
        <mxCell id="Ah3ungZF8JMPu_ykBt2b-198" value="" style="endArrow=none;html=1;entryX=0.188;entryY=0.908;entryDx=0;entryDy=0;exitX=1;exitY=0.5;exitDx=0;exitDy=0;entryPerimeter=0;fontStyle=1;fontSize=16;" edge="1" parent="Ah3ungZF8JMPu_ykBt2b-1" source="Ah3ungZF8JMPu_ykBt2b-4" target="Ah3ungZF8JMPu_ykBt2b-99">
          <mxGeometry width="50" height="50" relative="1" as="geometry">
            <mxPoint x="470" y="-40" as="sourcePoint" />
            <mxPoint x="829.3933982822778" y="115.60660171772201" as="targetPoint" />
          </mxGeometry>
        </mxCell>
        <mxCell id="HNkXReA8iUrLVaHDI0yN-0" value="&lt;font style=&quot;font-size: 14px&quot;&gt;&lt;b&gt;(0,*)&lt;/b&gt;&lt;/font&gt;" style="text;html=1;align=center;verticalAlign=middle;resizable=0;points=[];autosize=1;" vertex="1" parent="Ah3ungZF8JMPu_ykBt2b-1">
          <mxGeometry x="505" y="423.88" width="40" height="20" as="geometry" />
        </mxCell>
        <mxCell id="Ah3ungZF8JMPu_ykBt2b-101" value="" style="verticalLabelPosition=bottom;verticalAlign=top;html=1;shape=mxgraph.basic.arc;startAngle=0.3;endAngle=0.943091627240748;rotation=50;fontStyle=1;fontSize=16;" vertex="1" parent="Ah3ungZF8JMPu_ykBt2b-1">
          <mxGeometry x="630" y="100" width="40" height="40" as="geometry" />
        </mxCell>
        <mxCell id="HNkXReA8iUrLVaHDI0yN-1" value="" style="endArrow=none;html=1;exitX=1;exitY=0;exitDx=0;exitDy=0;entryX=0.273;entryY=0.951;entryDx=0;entryDy=0;entryPerimeter=0;fontStyle=1;fontSize=16;" edge="1" parent="Ah3ungZF8JMPu_ykBt2b-1" source="Ah3ungZF8JMPu_ykBt2b-28" target="Ah3ungZF8JMPu_ykBt2b-101">
          <mxGeometry width="50" height="50" relative="1" as="geometry">
            <mxPoint x="525" y="119.99999999999977" as="sourcePoint" />
            <mxPoint x="833.19" y="118.52999999999997" as="targetPoint" />
          </mxGeometry>
        </mxCell>
        <mxCell id="8000lpBd-qN1SqqdA3zr-0" value="1" style="text;html=1;align=center;verticalAlign=middle;resizable=0;points=[];autosize=1;fontStyle=1;fontSize=16;" vertex="1" parent="Ah3ungZF8JMPu_ykBt2b-1">
          <mxGeometry x="174.99999999999997" y="830" width="20" height="20" as="geometry" />
        </mxCell>
        <mxCell id="iDk_JJ48kxWQBRfKgmPg-0" value="1" style="text;html=1;align=center;verticalAlign=middle;resizable=0;points=[];autosize=1;fontStyle=1;fontSize=16;" vertex="1" parent="Ah3ungZF8JMPu_ykBt2b-1">
          <mxGeometry x="-20" y="35" width="20" height="20" as="geometry" />
        </mxCell>
        <mxCell id="Ah3ungZF8JMPu_ykBt2b-100" value="" style="verticalLabelPosition=bottom;verticalAlign=top;html=1;shape=mxgraph.basic.arc;startAngle=0.3;endAngle=0.9364874774391676;rotation=5;fontStyle=1;fontSize=16;" vertex="1" parent="Ah3ungZF8JMPu_ykBt2b-1">
          <mxGeometry x="737.5" y="170" width="40" height="40" as="geometry" />
        </mxCell>
        <mxCell id="iDk_JJ48kxWQBRfKgmPg-1" value="" style="endArrow=none;html=1;entryX=0.157;entryY=0.824;entryDx=0;entryDy=0;exitX=0.5;exitY=0;exitDx=0;exitDy=0;fontStyle=1;fontSize=16;entryPerimeter=0;" edge="1" parent="Ah3ungZF8JMPu_ykBt2b-1" source="Ah3ungZF8JMPu_ykBt2b-27" target="Ah3ungZF8JMPu_ykBt2b-100">
          <mxGeometry width="50" height="50" relative="1" as="geometry">
            <mxPoint x="690" y="260" as="sourcePoint" />
            <mxPoint x="840" y="119.99999999999977" as="targetPoint" />
          </mxGeometry>
        </mxCell>
      </root>
    </mxGraphModel>
  </diagram>
</mxfile>
